<svg width="158" height="120" viewBox="0 0 158 120" fill="none" xmlns="http://www.w3.org/2000/svg">
<g clip-path="url(#clip0_110_1594)">
<path d="M149.072 66.6941L147.127 66.4027C143.43 65.846 141.875 65.0812 141.875 63.5723C141.875 62.2248 143.82 61.4495 146.992 61.4495C150.72 61.4495 154.406 62.6982 155.831 63.8064V60.0135C154.079 58.9729 150.928 58 147.028 58C140.019 58 137.669 60.9865 137.669 63.5203C137.669 67.0375 140.638 69.051 145.863 69.8366L147.808 70.128C151.531 70.6847 152.971 71.3767 152.971 72.8127C152.971 74.1238 151.593 75.18 147.325 75.18C143.056 75.18 139.744 73.8116 138.116 72.6774V76.5588C140.861 77.98 143.917 78.6952 147.007 78.6399C153.309 78.6399 157.172 76.4183 157.172 73.0104C157.172 69.488 154.469 67.5005 149.072 66.6941Z" fill="black"/>
<path d="M11.5074 58.4735L0.5 78.3434H5.12239L7.72217 73.3955H19.6395L22.2393 78.3434H26.8617L15.8439 58.4735H11.5074ZM9.29763 70.3726L13.4989 62.4017H13.9096L18.0693 70.3726H9.29763Z" fill="black"/>
<path d="M62.7386 58.4735L51.7312 78.3434H56.3536L58.9534 73.3955H70.8759L73.4757 78.3434H78.0981L67.0543 58.4735H62.7386ZM60.5288 70.3726L64.6885 62.4017H65.0992L69.2589 70.3726H60.5288Z" fill="black"/>
<path d="M121.358 58.4735L110.351 78.3434H114.973L117.573 73.3955H129.495L132.095 78.3434H136.728L125.694 58.4735H121.358ZM119.148 70.3726L123.308 62.4017H123.729L127.889 70.3726H119.148Z" fill="black"/>
<path d="M46.6093 59.7846C44.8051 58.9366 41.8622 58.4735 38.8204 58.4735H29.2637V78.3434H38.8204C41.8622 78.3434 44.8051 77.8804 46.6197 77.0323C48.2742 76.2923 49.6717 75.0774 50.6354 73.5416C51.599 72.0059 52.0852 70.2185 52.0325 68.4059C52.0833 66.593 51.595 64.8058 50.6295 63.271C49.6641 61.7362 48.2649 60.5228 46.6093 59.7846ZM44.4255 74.1291C43.1569 74.7586 40.7859 75.0916 38.4305 75.0916H33.2569V61.7409H38.4565C40.8327 61.7409 43.1828 62.0739 44.4515 62.6983C46.8173 63.8793 47.8156 66.0229 47.8156 68.4059C47.8156 70.7888 46.8173 72.9376 44.4255 74.1291Z" fill="black"/>
<path d="M94.2997 71.5276L87.0672 58.4735H80.5781V78.3434H84.5506V62.0167H84.9509L94.2997 78.8897L103.649 62.0167H104.049V78.3434H108.021V58.4735H101.527L94.2997 71.5276Z" fill="black"/>
</g>
<defs>
<clipPath id="clip0_110_1594">
<rect width="157" height="120" fill="white" transform="translate(0.5)"/>
</clipPath>
</defs>
</svg>
