<svg width="87" height="120" viewBox="0 0 87 120" fill="none" xmlns="http://www.w3.org/2000/svg">
<g clip-path="url(#clip0_110_1616)">
<path fill-rule="evenodd" clip-rule="evenodd" d="M86.4201 58.3761C86.4201 51.4389 80.3808 45.8156 72.9299 45.8156C65.48 45.8156 59.4398 51.4389 59.4398 58.3752C59.4398 65.3133 65.48 70.9366 72.9299 70.9366C80.3799 70.9366 86.4201 65.3133 86.4201 58.3761ZM16.8758 65.0076C16.8767 65.1729 16.8773 65.3095 16.8777 65.407C16.8777 65.5222 16.8826 65.777 16.8826 65.777L16.6233 65.8437C14.2666 66.4512 11.8848 66.7704 9.46699 66.2607C8.10333 65.9739 6.96471 65.3523 6.48869 63.973C5.89052 62.2422 6.71039 60.6811 8.52581 60.1046C10.1396 59.5924 11.7894 59.6893 13.4375 59.8544C14.4858 59.9592 15.5039 60.2015 16.4995 60.535C16.6584 60.5881 16.9068 60.6675 16.9068 60.6675C16.9068 60.6675 16.8919 60.9098 16.8868 61.0383C16.8608 61.6677 16.871 63.9379 16.8758 65.0076ZM22.6936 68.5156C22.6936 68.5156 22.6862 60.1077 22.6853 56.137C22.6853 55.2873 22.6769 54.4393 22.5456 53.5962C22.0119 50.17 20.1203 47.7586 16.6576 46.5946C13.5003 45.533 10.2827 45.5568 7.06009 46.3365C5.05475 46.8216 3.19917 47.6148 1.5862 48.8742L1.24571 49.1401L3.96467 52.7894C3.96467 52.7894 4.20142 52.6473 4.3244 52.5718C7.11112 50.8711 10.1354 50.27 13.3731 50.9799C15.022 51.3411 16.2401 52.247 16.6877 53.9146C16.8714 54.5975 16.8722 55.2835 16.873 56.0179C16.8733 56.2037 16.8735 56.3928 16.8768 56.5856C15.0271 55.9623 13.1614 55.7361 11.2665 55.6883C8.80356 55.6265 6.41089 55.9162 4.19138 57.0159C-0.558843 59.3709 -0.450085 64.6582 1.56111 67.3618C2.77166 68.9888 4.50176 69.8352 6.45858 70.326C8.80858 70.9143 11.1988 70.954 13.6031 70.7452C16.6015 70.4855 19.4995 69.8519 22.2687 68.699C22.4326 68.6307 22.6936 68.5156 22.6936 68.5156ZM29.6283 46.5699L29.1105 46.6287V69.8281C29.2638 69.8463 29.417 69.8641 29.5705 69.8812C31.3701 70.0829 33.1638 70.1076 34.9624 69.8812C35.1624 69.8558 35.4451 69.8178 35.4451 69.8178V46.6247L34.9624 46.5707C33.1908 46.3679 31.3999 46.3677 29.6283 46.5699ZM28.4511 39.6406C28.411 41.6661 30.1813 43.3058 32.4451 43.3534C34.6018 43.3987 36.4449 41.7368 36.4734 39.7224C36.5017 37.7318 34.7014 35.9874 32.5346 36.0001C30.1704 36.0144 28.4905 37.6357 28.4511 39.6406ZM42.8658 48.8344L42.4844 49.106V69.8288L42.9779 69.8893C44.6385 70.0893 46.3186 70.0926 47.98 69.8987L48.5405 69.8321L48.5322 51.6666C48.5322 51.6666 49.3311 51.4642 49.982 51.3031C52.1772 50.7607 54.38 50.7885 56.5803 51.2538C56.7617 51.2927 57.0638 51.3507 57.0638 51.3507L58.6734 46.4945L58.1706 46.3619C55.5955 45.683 52.9845 45.6171 50.3618 45.9808C47.6228 46.3603 45.0879 47.2448 42.8658 48.8344ZM72.9343 65.2889C76.9447 65.2889 80.3342 62.2018 80.3342 58.3935C80.3342 54.5853 76.9447 51.4982 72.9343 51.4982C68.924 51.4982 65.5345 54.5853 65.5345 58.3935C65.5345 62.2018 68.924 65.2889 72.9343 65.2889Z" fill="#1B89EF"/>
</g>
<defs>
<clipPath id="clip0_110_1616">
<rect width="86" height="120" fill="white" transform="translate(0.25)"/>
</clipPath>
</defs>
</svg>
