<svg width="88" height="120" viewBox="0 0 88 120" fill="none" xmlns="http://www.w3.org/2000/svg">
<g clip-path="url(#clip0_110_1574)">
<mask id="mask0_110_1574" style="mask-type:luminance" maskUnits="userSpaceOnUse" x="0" y="57" width="22" height="22">
<path d="M0.5 57.1749H21.8428V78.6121H0.5V57.1749Z" fill="white"/>
</mask>
<g mask="url(#mask0_110_1574)">
<path fill-rule="evenodd" clip-rule="evenodd" d="M11.5075 61.7539C13.6453 61.7539 15.3744 62.6623 16.3307 64.5149H21.8428C20.4804 60.155 16.7261 57.1749 11.5758 57.1749C3.95708 57.1749 0.5 63.062 0.5 67.7475C0.5 72.7645 4.10327 78.6121 11.7592 78.6121C16.8352 78.6121 20.3318 75.6692 21.8416 71.4169L16.3295 71.4181C14.9658 73.8907 12.3535 74.0343 11.5075 74.0343C7.75328 74.0343 5.39863 71.2745 5.39863 67.8205C5.39863 64.5867 7.60709 61.7539 11.5075 61.7539Z" fill="black"/>
</g>
<path fill-rule="evenodd" clip-rule="evenodd" d="M34.1816 74.033C30.5748 74.033 28.2561 71.199 28.2561 67.9293C28.2561 64.6573 30.5352 61.7526 34.1816 61.7526C37.828 61.7526 40.106 64.6609 40.106 67.9305C40.106 71.199 37.7885 74.0342 34.1816 74.0342M34.178 57.1737C27.9217 57.1737 23.3574 62.0435 23.3574 67.9305C23.3574 73.7781 27.9649 78.6108 34.1816 78.6108C40.3984 78.6108 44.9974 73.7805 44.9974 67.9305H44.9938C44.9938 62.0423 40.4343 57.1737 34.178 57.1737ZM48.3203 56.9774V57.8271H46.2916V62.1141H48.3203V77.9574H53.2129V62.1117H56.3033V57.8271H53.2117V56.9762C53.2117 55.9589 53.7833 54.8303 55.6778 54.8303H56.3033V50.0036H55.3819C51.189 50.0036 48.3191 52.4714 48.3191 56.9774" fill="black"/>
<mask id="mask1_110_1574" style="mask-type:luminance" maskUnits="userSpaceOnUse" x="0" y="50" width="88" height="29">
<path d="M0.5 78.612H87.7119V50H0.5V78.612Z" fill="white"/>
</mask>
<g mask="url(#mask1_110_1574)">
<path fill-rule="evenodd" clip-rule="evenodd" d="M59.4453 54.8304H64.3392V50.0001H59.4453V54.8304ZM59.4453 77.9598H64.3392V57.8284H59.4453V77.9598ZM80.0188 67.6362L87.0313 57.8284H81.1824L76.8326 64.0996L72.4816 57.8284H66.6279L73.4809 67.6362L66.0263 77.9598H72.2383L76.8721 71.2051L81.5071 77.9598H87.7119L80.0188 67.6362Z" fill="black"/>
</g>
</g>
<defs>
<clipPath id="clip0_110_1574">
<rect width="87" height="120" fill="white" transform="translate(0.5)"/>
</clipPath>
</defs>
</svg>
