<svg width="87" height="120" viewBox="0 0 87 120" fill="none" xmlns="http://www.w3.org/2000/svg">
<g clip-path="url(#clip0_110_1551)">
<path fill-rule="evenodd" clip-rule="evenodd" d="M37.5857 25.0429C39.4337 23.6762 41.7096 23.0161 44.0019 23.1819C45.1311 23.1142 46.2616 23.2881 47.3183 23.692C48.3749 24.0959 49.3332 24.7205 50.1294 25.5241C50.7444 26.2185 51.1062 27.1006 51.156 28.0268C51.156 28.2514 51.156 28.4119 51.4447 28.4119C51.7335 28.4119 51.8297 28.2514 51.8297 27.8022C51.7372 26.1672 51.7372 24.5282 51.8297 22.8931C51.8297 22.6685 51.8297 22.5402 51.4127 22.5402C50.6147 22.472 49.8219 22.3542 49.0387 22.1872C47.4914 21.9266 45.9236 21.8085 44.3548 21.8343C41.5274 21.6906 38.719 22.3705 36.2704 23.7915C34.6374 24.7934 33.3029 26.2148 32.4057 27.9078C31.5086 29.6007 31.0817 31.5032 31.1695 33.4172C31.1695 41.6953 36.9761 45.4173 44.3227 45.4173C46.5405 45.5114 48.7464 45.0481 50.739 44.0697C51.0918 43.8451 51.1239 43.813 51.1239 42.9788V39.7702C51.1239 38.2622 51.1239 37.075 51.1239 36.1766C51.1239 35.2782 51.4447 34.6044 52.2468 34.4761H53.0488C53.2734 34.4761 53.4658 34.4761 53.4658 34.2194C53.4658 33.9627 53.2413 33.9306 52.8563 33.9306C51.8618 33.9306 51.156 33.9306 50.2257 33.9306C49.2953 33.9306 47.4025 33.9306 45.8626 33.9306C45.8626 31.0429 45.8626 28.3798 45.8626 28.1231C45.8626 27.8664 46.023 27.1605 46.6646 27.0322H47.4025C47.6271 27.0322 47.7554 27.0322 47.7554 27.0322C47.7554 27.0322 47.595 26.8397 47.3063 26.8397H44.5794H41.7883C41.1565 26.765 40.5161 26.8235 39.9083 27.0114C39.3005 27.1993 38.7388 27.5124 38.2594 27.9306C37.6668 28.544 37.3237 29.3561 37.297 30.2087C37.2787 30.8258 37.3879 31.4401 37.6177 32.0132C37.8475 32.5863 38.1929 33.1058 38.6325 33.5394C39.072 33.9729 39.5962 34.3112 40.1723 34.5331C40.7484 34.755 41.364 34.8557 41.9808 34.829H42.2054C42.2054 34.829 42.4299 34.829 42.4299 34.6365C42.4299 34.444 42.4299 34.444 41.8846 34.444C41.149 34.294 40.4894 33.8907 40.0204 33.3045C39.5515 32.7182 39.3029 31.986 39.3181 31.2354C39.2913 30.7041 39.3808 30.1733 39.5803 29.6801C39.7798 29.1869 40.0844 28.7431 40.473 28.3798C40.9871 27.902 41.664 27.6381 42.3658 27.6418H43.1036C43.1036 27.6418 43.1036 27.6418 43.1036 28.0268V35.1819C43.1036 36.9467 43.1036 38.9039 43.1036 39.706C43.1036 40.5082 42.9432 40.6686 42.3658 40.7328C42.0351 40.766 41.7019 40.766 41.3713 40.7328C41.1788 40.7328 41.0825 40.7328 41.0825 40.8932C41.0825 41.0536 41.0825 41.0857 41.4354 41.0857H44.419H45.5418C45.5418 41.0857 45.5418 37.5242 45.5418 34.0589C45.9043 34.0197 46.27 34.0197 46.6326 34.0589C47.6271 34.2515 47.8837 34.7327 47.9158 35.7595C47.9479 36.7862 47.9158 37.813 47.9158 39.2889V42.1125C47.9529 42.3368 47.9168 42.5672 47.8128 42.7695C47.7088 42.9717 47.5424 43.1351 47.3384 43.2355C46.5217 43.5031 45.6615 43.612 44.8039 43.5563C43.3674 43.6669 41.9241 43.4609 40.5759 42.9529C39.2276 42.4449 38.0072 41.6472 37.0007 40.6161C35.9943 39.585 35.2263 38.3456 34.7508 36.9854C34.2754 35.6251 34.1042 34.1771 34.2492 32.7434C34.195 31.3089 34.4539 29.8797 35.0079 28.5554C35.5619 27.2311 36.3978 26.0434 37.4574 25.0749L37.5857 25.0429Z" fill="#241F0C"/>
<path fill-rule="evenodd" clip-rule="evenodd" d="M32.9017 21.8343C36.1317 19.9231 39.8158 18.9148 43.5687 18.9148C47.3217 18.9148 51.0057 19.9231 54.2357 21.8343C55.1589 19.8786 56.4433 18.1151 58.0213 16.6364C58.8418 15.8535 59.7213 15.1348 60.6519 14.4867C60.2864 14.1978 59.8346 14.0396 59.3687 14.0375C58.9435 14.0357 58.5286 14.1681 58.183 14.4158C57.8375 14.6635 57.5788 15.0139 57.4438 15.4172C57.3439 15.1864 57.1867 14.985 56.9871 14.8321C56.7875 14.6792 56.5521 14.5798 56.3033 14.5434C56.0546 14.507 55.8006 14.5347 55.5656 14.624C55.3306 14.7133 55.1222 14.8612 54.9604 15.0536C54.7985 15.2461 54.6885 15.4766 54.6408 15.7235C54.593 15.9704 54.6091 16.2254 54.6876 16.4643C54.766 16.7032 54.9042 16.9181 55.089 17.0886C55.2738 17.2591 55.4991 17.3796 55.7435 17.4386C55.4978 17.7682 55.1783 18.0358 54.8106 18.2196C54.4429 18.4035 54.0372 18.4986 53.6261 18.4974C52.914 18.4891 52.2334 18.2024 51.7298 17.6988C51.2262 17.1951 50.9397 16.5144 50.9313 15.8022C50.9159 15.6529 50.9159 15.5023 50.9313 15.353C51.1008 15.3867 51.2752 15.3867 51.4446 15.353C51.7365 15.353 52.0218 15.2664 52.2645 15.1042C52.5072 14.9421 52.6963 14.7116 52.808 14.4419C52.9197 14.1722 52.9489 13.8754 52.892 13.5891C52.8351 13.3028 52.6945 13.0398 52.4881 12.8334C52.2817 12.627 52.0188 12.4864 51.7325 12.4295C51.4463 12.3725 51.1495 12.4017 50.8799 12.5135C50.6102 12.6252 50.3798 12.8143 50.2176 13.0571C50.0554 13.2998 49.9689 13.5851 49.9689 13.877C49.9661 14.0905 50.0107 14.302 50.0995 14.4962C50.1882 14.6904 50.3189 14.8625 50.4822 15C50.1015 15.567 49.5499 15.9976 48.9076 16.2293C48.2653 16.4611 47.5659 16.4818 46.911 16.2885C46.2561 16.0953 45.68 15.6981 45.2664 15.1547C44.8528 14.6114 44.6233 13.9502 44.6113 13.2674C44.58 13.0332 44.58 12.7958 44.6113 12.5615V12.722C44.6195 13.1108 44.7776 13.4815 45.0526 13.7565C45.3276 14.0316 45.6983 14.1897 46.0871 14.1979C46.4785 14.1979 46.8538 14.0424 47.1306 13.7656C47.4073 13.4888 47.5628 13.1134 47.5628 12.722C47.5628 12.3305 47.4073 11.9551 47.1306 11.6783C46.8538 11.4015 46.4785 11.246 46.0871 11.246C45.8447 11.2746 45.6133 11.3628 45.4134 11.5027C45.4445 11.3438 45.4445 11.1803 45.4134 11.0214C45.4494 10.7368 45.4245 10.4477 45.3402 10.1735C45.256 9.89921 45.1143 9.64604 44.9246 9.43078C44.735 9.21553 44.5016 9.04312 44.2402 8.92502C43.9788 8.80693 43.6952 8.74585 43.4083 8.74585C43.1214 8.74585 42.8378 8.80693 42.5764 8.92502C42.315 9.04312 42.0816 9.21553 41.892 9.43078C41.7023 9.64604 41.5606 9.89921 41.4764 10.1735C41.3921 10.4477 41.3672 10.7368 41.4032 11.0214C41.3876 11.1815 41.3876 11.3427 41.4032 11.5027C41.2564 11.4087 41.0931 11.3434 40.922 11.3102C40.6289 11.3038 40.3405 11.3849 40.0936 11.5432C39.8467 11.7014 39.6526 11.9297 39.536 12.1987C39.4193 12.4678 39.3855 12.7655 39.4388 13.0539C39.492 13.3423 39.63 13.6083 39.835 13.8179C40.0401 14.0275 40.3029 14.1713 40.59 14.2309C40.8771 14.2905 41.1755 14.2632 41.447 14.1525C41.7185 14.0418 41.9509 13.8527 42.1146 13.6094C42.2782 13.366 42.3656 13.0794 42.3657 12.7861C42.3505 12.7337 42.3505 12.6781 42.3657 12.6257C42.3815 12.8607 42.3815 13.0966 42.3657 13.3316C42.3657 14.1826 42.0277 14.9987 41.426 15.6004C40.8244 16.2021 40.0084 16.5402 39.1575 16.5402C38.6237 16.5427 38.0977 16.412 37.6271 16.1599C37.1566 15.9078 36.7563 15.5422 36.4627 15.0963C36.6302 14.9603 36.7658 14.7893 36.86 14.5953C36.9542 14.4013 37.0048 14.189 37.0081 13.9733C37.0101 13.67 36.9186 13.3734 36.746 13.124C36.5735 12.8745 36.3283 12.6843 36.0438 12.5792C35.7593 12.4741 35.4494 12.4592 35.1561 12.5365C34.8629 12.6139 34.6006 12.7797 34.4049 13.0115C34.2092 13.2432 34.0897 13.5296 34.0626 13.8317C34.0355 14.1338 34.1021 14.4369 34.2533 14.6998C34.4046 14.9627 34.6332 15.1726 34.9079 15.301C35.1827 15.4293 35.4904 15.4699 35.789 15.4172C35.9585 15.4509 36.1329 15.4509 36.3023 15.4172C36.3023 15.5776 36.3023 15.7059 36.3023 15.8664C36.3111 16.2311 36.2458 16.5939 36.1102 16.9326C35.9747 17.2714 35.7718 17.5791 35.5138 17.8371C35.2559 18.0951 34.9482 18.298 34.6095 18.4336C34.2708 18.5692 33.9081 18.6345 33.5433 18.6257C33.1285 18.6222 32.7198 18.5252 32.3477 18.3419C31.9756 18.1585 31.6495 17.8937 31.3939 17.5669C31.7272 17.4667 32.0144 17.252 32.2048 16.9606C32.3951 16.6692 32.4763 16.3198 32.4341 15.9743C32.3919 15.6288 32.2289 15.3093 31.974 15.0724C31.7191 14.8354 31.3886 14.6961 31.041 14.6792C30.7715 14.6735 30.5052 14.7386 30.2687 14.8681C30.0323 14.9976 29.834 15.187 29.6936 15.4172C29.5646 15.0165 29.3119 14.6671 28.9718 14.4191C28.6317 14.1712 28.2217 14.0376 27.8008 14.0375C27.334 14.0345 26.8806 14.1932 26.5176 14.4867C27.4377 15.1354 28.3065 15.8541 29.1162 16.6364C30.7037 18.1066 31.9895 19.8721 32.9017 21.8343Z" fill="#241F0C"/>
<path fill-rule="evenodd" clip-rule="evenodd" d="M15.0965 71.5351H12.6904C12.4337 71.5351 12.3054 71.5351 12.3054 71.6955C12.3054 71.856 12.3054 71.856 12.5941 71.856H13.2999C13.8774 71.856 14.0057 72.2731 14.0378 72.8506C14.0699 73.4282 14.0378 73.9094 14.0378 76.6046V79.8132C14.0378 81.4496 14.0378 82.8293 14.0378 83.5672C14.0378 84.3052 14.0378 84.4656 13.5245 84.5298H12.8829C12.6904 84.5298 12.5941 84.5298 12.5941 84.6902C12.5941 84.8507 12.5942 84.8507 12.947 84.8507H15.0965H17.6951C17.9196 84.8507 18.0479 84.8507 18.0479 84.6902C18.0479 84.5298 18.0479 84.5298 17.8234 84.5298H16.9572C16.4439 84.5298 16.3476 84.0806 16.2835 83.5672C16.2193 83.0539 16.2835 81.4496 16.2835 79.8132V79.5886H17.8234C17.8737 79.5655 17.9284 79.5536 17.9838 79.5536C18.0391 79.5536 18.0939 79.5655 18.1442 79.5886L19.8766 82.0271C20.5026 83.0514 21.3325 83.936 22.3147 84.6261C22.8979 84.8885 23.5381 84.9989 24.1754 84.9469H25.8437C26.0682 84.9469 26.1966 84.9469 26.1966 84.7865C26.1966 84.6261 26.1966 84.6261 25.972 84.6261H25.4908C24.7142 84.4434 24.0169 84.0159 23.5017 83.4068C22.4751 82.3159 21.2561 80.7437 19.6841 78.7865C20.3664 78.3692 20.9364 77.7916 21.3445 77.1037C21.7527 76.4159 21.9866 75.6388 22.026 74.8399C22.0097 74.3743 21.8921 73.9179 21.6816 73.5023C21.4711 73.0868 21.1726 72.722 20.8069 72.4335C19.8388 71.8613 18.7212 71.593 17.5988 71.6634H15.0965V71.5351ZM19.9407 75.5458C19.9816 76.0336 19.9104 76.5243 19.7324 76.9804C19.5545 77.4364 19.2746 77.8457 18.9141 78.1768C18.5469 78.424 18.1014 78.5268 17.663 78.4656C17.2163 78.5324 16.7622 78.5324 16.3156 78.4656C16.3156 78.4656 16.3156 78.4656 16.3156 78.1448V72.626C16.2893 72.5883 16.2753 72.5436 16.2753 72.4977C16.2753 72.4518 16.2893 72.407 16.3156 72.3693H17.2459C18.3046 72.3693 19.9407 73.1073 19.9407 75.5779V75.5458Z" fill="#241F0C"/>
<path fill-rule="evenodd" clip-rule="evenodd" d="M43.6482 93.8988C43.9672 92.8604 44.1082 91.7756 44.0652 90.6902C44.0652 89.8239 44.0652 88.9576 44.0652 88.2196V76.6046C44.0652 73.9094 44.0652 73.396 44.0652 72.8505C44.0652 72.3051 44.2577 71.9521 44.739 71.8559H45.2202C45.4447 71.8559 45.5731 71.8559 45.5731 71.6955C45.5731 71.535 45.5731 71.535 45.1881 71.535H42.9745H40.4722C40.2155 71.535 40.0872 71.535 40.0872 71.6955C40.0872 71.8559 40.0872 71.8559 40.3759 71.8559H41.0817C41.6592 71.8559 41.7875 72.273 41.8196 72.8505C41.8516 73.4281 41.8196 73.9094 41.8196 76.6046V90.1127C41.8196 93.5458 41.8196 95.3105 40.5042 96.5298C40.2579 96.791 39.9773 97.0177 39.6701 97.2036C39.3814 97.2036 39.2852 97.4282 39.2852 97.5245H39.638L40.5363 97.0753C41.853 96.3584 42.9004 95.2321 43.5199 93.8667L43.6482 93.8988Z" fill="#241F0C"/>
<path fill-rule="evenodd" clip-rule="evenodd" d="M11.3109 69.7062C13.2381 69.7797 15.157 69.4177 16.9251 68.6474C17.2138 68.4869 17.2459 68.4548 17.2459 67.8131V65.2463C17.2459 64.0912 17.2459 63.1286 17.2459 62.4227C17.2459 61.7168 17.5025 61.2356 18.1121 61.1072C18.3251 61.08 18.5407 61.08 18.7537 61.1072C18.7537 61.1072 19.0745 61.1072 19.0745 60.9147C19.0745 60.7222 18.882 60.658 18.5933 60.658H15.8664C15.1606 60.658 13.6849 60.658 12.4658 60.658C12.145 60.658 11.9846 60.658 11.9846 60.9147C11.9846 61.1714 11.9846 61.1072 12.3375 61.1072C12.6358 61.0703 12.9375 61.0703 13.2358 61.1072C14.0057 61.2676 14.2303 61.6527 14.2303 62.4227C14.2303 63.1928 14.2303 64.027 14.2303 65.1821V67.396C14.2558 67.5693 14.2262 67.7462 14.1456 67.9017C14.065 68.0572 13.9375 68.1834 13.7811 68.2623C13.1413 68.477 12.4655 68.5642 11.7921 68.519C10.6698 68.5184 9.55978 68.2851 8.53222 67.8337C7.50465 67.3823 6.58184 66.7227 5.8221 65.8965C5.06236 65.0703 4.48219 64.0955 4.11825 63.0337C3.75431 61.9719 3.6145 60.8461 3.70766 59.7275C3.60341 58.66 3.74268 57.5826 4.115 56.5767C4.48731 55.5707 5.08296 54.6624 5.85709 53.92C7.17913 52.8863 8.83394 52.3727 10.5089 52.4762C12.4199 52.4064 14.287 53.0594 15.7381 54.305C16.1907 54.8498 16.4601 55.5235 16.508 56.2302C16.508 56.4227 16.508 56.551 16.7647 56.551C17.0213 56.551 17.0213 56.551 17.0213 56.0698C16.9443 54.7875 16.9443 53.5017 17.0213 52.2195C17.0213 52.059 17.0213 51.9628 16.6684 51.9307C16.053 51.8946 15.4414 51.8088 14.8398 51.674C13.4706 51.4572 12.0875 51.3392 10.7013 51.3211C8.46074 51.1803 6.2285 51.7049 4.28512 52.8291C3.04211 53.6756 2.0399 54.8301 1.37639 56.1798C0.712883 57.5295 0.410761 59.0283 0.499541 60.5297C0.499541 66.9468 5.56836 69.7062 11.3109 69.7062Z" fill="#241F0C"/>
<path fill-rule="evenodd" clip-rule="evenodd" d="M22.9568 52.1232C23.234 52.0917 23.5138 52.0917 23.791 52.1232C24.3043 52.1232 24.5288 52.6366 24.593 53.4387C24.6571 54.2409 24.593 54.8184 24.593 58.3799V62.519C24.593 64.765 24.593 66.6259 24.593 67.5885C24.593 68.5511 24.3684 68.6794 23.9193 68.7757C23.631 68.7987 23.3414 68.7987 23.0531 68.7757C22.7644 68.7757 22.7002 68.7757 22.7002 68.9682C22.7002 69.1607 22.7002 69.1928 23.1493 69.1928H26.1008H29.758C30.0147 69.1928 30.2072 69.1928 30.2072 68.9682C30.2072 68.7436 30.2072 68.7757 29.8222 68.7757H28.6352C27.9294 68.7757 27.769 68.2623 27.7049 67.6206C27.6407 66.9789 27.7049 64.765 27.7049 62.519V58.4762C27.7049 54.9147 27.7049 54.2729 27.7049 53.535C27.7049 52.797 27.9294 52.3157 28.571 52.1874H29.2768C29.5014 52.1874 29.6618 52.1874 29.6618 51.9628C29.6618 51.7382 29.4693 51.7703 29.1806 51.7703H26.2933H23.2777C22.8927 51.7703 22.7002 51.7703 22.7002 51.9628C22.7002 52.1553 22.7002 52.1874 23.0852 52.1874L22.9568 52.1232Z" fill="#241F0C"/>
<path fill-rule="evenodd" clip-rule="evenodd" d="M51.8298 51.7061H49.552H46.7289C46.376 51.7061 46.1193 51.7061 46.1193 51.8986C46.1193 52.0911 46.1193 52.1232 46.4722 52.1232C46.8869 52.0598 47.3088 52.0598 47.7234 52.1232C48.2688 52.3799 48.4933 52.8291 48.5254 54.2409L48.75 64.7329C48.3329 64.38 45.189 61.011 43.5849 59.4067C40.1843 56.0056 36.6233 52.1874 36.3346 51.8986C36.0459 51.6098 35.725 51.1606 35.4684 51.1606C35.2117 51.1606 35.1797 51.5136 35.1797 51.9628L34.9551 65.8238C34.9551 67.8452 34.9551 68.519 34.2172 68.7115C33.8765 68.7566 33.5314 68.7566 33.1906 68.7115C32.9661 68.7115 32.8057 68.7115 32.8057 68.904C32.8057 69.0966 33.0302 69.1286 33.319 69.1286H35.8534C36.3025 69.1286 37.2329 69.1286 38.7407 69.1286C39.0615 69.1286 39.2861 69.1286 39.2861 68.904C39.2861 68.6794 39.2861 68.7115 38.869 68.7115C38.4674 68.7193 38.0671 68.6652 37.682 68.5511C37.2008 68.3907 36.9121 67.781 36.8479 65.9522L36.5912 56.1339C37.0083 56.5831 39.6069 59.5029 42.1734 62.0056C44.7399 64.5083 47.5951 67.4923 49.0708 68.904C49.3275 69.1607 49.6162 69.4174 49.8728 69.4174C50.1295 69.4174 50.1616 69.1928 50.1616 68.6794L50.4182 53.92C50.4182 52.6045 50.6428 52.1232 51.2844 51.9307C51.5188 51.9018 51.7558 51.9018 51.9902 51.9307C52.2789 51.9307 52.4072 51.9307 52.4072 51.7061C52.4072 51.4815 52.1827 51.5136 51.8619 51.5136L51.8298 51.7061Z" fill="#241F0C"/>
<path fill-rule="evenodd" clip-rule="evenodd" d="M78.4567 62.1019H74.2862C74.2862 62.1019 74.2862 62.1019 74.2862 61.9415L76.4356 56.1982V55.9736C76.4356 55.9736 76.4356 55.9736 76.4356 56.1982L78.5209 61.9736L78.4567 62.1019ZM86.3487 68.9683H85.3862C84.8729 68.9683 84.1992 68.5191 83.301 66.4014C81.8252 62.872 78.0717 53.3105 77.4943 52.027C77.2697 51.4816 77.1414 51.2891 76.9168 51.2891C76.6923 51.2891 76.5639 51.5457 76.2752 52.2195L70.4044 66.7544C69.9231 67.9095 69.474 68.7116 68.4153 68.8399H67.6775V68.6795C67.947 67.7493 68.1084 66.7911 68.1587 65.8239C68.1587 65.2784 68.1587 65.118 67.9341 65.118C67.7095 65.118 67.7416 65.118 67.6775 65.503C67.5994 65.8973 67.4586 66.2764 67.2604 66.626C66.9075 67.3319 65.9772 67.9095 63.6031 67.9095H57.8606C61.0687 62.872 64.6939 57.5137 67.9341 52.2837C68.0324 52.151 68.0983 51.9972 68.1266 51.8345C68.1266 51.8345 67.9341 51.642 67.7095 51.642H60.5875C59.6251 51.642 58.5022 51.642 56.2886 51.642C55.7112 51.642 55.5508 51.4816 55.3262 51.4816C55.1016 51.4816 55.1016 51.4816 55.0696 51.9308C55.0375 52.38 54.5883 54.7543 54.5883 55.1393C54.5883 55.5244 54.5883 55.5244 54.7808 55.5244C54.9733 55.5244 55.0054 55.5244 55.0696 55.1073C55.1304 54.729 55.2742 54.3689 55.4905 54.0528C55.7068 53.7366 55.9903 53.4722 56.3207 53.2784C57.3972 52.8826 58.5451 52.7186 59.6893 52.7971H64.2768C61.0687 57.7062 57.6681 63.0003 54.3959 68.1661C54.1071 68.5833 54.043 68.6795 54.043 68.8399C54.043 69.0004 54.043 69.0966 54.4279 69.0966C59.1439 69.0966 63.0898 69.0966 67.0037 69.0966C67.1486 69.1507 67.3081 69.1507 67.4529 69.0966C67.5769 69.1434 67.7138 69.1434 67.8379 69.0966H70.5968H73.0992C73.3558 69.0966 73.4841 69.0966 73.4841 68.872C73.4841 68.6474 73.4841 68.6795 73.1312 68.6795H72.7784C72.0726 68.6795 71.848 68.3587 71.848 67.9415C71.8944 67.456 72.0133 66.9801 72.2009 66.5298L73.4521 63.5458C73.4521 63.5458 73.4521 63.5458 73.6766 63.5458H78.9059C78.9386 63.5223 78.9778 63.5097 79.0181 63.5097C79.0584 63.5097 79.0977 63.5223 79.1304 63.5458L80.9911 68.487C81.0179 68.5348 81.0341 68.5877 81.0388 68.6422C81.0435 68.6968 81.0365 68.7517 81.0183 68.8033C81 68.8549 80.971 68.902 80.9332 68.9416C80.8953 68.9811 80.8494 69.0121 80.7986 69.0325C80.542 69.0325 80.4457 69.0325 80.4457 69.2571C80.4457 69.4817 80.7345 69.4175 81.1515 69.4175C83.0443 69.4175 84.7446 69.4175 85.5787 69.4175C86.4128 69.4175 86.6695 69.4175 86.6695 69.1929C86.6695 68.9683 86.6695 69.0004 86.3487 69.0004V68.9683Z" fill="#241F0C"/>
<path fill-rule="evenodd" clip-rule="evenodd" d="M32.5807 84.1448C29.3726 84.1448 27.1911 81.257 27.1911 77.7276C27.1911 73.3319 29.501 72.2089 31.5221 72.2089C34.4094 72.2089 36.6551 74.6474 36.6551 78.626C36.6551 83.7276 33.8319 84.3052 32.5807 84.3052V84.1448ZM32.0354 71.3105C31.1092 71.2576 30.182 71.3958 29.3114 71.7164C28.4408 72.0369 27.6454 72.533 26.9745 73.1739C26.3036 73.8148 25.7716 74.5867 25.4116 75.4418C25.0515 76.2969 24.871 77.2169 24.8813 78.1447C24.853 79.0748 25.0186 80.0005 25.3674 80.8631C25.7163 81.7257 26.2409 82.5062 26.9077 83.1551C27.5745 83.8039 28.3691 84.3069 29.2408 84.6319C30.1126 84.957 31.0424 85.097 31.9712 85.0432C32.9341 85.0883 33.8958 84.9329 34.7955 84.5869C35.6952 84.241 36.5132 83.7119 37.1978 83.0332C37.8824 82.3546 38.4186 81.5411 38.7725 80.6444C39.1264 79.7477 39.2902 78.7872 39.2536 77.8239C39.2816 76.908 39.1132 75.9967 38.7596 75.1513C38.4061 74.3059 37.8756 73.5461 37.2039 72.9229C36.5322 72.2998 35.7348 71.8277 34.8654 71.5385C33.996 71.2493 33.0748 71.1497 32.1637 71.2463L32.0354 71.3105Z" fill="#241F0C"/>
<path fill-rule="evenodd" clip-rule="evenodd" d="M51.4765 72.4335H53.9788C54.8771 72.4335 55.0375 72.7544 55.1658 73.0752C55.2056 73.2765 55.2056 73.4836 55.1658 73.6849C55.1658 73.8453 55.1658 73.9416 55.3262 73.9416C55.4866 73.9416 55.4866 73.9416 55.5187 73.749C55.5508 73.5565 55.5187 72.7544 55.5187 72.594C55.4901 72.2095 55.4901 71.8234 55.5187 71.4389V71.2784H55.2621H54.4921H47.7551C47.4984 71.2784 47.3701 71.2784 47.3701 71.4389C47.3701 71.5993 47.3701 71.5993 47.6588 71.5993H48.3646C48.9421 71.5993 49.0704 72.0164 49.1025 72.594C49.1346 73.1715 49.1025 73.6528 49.1025 76.348V79.5566C49.1025 81.1929 49.1025 82.5726 49.1025 83.3106C49.1025 84.0486 48.9421 84.209 48.5892 84.2732H47.9476C47.723 84.2732 47.6588 84.2732 47.6588 84.4336C47.6588 84.594 47.6588 84.594 48.0117 84.594H50.2253H52.054H55.2621C55.9358 84.594 56.0962 84.594 56.2245 84.1448C56.3327 83.4967 56.4077 82.8434 56.4491 82.1876C56.4491 81.9951 56.4491 81.8667 56.2887 81.8667C56.1283 81.8667 56.2887 81.8667 56.0962 82.1234C56.0962 82.8293 55.7754 83.2143 55.3262 83.4068C54.791 83.5935 54.2235 83.6699 53.658 83.6314C51.8936 83.6314 51.6048 83.3748 51.5407 82.1555V78.3052V78.1127H54.043C54.6846 78.1127 54.9413 78.4336 55.0054 78.7865C55.0161 79.0003 55.0161 79.2144 55.0054 79.4282L55.0375 79.5886C55.0375 79.5886 55.1979 79.3961 55.1979 79.2678C55.1979 79.1394 55.1979 78.4336 55.1979 78.0806C55.1979 77.1822 55.1979 76.8934 55.1979 76.7972C55.1979 76.7972 55.0375 76.7972 54.9092 77.0218C54.7969 77.1238 54.6651 77.202 54.5217 77.2516C54.3783 77.3012 54.2264 77.3213 54.0751 77.3106H51.2519C51.2519 77.3106 51.2519 77.3106 51.2519 77.118V72.594V72.4335H51.4765Z" fill="#241F0C"/>
<path fill-rule="evenodd" clip-rule="evenodd" d="M66.3938 72.1126C67.6741 72.0299 68.9405 72.4178 69.9549 73.2036C70.3758 73.6357 70.6264 74.2055 70.6606 74.8078C70.6606 75.0645 70.6606 75.1929 70.821 75.1929C70.9814 75.1929 71.0135 75.1929 71.0456 74.8078C71.0777 74.4228 71.0456 73.4923 71.0456 72.9148C71.0456 72.3372 71.0456 72.0806 71.0456 71.9201C71.0456 71.7597 71.0456 71.7276 70.789 71.7276C70.5323 71.7276 69.6982 71.503 69.0245 71.4068C68.1735 71.2961 67.3161 71.2425 66.458 71.2463C64.4356 71.1152 62.4426 71.7834 60.908 73.1073C60.2469 73.7202 59.7224 74.4656 59.3686 75.2949C59.0148 76.1242 58.8398 77.0187 58.8548 77.9201C58.8128 78.8938 58.9865 79.8647 59.3637 80.7634C59.7408 81.662 60.312 82.4661 61.0363 83.118C62.7408 84.4812 64.8886 85.1668 67.0675 85.0432C68.1524 85.0785 69.2359 84.9376 70.2757 84.6261C70.3894 84.5882 70.491 84.5207 70.57 84.4304C70.6489 84.3402 70.7024 84.2305 70.7248 84.1127C70.9192 83.3443 71.048 82.5607 71.1098 81.7704C71.1098 81.7704 71.1098 81.5138 70.9494 81.5138C70.789 81.5138 70.9494 81.5137 70.7248 81.8667C70.626 82.2984 70.4158 82.6966 70.1153 83.0218C69.4095 83.856 68.4791 84.0164 66.9071 84.0164C65.3609 83.8932 63.9243 83.1694 62.905 82C61.8857 80.8306 61.3646 79.3086 61.4534 77.7597C61.384 76.9225 61.4941 76.0802 61.7762 75.2889C62.0584 74.4977 62.5061 73.7758 63.0895 73.1715C63.9788 72.4088 65.1278 72.0181 66.2976 72.0805L66.3938 72.1126Z" fill="#241F0C"/>
<path fill-rule="evenodd" clip-rule="evenodd" d="M3.419 83.4388C3.419 83.9522 3.2586 84.3372 2.90571 84.4014H2.29616C2.0716 84.4014 2.00743 84.4014 2.00743 84.5618C2.00743 84.7223 2.00743 84.7223 2.36033 84.7223H7.30082C7.49331 84.7223 7.62163 84.7223 7.62163 84.5618C7.62163 84.4014 7.62163 84.4014 7.3329 84.4014H6.43463C5.92133 84.4014 5.82509 83.9522 5.76093 83.4388C5.69677 82.9255 5.76093 81.3212 5.76093 79.6848V72.658C5.76093 72.4655 5.76093 72.3372 5.76093 72.3051H6.43463C7.08647 72.3004 7.71626 72.5409 8.19909 72.9789C8.55291 73.3219 8.82797 73.7377 9.00523 74.1975C9.18248 74.6574 9.25771 75.1502 9.22569 75.642C9.27295 76.3304 9.0576 77.011 8.62302 77.5469C8.18845 78.0827 7.56695 78.4339 6.88377 78.5297C6.49879 78.5297 6.37047 78.5297 6.37047 78.7222C6.37047 78.9147 6.37047 78.8827 6.59504 78.8827H6.91585C7.48508 78.9047 8.05279 78.8099 8.58398 78.6041C9.11517 78.3983 9.59857 78.0859 10.0044 77.686C10.4102 77.2862 10.7298 76.8074 10.9435 76.2793C11.1571 75.7512 11.2604 75.1848 11.2468 74.6153C11.2305 73.8296 10.9082 73.0813 10.3485 72.5297C9.91144 72.1498 9.4016 71.8628 8.85007 71.6863C8.29853 71.5098 7.71684 71.4474 7.14042 71.503H4.60601H2.0716C1.78287 71.503 1.65454 71.503 1.65454 71.6634C1.65454 71.8238 1.65454 71.8238 1.97535 71.8238H2.64906C3.2586 71.8238 3.38692 72.2409 3.419 72.8185C3.45109 73.396 3.419 73.8773 3.419 76.5725V79.7811C3.419 81.4174 3.419 82.7971 3.419 83.5351V83.4388Z" fill="#241F0C"/>
<path fill-rule="evenodd" clip-rule="evenodd" d="M83.9104 73.5245V73.717C83.9104 73.9736 83.9104 74.0699 84.1029 74.0699C84.2954 74.0699 84.1029 74.0699 84.1029 73.7811C84.1029 73.4924 84.1029 72.1127 84.1029 71.7276C84.1029 71.3426 84.1029 71.3747 84.1029 71.3747H83.6217C83.2167 71.4208 82.8077 71.4208 82.4026 71.3747H75.6656C75.0779 71.4084 74.4888 71.4084 73.9011 71.3747C73.6398 71.331 73.3823 71.2666 73.1312 71.1822C73.1312 71.1822 72.9708 71.1822 72.9387 71.503C72.9066 71.8239 72.5537 73.2678 72.5537 73.5245C72.5537 73.7811 72.5537 73.8132 72.7141 73.8132C72.8745 73.8132 72.7141 73.8132 72.9066 73.6207C72.9868 73.3944 73.0945 73.1789 73.2274 72.979C73.4841 72.594 73.9011 72.5298 74.9277 72.4656H77.5263V79.5886C77.5263 81.225 77.5263 82.6047 77.5263 83.3427C77.5263 84.0806 77.5263 84.2411 77.013 84.3052H76.3714C76.1789 84.3052 76.0826 84.3052 76.0826 84.4657C76.0826 84.6261 76.0826 84.6261 76.4355 84.6261H78.6491H81.4402C81.6327 84.6261 81.761 84.6261 81.761 84.4657C81.761 84.3052 81.761 84.3052 81.4723 84.3052H80.574C80.0607 84.3052 79.9324 83.856 79.9003 83.3427C79.8682 82.8293 79.9003 81.225 79.9003 79.5886V72.4656H82.1139C83.6859 72.4656 84.1671 72.979 84.1992 73.4603L83.9104 73.5245Z" fill="#241F0C"/>
</g>
<defs>
<clipPath id="clip0_110_1551">
<rect width="86" height="120" fill="white" transform="translate(0.5)"/>
</clipPath>
</defs>
</svg>
