<svg width="64" height="64" viewBox="0 0 64 64" fill="none" xmlns="http://www.w3.org/2000/svg">
<rect width="64" height="64" rx="32" fill="#F30745"/>
<path d="M52.7355 27.2122C51.7897 27.2122 50.9728 27.5965 50.2205 28.7287L47.2113 33.235L47.4905 29.7323C47.5766 28.4082 46.7597 27.2122 45.2548 27.2122C43.8789 27.2122 43.0192 28.1307 42.9331 29.3054L42.4601 35.7556C42.3526 37.3578 43.1909 38.2758 44.5454 38.2758C45.9 38.2758 46.7164 37.3147 47.3183 36.4387L50.2201 32.0604L49.9622 35.7552C49.8546 37.2504 50.6502 38.2752 52.1331 38.2752C53.5091 38.2752 54.4116 37.4636 54.4978 36.2464L54.9921 29.7323C55.0783 28.4507 54.4546 27.2122 52.735 27.2122H52.7355ZM41.2779 35.179C41.2779 33.6837 40.1384 32.744 38.6554 32.5307C40.0526 32.2532 41.2565 31.356 41.2565 29.8825C41.2565 28.2379 39.988 27.2982 37.6234 27.2982H32.8728C30.6804 27.2982 29.8634 28.1736 29.6912 30.5874L29.412 34.624C29.2183 37.3151 29.9924 38.1694 32.6796 38.1694H37.2366C39.8591 38.1694 41.2779 37.1015 41.2779 35.1793V35.179ZM36.7851 34.8585C36.7851 35.8195 36.0543 36.2468 34.8291 36.2468H33.5607C33.5607 36.2468 33.7758 34.9227 33.9047 33.6199H35.0656C36.0761 33.6199 36.7851 34.0256 36.7851 34.8589V34.8585ZM36.8279 30.4588C36.8279 31.2705 36.1832 31.7403 35.0223 31.7403H34.055C34.055 31.7403 34.1412 30.2881 34.0978 29.2415H35.1513C36.2046 29.2415 36.8279 29.6901 36.8279 30.4588Z" fill="white"/>
<path d="M26.1003 27.2124C25.133 27.2124 24.3589 27.5967 23.5853 28.7289L20.576 33.2353L20.8554 29.7325C20.9414 28.4084 20.1031 27.2124 18.6196 27.2124C17.2437 27.2124 16.384 28.1309 16.2978 29.3056L15.8249 35.7559C15.7174 37.3579 16.5557 38.276 17.8884 38.276C19.221 38.276 20.0594 37.315 20.6831 36.439L23.5849 32.0606L23.3271 35.7555C23.1981 37.2506 24.015 38.2755 25.498 38.2755C26.8739 38.2755 27.7765 37.4638 27.8625 36.2466L28.3355 29.7325C28.443 28.4509 27.8197 27.2124 26.0999 27.2124H26.1003Z" fill="url(#paint0_linear_110_1910)"/>
<path d="M20.8536 29.7325L20.5743 33.2353L20.6814 36.439C20.0577 37.315 19.2193 38.2759 17.8867 38.2759C16.554 38.2759 15.7157 37.3579 15.8232 35.7559L16.2961 29.3056C16.3823 28.1309 17.242 27.2124 18.6179 27.2124C20.1014 27.2124 20.9397 28.4084 20.8536 29.7325Z" fill="url(#paint1_linear_110_1910)"/>
<path d="M20.8601 29.5504C20.8601 28.3287 20.065 27.212 18.6029 27.212C17.1409 27.212 16.2927 28.3012 16.2927 29.4759C16.2927 30.7361 17.2444 31.7185 18.577 31.7185C19.9097 31.7185 20.8601 30.8102 20.8601 29.5504Z" fill="white"/>
<path d="M32.7395 39.3565H31.6629L31.3614 40.1052C30.457 42.3519 28.6483 43.4428 25.4181 43.4428C24.1694 43.4428 22.5757 43.4641 20.767 43.293C15.7714 42.8222 13.5322 42.1165 12.283 40.576C11.0123 38.9713 10.754 36.3187 11.3139 31.6544C11.5937 29.2367 12.0675 24.8726 14.0703 23.3104C15.1682 22.4544 16.6544 22.0054 19.0658 22.0054C20.2285 22.0054 21.8221 22.0909 23.3293 22.2408C26.5375 22.5617 30.672 23.0325 32.2006 25.557C32.3728 25.8567 32.4589 26.1133 32.4589 26.1133H33.5569C33.4707 25.8992 33.4061 25.6855 33.2772 25.4502C32.459 23.8455 31.0807 22.9256 29.186 22.2838C27.8292 21.813 26.1498 21.492 23.7166 21.2567C22.3598 21.1281 20.5082 21 19.0868 21C16.8257 21 14.7801 21.3635 13.3805 22.5617C11.5285 24.1877 10.8182 27.0331 10.2797 31.5046C10.0861 33.0663 10.0214 34.4786 10 35.6764C10 37.9655 10.3658 39.7626 11.4429 41.1107C12.3472 42.2446 13.6393 42.9078 15.1897 43.3997C18.0102 44.2557 22.1234 44.4695 25.0086 44.4695C27.1835 44.4695 28.8201 44.1485 29.9394 43.4423C30.9514 42.8004 31.7268 41.902 32.2866 40.6611C32.545 40.1261 32.6743 39.5272 32.7391 39.3561L32.7395 39.3565Z" fill="white"/>
<defs>
<linearGradient id="paint0_linear_110_1910" x1="21.587" y1="32.6894" x2="16.938" y2="32.0956" gradientUnits="userSpaceOnUse">
<stop offset="0.15" stop-color="white"/>
<stop offset="0.62" stop-color="white" stop-opacity="0.6"/>
<stop offset="1" stop-color="white" stop-opacity="0"/>
</linearGradient>
<linearGradient id="paint1_linear_110_1910" x1="17.3011" y1="38.1922" x2="18.547" y2="31.3533" gradientUnits="userSpaceOnUse">
<stop offset="0.15" stop-color="white"/>
<stop offset="0.62" stop-color="white" stop-opacity="0.6"/>
<stop offset="1" stop-color="white" stop-opacity="0"/>
</linearGradient>
</defs>
</svg>
