<svg width="64" height="64" viewBox="0 0 64 64" fill="none" xmlns="http://www.w3.org/2000/svg">
<rect width="64" height="64" rx="32" fill="#FACD55"/>
<path fill-rule="evenodd" clip-rule="evenodd" d="M27.3422 25V28.5097H30.8436V40.2088H34.3459V28.5097H37.8472V25H27.3422ZM22.2793 34.3598C21.9471 35.0604 21.424 35.652 20.7705 36.0661C20.1171 36.4801 19.3601 36.6997 18.5874 36.6992C16.3307 36.6992 14.5018 34.8658 14.5018 32.6044C14.5018 30.343 16.3307 28.5097 18.5874 28.5097C19.3601 28.5092 20.1172 28.7288 20.7706 29.143C21.4241 29.5572 21.9472 30.1489 22.2793 30.8496H25.9711C25.1806 27.496 22.1748 25 18.5874 25C14.3963 25 11 28.4048 11 32.6044C11 36.8041 14.3963 40.2088 18.5874 40.2088C22.1748 40.2088 25.1806 37.7129 25.9711 34.3593L22.2793 34.3598ZM50.2945 34.3598C49.9623 35.0604 49.4392 35.652 48.7857 36.0661C48.1323 36.4801 47.3753 36.6997 46.6026 36.6992C44.3459 36.6992 42.517 34.8658 42.517 32.6044C42.517 30.343 44.3459 28.5097 46.6026 28.5097C47.3753 28.5092 48.1324 28.7288 48.7858 29.143C49.4393 29.5572 49.9624 30.1489 50.2945 30.8496H53.9863C53.1958 27.496 50.19 25 46.6026 25C42.4121 25 39.0152 28.4048 39.0152 32.6044C39.0152 36.8041 42.4115 40.2088 46.6026 40.2088C50.19 40.2088 53.1958 37.7129 53.9863 34.3593L50.2945 34.3598Z" fill="white"/>
</svg>
