<svg width="64" height="64" viewBox="0 0 64 64" fill="none" xmlns="http://www.w3.org/2000/svg">
<rect width="64" height="64" rx="32" fill="black"/>
<path d="M46.1085 9L44.8718 9.60118C44.8718 9.60118 44.8235 10.3788 44.7815 11.1159C44.4135 16.2778 44.361 18.4764 44.3736 20.0738C44.3905 24.1843 44.8447 28.938 44.8447 28.938L44.91 29.7454L46.1085 29.2014C46.1085 29.2014 46.1253 9.81996 46.1085 9ZM43.3161 10.3575L42.1427 10.8566C42.1427 10.8566 42.094 11.4622 42.0499 12.1971C41.6293 17.3803 41.5917 20.025 41.5833 21.119C41.5518 24.9617 42.0881 30.2677 42.0881 30.2677L42.1698 31.0282L43.5555 30.3909L43.627 29.1571C43.8373 26.6207 43.8374 26.6313 43.9194 20.6601C43.972 17.0659 43.4084 11.5574 43.3957 11.379C43.3705 11.0115 43.3161 10.3575 43.3161 10.3575ZM40.5192 11.6806L39.331 12.2312C39.331 12.2312 39.2848 12.828 39.2406 13.5609C38.8201 18.7462 38.7821 21.3906 38.7716 22.4931C38.7422 26.3316 39.2784 31.6422 39.2784 31.6422L39.3564 32.3646L40.7463 31.7273L40.8157 30.5312C40.8157 30.5312 41.026 27.9994 41.1102 22.0218C41.1627 18.4275 40.5971 12.919 40.5845 12.7427C40.5592 12.3752 40.5192 11.6806 40.5192 11.6806ZM37.758 12.9871L36.5345 13.5119C36.5278 13.9331 36.4984 14.3536 36.4462 14.7715C36.1441 17.7811 35.9952 20.8044 36.0001 23.8294C35.9539 27.6233 36.5279 32.9637 36.5279 32.9637L36.5973 33.686L37.859 33.0699L37.9559 31.9078C37.9559 31.9078 38.2669 29.1464 38.3362 23.1221C38.3699 20.0185 37.8632 14.5742 37.8422 14.0028C37.8253 13.6565 37.758 12.9871 37.758 12.9871ZM34.8354 14.3488L33.9269 14.7205L33.8029 15.9739C33.2898 20.9319 33.2414 23.8125 33.2266 24.9596C33.1825 28.7535 33.8575 34.1445 33.8575 34.1445L33.929 34.9435L35.0748 34.393L35.1422 33.1993C35.1422 33.1993 35.4154 30.3869 35.4974 24.3646C35.5437 21.1783 34.9634 15.8315 34.9003 15.1263C34.8708 14.7779 34.8354 14.3488 34.8354 14.3488ZM31.9588 15.6594L31.3551 15.9229C31.3551 15.9229 31.3571 16.042 31.3571 16.5348C31.0249 19.1307 30.4341 22.2575 30.369 26.0939C30.2954 30.2935 31.1657 35.3705 31.1657 35.3705L31.2499 36.1712L31.9374 35.8376L32.0492 34.5739C32.5664 29.9005 32.6797 29.3799 32.7281 25.5201C32.7743 22.2976 32.2237 18.8353 31.9777 16.3606C31.9561 16.1275 31.9498 15.8933 31.9588 15.6594ZM29.1976 16.968L28.5877 17.2484C28.5877 17.2484 28.6698 20.6387 28.4805 22.0832C27.8665 25.5181 27.6395 26.7162 27.7215 28.3476C27.7999 29.8065 27.9839 31.2577 28.2723 32.6894C28.4069 33.6071 28.4509 34.1764 28.4509 34.1764L28.4764 37.4881L29.0674 37.1931C29.0674 37.1931 29.067 34.4314 29.0838 34.2785C29.1007 34.1255 29.1007 33.9662 29.1344 33.569C29.2374 32.3539 29.6201 29.8793 29.7652 27.8634C29.9376 25.2676 29.3826 22.8074 29.2711 21.5923C29.2122 20.9402 29.1703 20.0672 29.1976 16.968ZM26.4598 18.2786L25.8816 18.5271C25.9005 22.4655 25.9005 23.5934 25.8963 24.0883C25.3328 27.041 25.2253 27.1963 25.1349 28.6451C25.0655 29.7837 25.2527 30.5991 25.4462 31.5784C25.6165 32.428 25.8204 33.3437 25.8204 33.3437L25.8015 38.7502L26.4323 38.4419L26.4492 33.0761C26.4492 33.0761 26.9771 30.1874 27.057 28.5347C27.1516 26.5485 26.4598 24.4242 26.4598 23.9357V18.2786ZM23.7492 19.5639L23.1898 19.8017V28.5472C23.1898 28.7596 22.786 29.3142 22.685 29.6562C22.5841 29.9982 22.4347 30.4635 23.0382 30.8905C23.2317 31.0285 23.173 31.4703 23.1898 31.7613C23.2066 32.0523 23.1898 39.9567 23.1898 39.9567L23.764 39.7102V30.9411C23.764 30.6777 24.6049 29.926 24.3147 29.123C24.218 28.8575 23.8585 28.541 23.8543 28.4858C23.8059 28.0737 23.7492 19.5639 23.7492 19.5639ZM21.11 20.7937L20.5888 21.019V41.159L21.1145 40.9379L21.11 20.7937ZM18.6728 21.9409L18.143 22.1641L18.1471 42.3058L18.6749 42.0788L18.6728 21.9409ZM28.0033 44.3748C26.4514 44.3748 24.5842 45.1417 24.6178 46.9069C24.6515 48.6721 26.4724 49.3585 28.0033 49.3585C29.5341 49.3585 31.2036 48.6721 31.2351 46.9069C31.2667 45.1417 29.5846 44.3748 28.0033 44.3748ZM20.5452 44.4097C19.9709 44.4098 19.359 44.4987 18.8244 44.7424C17.6741 45.265 17.998 46.293 18.2083 46.5542C18.4586 46.8941 18.898 47.0598 19.47 47.1915C20.2733 47.3763 21.354 47.4425 22.0332 47.5338C22.6662 47.6167 22.6156 48.2391 22.2645 48.4345C21.6736 48.7595 20.1913 48.7402 19.3817 48.2856C18.6752 47.8926 18.7509 47.5187 18.7509 47.4189H18.12V49.1183H18.8203V48.9718C18.8035 48.7275 19.1419 48.9145 19.3521 48.9888C20.5087 49.3924 22.1383 49.4646 23.0699 48.8486C24.1065 48.1625 23.7703 46.8753 22.5865 46.4887C21.6886 46.1934 20.2376 46.2422 19.5037 46.0149C18.9338 45.8386 19.1041 45.0014 20.7863 45.0673C22.4349 45.131 22.8366 45.9001 22.8366 46.1784H23.4042V44.6279H22.7947C22.8578 44.9211 22.6936 44.9572 22.5737 44.8403C22.3556 44.6558 21.5025 44.4095 20.5452 44.4097ZM31.8996 44.613V45.21H32.459C32.7681 45.2206 32.7683 45.3714 32.7683 45.5498V48.2794C32.7599 48.4132 32.7262 48.5387 32.4907 48.5557H31.9103V49.1079H34.5282V48.532H33.9331C33.8006 48.5384 33.6493 48.5556 33.6493 48.2582L33.6513 46.0107L37.1399 49.1079H37.9683V45.473C37.9683 45.3392 38.0356 45.193 38.1785 45.193H38.7864V44.613H36.2527V45.1864H36.8117C36.9421 45.2034 37.098 45.2033 37.098 45.5241V47.4085L34.1097 44.613H31.8996ZM39.3626 44.6171V45.2054H39.8546C40.0518 45.1973 40.2406 45.2861 40.3614 45.4436C40.3783 45.4691 42.1238 47.4064 42.1238 47.4064V48.4237C42.1238 48.4917 42.1111 48.5299 41.987 48.5299H41.2638V49.1058H44.2476V48.5299H43.5958C43.4696 48.5299 43.4693 48.5321 43.4693 48.4237V47.4147C43.4693 47.4147 45.0442 45.5325 45.1704 45.4029C45.2549 45.2913 45.3812 45.2199 45.5195 45.2054H46.0957V44.6171H43.6294V45.2054H44.0036C44.1277 45.2054 44.1467 45.3799 44.0878 45.4606L43.0614 46.682C43.0614 46.682 42.1637 45.5942 42.0375 45.4689C41.9114 45.3436 42.0039 45.2054 42.0712 45.2054H42.3801V44.6171H39.3626ZM27.9737 45.044C29.0419 45.044 29.8515 45.707 29.8515 46.8754C29.8472 48.0352 29.0083 48.6745 27.9737 48.7042C26.9391 48.7339 26.1001 48.0437 26.098 46.8754C26.0959 45.707 26.9055 45.044 27.9737 45.044ZM25.463 50.5928C24.6514 50.5779 23.6629 51.0239 23.6798 52.1561C23.6966 53.2883 24.729 53.6431 25.5575 53.6431C26.4344 53.6431 26.9181 53.0759 26.9749 52.6511L26.6574 52.6594C26.5396 53.1841 25.9571 53.2966 25.5891 53.2966C24.9674 53.2896 24.4673 52.778 24.4683 52.1499C24.4683 51.536 24.79 51.0386 25.4335 50.96C26.0433 50.8814 26.6153 51.1981 26.6426 51.6952H26.935V50.7476H26.6175C26.6512 50.9557 26.5609 50.9517 26.4915 50.8795C26.1834 50.6853 25.8261 50.5857 25.463 50.5928ZM44.2944 50.6604C44.2692 50.6605 44.244 50.6611 44.2188 50.6621C43.9273 50.6734 43.641 50.7437 43.3769 50.8687C42.9545 51.0525 42.7995 51.5774 43.0532 51.9649C43.2195 52.1734 43.4576 52.3107 43.7198 52.3495C44.1638 52.4432 44.6121 52.5141 45.0632 52.5619C45.4754 52.6256 45.3955 52.9954 45.1852 53.1228C44.7436 53.4032 44.2159 53.3646 43.6734 53.0141C43.3096 52.7783 43.3452 52.5513 43.3452 52.4918H43.0175V53.522H43.3855V53.4328C43.3771 53.2756 43.5537 53.3903 43.6652 53.4328C44.2708 53.6792 45.1245 53.7236 45.6123 53.3498C46.157 52.9334 45.9906 52.1583 45.3597 51.9226C44.8866 51.7462 44.1171 51.8079 43.7428 51.6359C43.4084 51.4829 43.5409 50.9964 44.4114 51.0198C45.282 51.0431 45.4924 51.5676 45.4924 51.7354H45.7889V50.7754H45.4694C45.5009 50.9729 45.4334 50.9727 45.3409 50.926C45.0196 50.7503 44.6597 50.659 44.2944 50.6604ZM21.8061 50.7351V51.094H22.1154C22.2352 51.094 22.2665 51.1621 22.2665 51.2662V52.9909C22.2665 53.0971 22.2352 53.144 22.1154 53.144H21.8061V53.5028H23.4107V53.146H23.0974C22.9754 53.146 22.9499 53.0971 22.9499 52.9909L22.9606 51.2662C22.9606 51.1621 22.9857 51.0919 23.1076 51.0919H23.421V50.7351H21.8061ZM31.0585 50.7372V51.0961H31.3698C31.4897 51.0961 31.5189 51.1642 31.5189 51.2683V52.6233C31.5189 53.4751 32.2067 53.6282 32.8607 53.6282C33.5273 53.6282 34.1645 53.469 34.1561 52.6661V51.3915C34.154 51.1812 34.2212 51.1023 34.299 51.1023H34.6103V50.7455H33.2414V51.1048H33.5503C33.6722 51.1048 33.7018 51.1725 33.7018 51.2766V52.6723C33.7018 52.9718 33.6282 53.3095 32.8607 53.3095C32.1752 53.3095 32.211 52.7657 32.211 52.6723V51.2683C32.211 51.1621 32.2406 51.094 32.3625 51.094H32.6734V50.7372H31.0585ZM27.4209 50.7435V51.7927L27.7552 51.7973C27.7552 51.0772 27.7909 51.1237 28.0727 51.0982H28.7035V53.01C28.7035 53.1162 28.6718 53.1843 28.552 53.1843H28.2407V53.522H29.858V53.1801H29.5467C29.4268 53.1801 29.3993 53.1121 29.3993 53.0059V51.094H30.0301C30.2824 51.1238 30.348 51.0514 30.348 51.7927H30.6737V50.7435L27.4209 50.7435ZM18.0695 50.7456V51.1111H18.364C18.4838 51.1111 18.5151 51.1664 18.5151 51.2683V52.993C18.5151 53.0971 18.488 53.1461 18.366 53.1461H18.0547V53.505H19.6782V53.1461H19.3608C19.2409 53.1461 19.2113 53.0992 19.2113 52.9951V52.3155H20.1892C21.0765 52.3155 21.434 52.0838 21.434 51.5081C21.434 50.9325 21.1775 50.7456 20.3826 50.7456H18.0695ZM34.9886 50.7522V51.0941H35.2831C35.4029 51.0941 35.4325 51.1705 35.4325 51.2745V52.9972C35.4325 53.1034 35.407 53.1523 35.2872 53.1523H34.9742V53.522H36.5912V53.159H36.2798C36.16 53.159 36.1308 53.112 36.1308 53.008V52.3284H36.9275C37.2387 52.3284 37.4048 52.4109 37.4048 52.6234V52.9271C37.4048 53.4772 37.752 53.5921 38.1136 53.5921C38.5426 53.5921 38.6603 53.4498 38.6603 52.9549V52.7424H38.3699V52.9125C38.3762 53.0634 38.385 53.2225 38.2504 53.2225C38.1158 53.2225 38.103 53.1056 38.103 53.0291V52.63C38.0882 52.2944 37.897 52.237 37.6237 52.1691C37.9391 52.1096 38.305 51.9691 38.3071 51.5272C38.3071 51.0068 38.0484 50.7522 37.2557 50.7522H34.9886ZM39.0176 50.7522V51.1111H39.3289C39.4488 51.1111 39.4784 51.1812 39.4784 51.2853V53.008C39.4784 53.112 39.4488 53.1631 39.3289 53.1631H39.0176V53.522H42.2749V52.4557H41.9595C41.9595 52.9932 41.9111 53.1268 41.6293 53.1544H40.1762V52.2836H40.8514C40.9418 52.2836 40.9984 52.3176 40.9984 52.4599V52.7574H41.2995V51.4596H40.9984V51.7442C40.9984 51.8908 40.9418 51.9226 40.8514 51.9226H40.1762V51.0899H41.6293C41.9111 51.1175 41.9595 51.2662 41.9595 51.7994H42.2749V50.7522H39.0176ZM19.2113 51.0961H20.1407C20.4498 51.0961 20.6602 51.1939 20.6602 51.521C20.6602 51.8481 20.4497 51.9458 20.0943 51.9458H19.2113V51.0961ZM37.0914 51.104C37.098 51.104 37.1045 51.1042 37.1111 51.1045C37.3416 51.1124 37.5269 51.2989 37.5354 51.5318C37.5354 51.7973 37.3523 51.9566 37.0138 51.9566H36.1308V51.1069H37.0474C37.062 51.1052 37.0767 51.1043 37.0914 51.104Z" fill="white"/>
</svg>
