<svg width="64" height="64" viewBox="0 0 64 64" fill="none" xmlns="http://www.w3.org/2000/svg">
<g clip-path="url(#clip0_110_1859)">
<g filter="url(#filter0_b_110_1859)">
<path d="M32 64C49.6731 64 64 49.6731 64 32C64 14.3269 49.6731 0 32 0C14.3269 0 0 14.3269 0 32C0 49.6731 14.3269 64 32 64Z" fill="#D81717"/>
</g>
<path d="M49.7647 13.125H45.3236C45.1778 13.1249 45.0334 13.1536 44.8986 13.2093C44.7639 13.2651 44.6414 13.3469 44.5383 13.45C44.4352 13.5531 44.3534 13.6755 44.2977 13.8103C44.2419 13.945 44.2133 14.0894 44.2133 14.2353C44.2133 14.3811 44.2419 14.5255 44.2977 14.6602C44.3534 14.795 44.4352 14.9174 44.5383 15.0205C44.6414 15.1236 44.7639 15.2054 44.8986 15.2612C45.0334 15.3169 45.1778 15.3456 45.3236 15.3455H47.0845L31.859 30.5709L25.954 26.635C25.5148 26.3401 24.9272 26.3986 24.5531 26.7738L13.4501 37.8766C13.3469 37.9797 13.2651 38.1021 13.2093 38.2368C13.1535 38.3715 13.1248 38.5158 13.1248 38.6616C13.1248 38.8074 13.1535 38.9518 13.2093 39.0865C13.2651 39.2212 13.3469 39.3436 13.4501 39.4466C13.5531 39.5498 13.6755 39.6316 13.8102 39.6874C13.9449 39.7432 14.0893 39.7719 14.2351 39.7719C14.3809 39.7719 14.5253 39.7432 14.66 39.6874C14.7946 39.6316 14.917 39.5498 15.0201 39.4466L25.479 28.9877L31.384 32.9236C31.8231 33.2185 32.4097 33.1579 32.7848 32.7849L48.6542 16.9155V18.6764C48.6541 18.8222 48.6828 18.9666 48.7386 19.1013C48.7943 19.2361 48.8761 19.3585 48.9792 19.4616C49.0823 19.5647 49.2047 19.6465 49.3395 19.7023C49.4742 19.758 49.6186 19.7867 49.7645 19.7866C49.9103 19.7867 50.0547 19.758 50.1894 19.7023C50.3242 19.6465 50.4466 19.5647 50.5497 19.4616C50.6528 19.3585 50.7346 19.2361 50.7904 19.1013C50.8461 18.9666 50.8748 18.8222 50.8747 18.6764V14.2353C50.875 13.6279 50.377 13.125 49.7647 13.125ZM49.7647 48.6544H48.6545V22.736C48.6546 22.5164 48.5896 22.3017 48.4676 22.1191C48.3456 21.9365 48.1721 21.7942 47.9692 21.7103C47.555 21.5356 47.078 21.6333 46.7592 21.951L42.3181 26.3921C42.215 26.4952 42.1331 26.6176 42.0773 26.7523C42.0215 26.887 41.9928 27.0313 41.9928 27.1771V48.6544H39.7722V31.6194C39.7724 31.3998 39.7073 31.1851 39.5853 31.0025C39.4633 30.8199 39.2899 30.6776 39.087 30.5936C38.8841 30.5092 38.6608 30.487 38.4453 30.5299C38.2299 30.5727 38.032 30.6787 37.877 30.8344L33.4358 35.2755C33.3327 35.3786 33.2509 35.5009 33.1951 35.6356C33.1393 35.7703 33.1106 35.9147 33.1106 36.0605V48.6544H30.89V35.8579C30.8899 35.6751 30.8448 35.4952 30.7586 35.334C30.6723 35.1729 30.5476 35.0355 30.3956 34.9341L26.5203 32.3503C26.3069 32.2076 26.0505 32.1435 25.7951 32.1688C25.5396 32.1941 25.3008 32.3073 25.1195 32.489L24.5535 33.055C24.4503 33.1581 24.3685 33.2804 24.3127 33.4151C24.2569 33.5498 24.2282 33.6942 24.2282 33.84V48.6544H22.0076V38.28C22.0077 38.0604 21.9427 37.8457 21.8207 37.6631C21.6987 37.4805 21.5253 37.3382 21.3223 37.2542C21.1196 37.1695 20.8961 37.1471 20.6806 37.19C20.4651 37.2329 20.2672 37.3391 20.1123 37.495L15.6712 41.9361C15.5681 42.0392 15.4863 42.1616 15.4305 42.2963C15.3747 42.431 15.3459 42.5753 15.346 42.7211V48.6543H14.2357C14.0899 48.6542 13.9455 48.6828 13.8107 48.7386C13.676 48.7944 13.5536 48.8761 13.4505 48.9793C13.3473 49.0824 13.2656 49.2048 13.2098 49.3395C13.154 49.4743 13.1254 49.6187 13.1255 49.7645C13.1254 49.9103 13.154 50.0547 13.2098 50.1895C13.2656 50.3242 13.3473 50.4466 13.4505 50.5497C13.5536 50.6529 13.676 50.7346 13.8107 50.7904C13.9455 50.8462 14.0899 50.8748 14.2357 50.8747H49.7651C49.9109 50.8748 50.0553 50.8462 50.1901 50.7904C50.3248 50.7346 50.4472 50.6529 50.5503 50.5497C50.6534 50.4466 50.7352 50.3242 50.791 50.1895C50.8468 50.0547 50.8754 49.9103 50.8753 49.7645C50.8753 49.6187 50.8466 49.4743 50.7907 49.3396C50.7349 49.2049 50.6531 49.0825 50.55 48.9794C50.4468 48.8763 50.3244 48.7945 50.1897 48.7388C50.0549 48.683 49.9105 48.6543 49.7647 48.6544ZM28.6821 19.7542L28.294 22.0876C28.2599 22.291 28.2833 22.4998 28.3614 22.6905C28.4396 22.8813 28.5694 23.0465 28.7363 23.1675C29.0736 23.4157 29.5246 23.4473 29.9008 23.2554L32 22.1656L34.0991 23.2554C34.2822 23.3503 34.4881 23.3924 34.6938 23.3769C34.8995 23.3614 35.0968 23.2889 35.2636 23.1675C35.4305 23.0465 35.5603 22.8813 35.6385 22.6905C35.7166 22.4998 35.74 22.291 35.706 22.0876L35.3178 19.7542L37.0038 18.0954C37.1506 17.9505 37.2541 17.7676 37.3029 17.5672C37.3516 17.3668 37.3436 17.1568 37.2798 16.9607C37.216 16.7646 37.0989 16.5901 36.9416 16.4567C36.7843 16.3233 36.593 16.2363 36.3891 16.2055L34.0503 15.8543L32.9932 13.7389C32.6158 12.9864 31.3842 12.9864 31.0068 13.7389L29.9497 15.8543L27.611 16.2055C27.407 16.2363 27.2157 16.3233 27.0584 16.4567C26.9011 16.5901 26.784 16.7646 26.7202 16.9607C26.6564 17.1568 26.6484 17.3668 26.6972 17.5672C26.7459 17.7676 26.8495 17.9505 26.9962 18.0954L28.6821 19.7542Z" fill="white"/>
</g>
<defs>
<filter id="filter0_b_110_1859" x="-34" y="-34" width="132" height="132" filterUnits="userSpaceOnUse" color-interpolation-filters="sRGB">
<feFlood flood-opacity="0" result="BackgroundImageFix"/>
<feGaussianBlur in="BackgroundImageFix" stdDeviation="17"/>
<feComposite in2="SourceAlpha" operator="in" result="effect1_backgroundBlur_110_1859"/>
<feBlend mode="normal" in="SourceGraphic" in2="effect1_backgroundBlur_110_1859" result="shape"/>
</filter>
<clipPath id="clip0_110_1859">
<rect width="64" height="64" fill="white"/>
</clipPath>
</defs>
</svg>
