<svg width="64" height="64" viewBox="0 0 64 64" fill="none" xmlns="http://www.w3.org/2000/svg">
<rect width="64" height="64" rx="32" fill="url(#paint0_radial_110_1916)"/>
<path d="M15.3128 27.8172C11.8337 27.8172 9 30.6842 9 34.2598C9 37.8194 11.8337 40.6863 15.3128 40.6863C18.8077 40.6863 21.6414 37.8194 21.6414 34.2598C21.6414 30.6842 18.8077 27.8172 15.3128 27.8172ZM15.3128 37.9965C13.3765 37.9965 11.7865 36.2409 11.7865 34.2598C11.7865 32.2626 13.3765 30.507 15.3128 30.507C17.2649 30.507 18.8549 32.2626 18.8549 34.2598C18.8549 36.2409 17.2649 37.9965 15.3128 37.9965Z" fill="white"/>
<path d="M11.6919 26.8509C12.4475 26.8509 13.0772 26.2066 13.0772 25.4174C13.0772 24.6443 12.4475 24 11.6919 24C10.9205 24 10.2908 24.6443 10.2908 25.4174C10.2908 26.2066 10.9205 26.8509 11.6919 26.8509Z" fill="white"/>
<path d="M18.9338 26.8509C19.6895 26.8509 20.3192 26.2066 20.3192 25.4174C20.3192 24.6443 19.6895 24 18.9338 24C18.1624 24 17.5327 24.6443 17.5327 25.4174C17.5327 26.2066 18.1624 26.8509 18.9338 26.8509Z" fill="white"/>
<path d="M15.3127 26.8509C16.0684 26.8509 16.6981 26.2066 16.6981 25.4174C16.6981 24.6443 16.0684 24 15.3127 24C14.5413 24 13.9116 24.6443 13.9116 25.4174C13.9116 26.2066 14.5413 26.8509 15.3127 26.8509Z" fill="white"/>
<path d="M43.2092 28.0427H40.1393L36.5028 33.2129V24.2093H33.7163V40.4608H36.5028V35.2906L40.4227 40.4608H43.7129L38.8799 34.1793L43.2092 28.0427Z" fill="white"/>
<path d="M32.4096 28.0427H29.3398L25.7032 33.2129V24.2093H22.9167V40.4608H25.7032V35.2906L29.6231 40.4608H32.9134L28.0804 34.1793L32.4096 28.0427Z" fill="white"/>
<path d="M48.6717 27.8172C45.1926 27.8172 42.3589 30.6842 42.3589 34.2598C42.3589 37.8194 45.1926 40.6863 48.6717 40.6863C52.1666 40.6863 55.0003 37.8194 55.0003 34.2598C55.0003 30.6842 52.1666 27.8172 48.6717 27.8172ZM48.656 37.9965C46.7196 37.9965 45.1296 36.2409 45.1296 34.2598C45.1296 32.2626 46.7196 30.507 48.656 30.507C50.6081 30.507 52.1981 32.2626 52.1981 34.2598C52.1981 36.2409 50.6081 37.9965 48.656 37.9965Z" fill="white"/>
<defs>
<radialGradient id="paint0_radial_110_1916" cx="0" cy="0" r="1" gradientUnits="userSpaceOnUse" gradientTransform="translate(32 32) rotate(90) scale(32)">
<stop stop-color="#2C0D70"/>
<stop offset="1" stop-color="#0B031C"/>
</radialGradient>
</defs>
</svg>
