<svg width="109" height="120" viewBox="0 0 109 120" fill="none" xmlns="http://www.w3.org/2000/svg">
<path d="M98.5683 65.4916C96.5024 65.4916 94.7183 66.331 93.0753 68.8037L86.5028 78.646L87.1127 70.9956C87.3008 68.1037 85.5167 65.4916 82.2298 65.4916C79.2248 65.4916 77.3471 67.4976 77.159 70.0633L76.126 84.151C75.8911 87.6503 77.722 89.6552 80.6805 89.6552C83.639 89.6552 85.422 87.5562 86.7366 85.643L93.0744 76.0805L92.511 84.1502C92.2761 87.4157 94.0138 89.6541 97.2525 89.6541C100.258 89.6541 102.229 87.8814 102.417 85.2229L103.497 70.9956C103.685 68.1967 102.323 65.4916 98.5671 65.4916H98.5683ZM73.5439 82.8916C73.5439 79.6258 71.0552 77.5735 67.8162 77.1077C70.8679 76.5016 73.4971 74.5421 73.4971 71.3238C73.4971 67.7319 70.7268 65.6794 65.5622 65.6794H55.1866C50.3983 65.6794 48.6139 67.5915 48.2378 72.8632L47.628 81.6795C47.2049 87.5571 48.8955 89.423 54.7646 89.423H64.7175C70.4451 89.423 73.5439 87.0905 73.5439 82.8925V82.8916ZM63.7313 82.1917C63.7313 84.2907 62.1353 85.2238 59.4594 85.2238H56.689C56.689 85.2238 57.1589 82.3319 57.4403 79.4864H59.976C62.1829 79.4864 63.7313 80.3725 63.7313 82.1925V82.1917ZM63.8248 72.5825C63.8248 74.3552 62.4167 75.3814 59.8813 75.3814H57.7687C57.7687 75.3814 57.9569 72.2097 57.8622 69.9239H60.163C62.4635 69.9239 63.8248 70.9037 63.8248 72.5825Z" fill="#F30745"/>
<path d="M40.3959 65.492C38.2833 65.492 36.5927 66.3314 34.9029 68.8041L28.3305 78.6465L28.9406 70.9961C29.1285 68.1041 27.2976 65.492 24.0576 65.492C21.0525 65.492 19.1748 67.4981 18.9867 70.0637L17.9538 84.1516C17.719 87.6505 19.5499 89.6558 22.4605 89.6558C25.3712 89.6558 27.2021 87.5568 28.5644 85.6436L34.902 76.0809L34.339 84.1507C34.0573 87.4163 35.8414 89.6546 39.0805 89.6546C42.0854 89.6546 44.0569 87.8819 44.2448 85.2235L45.2777 70.9961C45.5126 68.1971 44.1513 65.492 40.3951 65.492H40.3959Z" fill="url(#paint0_linear_110_1498)"/>
<path d="M28.9366 70.996L28.3266 78.6465L28.5605 85.6436C27.1982 87.5568 25.3673 89.6555 22.4566 89.6555C19.546 89.6555 17.7151 87.6505 17.9499 84.1516L18.9828 70.0637C19.1709 67.498 21.0486 65.492 24.0537 65.492C27.2937 65.492 29.1247 68.1041 28.9366 70.996Z" fill="url(#paint1_linear_110_1498)"/>
<path d="M28.951 70.5983C28.951 67.93 27.2144 65.4912 24.0212 65.4912C20.828 65.4912 18.9756 67.87 18.9756 70.4357C18.9756 73.1882 21.054 75.3337 23.9647 75.3337C26.8753 75.3337 28.951 73.3499 28.951 70.5983Z" fill="#F30745"/>
<path d="M54.8961 92.0156H52.5448L51.8862 93.651C49.911 98.5578 45.9606 100.94 38.9058 100.94C36.1785 100.94 32.6976 100.987 28.7472 100.613C17.8367 99.5849 12.946 98.0437 10.2176 94.6792C7.44242 91.1743 6.87823 85.3808 8.10113 75.1938C8.7121 69.9134 9.74694 60.3817 14.1212 56.9699C16.5192 55.1003 19.7651 54.1196 25.0318 54.1196C27.5712 54.1196 31.0517 54.3064 34.3435 54.6337C41.3505 55.3346 50.3806 56.3628 53.7191 61.8766C54.0952 62.531 54.2834 63.0916 54.2834 63.0916H56.6814C56.4932 62.624 56.3521 62.1573 56.0704 61.6432C54.2834 58.1384 51.2732 56.1295 47.135 54.7276C44.1716 53.6994 40.5038 52.9984 35.1894 52.4843C32.2261 52.2036 28.1822 51.9238 25.0776 51.9238C20.1392 51.9238 15.6715 52.7177 12.6147 55.3346C8.56983 58.8859 7.01856 65.1006 5.84242 74.8665C5.4195 78.2775 5.2782 81.362 5.23145 83.9781C5.23145 88.9775 6.03047 92.9025 8.38275 95.8469C10.3579 98.3235 13.1799 99.7719 16.566 100.846C22.7263 102.716 31.7098 103.183 38.0114 103.183C42.7615 103.183 46.3358 102.482 48.7806 100.939C50.9907 99.5373 52.6842 97.5751 53.907 94.8651C54.4712 93.6966 54.7538 92.3884 54.8952 92.0148L54.8961 92.0156Z" fill="#F30745"/>
<defs>
<linearGradient id="paint0_linear_110_1498" x1="30.5386" y1="77.4543" x2="20.3848" y2="76.1572" gradientUnits="userSpaceOnUse">
<stop offset="0.15" stop-color="#F30745"/>
<stop offset="0.62" stop-color="#F30745" stop-opacity="0.6"/>
<stop offset="1" stop-color="#F30745" stop-opacity="0"/>
</linearGradient>
<linearGradient id="paint1_linear_110_1498" x1="21.1778" y1="89.4728" x2="23.8989" y2="74.536" gradientUnits="userSpaceOnUse">
<stop offset="0.15" stop-color="#F30745"/>
<stop offset="0.62" stop-color="#F30745" stop-opacity="0.6"/>
<stop offset="1" stop-color="#F30745" stop-opacity="0"/>
</linearGradient>
</defs>
</svg>
