<svg width="224" height="120" viewBox="0 0 224 120" fill="none" xmlns="http://www.w3.org/2000/svg">
<g clip-path="url(#clip0_110_1604)">
<path fill-rule="evenodd" clip-rule="evenodd" d="M110.604 77.5971H111.157V71.4077H110.604V77.5971ZM51.7707 74.473C51.8035 73.9768 51.9818 73.5009 52.2837 73.1039C52.5856 72.7069 52.9979 72.4061 53.4698 72.2385C53.9418 72.071 54.4528 72.0439 54.9401 72.1608C55.4273 72.2776 55.8695 72.5332 56.2123 72.8961C56.555 73.259 56.7833 73.7134 56.869 74.2034C56.9548 74.6933 56.8943 75.1974 56.695 75.6537C56.4957 76.11 56.1663 76.4985 55.7473 76.7715C55.3282 77.0445 54.8379 77.1899 54.3366 77.19C53.9846 77.1908 53.6362 77.1198 53.313 76.9813C52.9899 76.8427 52.6989 76.6397 52.4582 76.3849C52.2176 76.13 52.0323 75.8288 51.9141 75.4999C51.7958 75.1709 51.747 74.8214 51.7707 74.473ZM49.1455 71.4077V77.5971H49.6893V74.6299H51.222C51.2268 75.4723 51.5605 76.2801 52.1529 76.8835C52.7454 77.487 53.5506 77.8393 54.3993 77.8663C55.248 77.8934 56.0743 77.5931 56.7046 77.0286C57.3349 76.464 57.7202 75.6792 57.7795 74.8388C57.8387 73.9985 57.5675 73.1681 57.0226 72.5219C56.4778 71.8758 55.7017 71.4642 54.8574 71.3737C54.0132 71.2832 53.1664 71.5207 52.495 72.0365C51.8235 72.5522 51.3796 73.306 51.2566 74.1395H49.6893V71.4077H49.1455ZM61.1346 71.8687H62.0047C62.8897 71.8687 63.3198 72.1482 63.3198 72.9722C63.3198 73.7079 62.8897 74.1198 62.0393 74.1198H61.1346V71.8687ZM62.1728 74.5956C63.3297 74.5956 63.7351 75.086 63.7351 75.8658C63.7351 76.6456 63.2407 77.141 62.2025 77.141H61.1395V74.5956H62.1728ZM62.2025 77.5971C63.2654 77.5971 64.2937 77.1606 64.2937 75.8658C64.3303 75.5077 64.2333 75.1487 64.021 74.8568C63.8087 74.5649 63.4959 74.3602 63.1418 74.2817V74.2523C63.3764 74.1182 63.5695 73.923 63.7002 73.6879C63.8309 73.4527 63.8943 73.1866 63.8834 72.9182C63.8834 72.1433 63.4434 71.4077 62.1876 71.4077H60.566V77.5971H62.2025ZM71.0224 71.4077H67.7347V77.5971H71.1411V77.1067H68.3033V74.6299H70.8988V74.1395H68.3033V71.8981H71.0274V71.4077H71.0224ZM76.1098 72.1139L78.4878 77.5971H79.0761L76.3866 71.4077H75.8922L73.1731 77.5971H73.7663L76.1444 72.1139H76.1098ZM81.3849 71.4077V77.5971H81.8793L85.9284 72.266V77.5971H86.497V71.4077H86.0026L81.9436 76.7045V71.4077H81.3849ZM91.7128 71.8981C92.7016 71.8981 93.1515 72.4327 93.1515 73.2027C93.1515 73.9727 92.7016 74.5073 91.7128 74.5073H90.8724V71.8981H91.7128ZM91.7425 74.9977C93.0576 74.9977 93.7201 74.2866 93.7201 73.2027C93.7201 72.1188 93.0378 71.4077 91.7128 71.4077H90.284V77.5971H90.8427V74.9928L91.7425 74.9977ZM97.2105 77.602V74.6299H101.215V77.5971H101.769V71.4077H101.215V74.1297H97.2105V71.4077H96.6568V77.5971L97.2105 77.602ZM106.11 74.5073H107.262C108.25 74.5073 108.661 75.0223 108.661 75.807C108.661 76.5917 108.231 77.1116 107.262 77.1116H106.11V74.5073ZM105.556 71.4077V77.5971H107.276C108.582 77.5971 109.254 76.8909 109.254 75.807C109.254 74.7231 108.591 74.0021 107.276 74.0021H106.124V71.4077H105.556ZM118.242 71.4077H114.949V77.5971H118.351V77.1067H115.503V74.6299H118.099V74.1395H115.503V71.8981H118.227V71.4077H118.242ZM125.95 77.5971H126.518V71.8981H130.473V77.5971H131.037V71.4077H125.945V77.5971H125.95ZM139.793 74.473C139.773 74.972 139.606 75.4543 139.313 75.8599C139.019 76.2655 138.611 76.5764 138.141 76.754C137.67 76.9315 137.158 76.9679 136.666 76.8585C136.175 76.749 135.727 76.4987 135.379 76.1387C135.03 75.7786 134.795 75.3247 134.705 74.8335C134.614 74.3423 134.671 73.8354 134.869 73.3761C135.066 72.9168 135.395 72.5252 135.816 72.2502C136.236 71.9752 136.728 71.8289 137.232 71.8295C137.577 71.8299 137.918 71.8993 138.236 72.0336C138.553 72.1679 138.84 72.3643 139.079 72.6111C139.318 72.8579 139.504 73.15 139.627 73.4699C139.75 73.7898 139.806 74.1309 139.793 74.473ZM140.356 74.473C140.356 73.8599 140.173 73.2606 139.83 72.7509C139.486 72.2412 138.998 71.8439 138.427 71.6093C137.856 71.3747 137.228 71.3133 136.622 71.4329C136.016 71.5525 135.459 71.8477 135.022 72.2812C134.585 72.7147 134.288 73.267 134.167 73.8683C134.047 74.4695 134.108 75.0928 134.345 75.6591C134.581 76.2255 134.982 76.7096 135.496 77.0502C136.01 77.3908 136.614 77.5726 137.232 77.5726C138.059 77.5687 138.852 77.2409 139.437 76.6605C140.022 76.08 140.352 75.2938 140.356 74.473ZM147.51 77.1116H143.204L145.355 72.1188L147.51 77.1116ZM142.012 77.1116V78.7644H142.542V77.5971H148.183V78.7644H148.677V77.1067H148.118L145.631 71.4077H145.137L142.665 77.1067L142.012 77.1116ZM151.633 75.0566L152.914 72.1139L154.194 75.0566H151.633ZM149.952 77.602H150.546L151.46 75.5274H154.397L155.302 77.602H155.9L153.181 71.4077H152.686L149.967 77.602H149.952ZM159.608 71.8981C160.597 71.8981 161.047 72.4327 161.047 73.2027C161.047 73.9727 160.617 74.5073 159.608 74.5073H158.763V71.8981H159.608ZM159.638 74.9977C160.953 74.9977 161.615 74.2866 161.615 73.2027C161.615 72.1188 160.953 71.4077 159.638 71.4077H158.209V77.5971H158.763V74.9928L159.638 74.9977ZM165.111 71.4077H164.547V77.5971H165.111V71.4077ZM169.619 77.5971L166.025 74.2915L169.402 71.4077H168.66L165.254 74.2768L168.838 77.5922L169.619 77.5971ZM172.334 71.4077V77.5971H172.828L176.882 72.266V77.5971H177.451V71.4077H176.956L172.897 76.7045V71.4077H172.334Z" fill="#FF3535"/>
<path fill-rule="evenodd" clip-rule="evenodd" d="M111.158 77.7149H110.604V77.4843H111.158L111.276 77.5971L111.158 77.7149ZM111.276 77.5971L111.158 77.7149H111.276V77.5971ZM111.276 71.4077L111.158 71.29L111.054 71.4077V77.5971H111.276V71.4077ZM111.158 71.29H111.276V71.4077L111.158 71.29ZM110.604 71.29H111.158V71.5058H110.604L110.5 71.4077L110.614 71.29H110.604ZM110.5 71.4077L110.614 71.29H110.5V71.4077ZM110.5 77.5971L110.614 77.7149L110.718 77.5971V71.4077H110.5V77.5971ZM110.614 77.7149L110.5 77.5971V77.7149H110.614ZM54.3618 71.7314V71.9472H54.1097H53.9811H53.8575H53.729L53.6103 71.9864L53.4966 72.0208L53.3829 72.0698L53.2791 72.1238L53.1703 72.1728L53.0665 72.2366L52.9725 72.3003L52.8786 72.3739L52.7847 72.4474L52.7006 72.521L52.6116 72.6044L52.5276 72.6976L52.4584 72.7908L52.3842 72.8839L52.3199 72.982L52.2606 73.0801L52.1963 73.188L52.1617 73.3695L52.1172 73.4725L52.0777 73.5853L52.0381 73.7128L52.0035 73.8256L51.9788 73.9482V74.0757V74.2032V74.473H51.7613V74.1934V74.0561V73.9188L51.7909 73.7864L51.8256 73.6589L51.8651 73.5362L51.9096 73.4087L51.959 73.2861L52.0134 73.1684L52.0777 73.0556L52.1519 72.9379L52.226 72.8349L52.2952 72.7319L52.3793 72.624L52.4633 72.5357L52.5573 72.4376L52.6561 72.3592L52.76 72.2758L52.8687 72.1973L52.9725 72.1238L53.0863 72.0551L53.2 72.0011L53.3137 71.9374L53.4422 71.8981L53.5658 71.8442L53.6944 71.8148L53.818 71.7853L53.9564 71.7608H54.0948H54.2431H54.3618V71.7314ZM57.0414 74.473H56.809V74.0855L56.7843 73.9629L56.7497 73.8354V73.7226L56.7151 73.6L56.6706 73.4823L56.6113 73.3695L56.5569 73.2518L56.5025 73.1488L56.4383 73.0458L56.369 72.9526L56.3048 72.8594L56.2207 72.7613L56.1169 72.6829L56.0328 72.5995L55.9389 72.521L55.8549 72.4524L55.7609 72.3788L55.6522 72.315L55.5533 72.2513L55.4495 72.1973L55.3407 72.1483L55.227 72.0992L55.1083 72.0649L54.9946 72.0208H54.8809H54.7524L54.6288 71.9962H54.3618V71.7804H54.6485H54.782L54.9205 71.805H55.0589L55.1825 71.8393L55.311 71.8932L55.4247 71.9325L55.5533 71.9962L55.667 72.0502L55.7807 72.1188L55.8895 72.1924L55.9933 72.266L56.1169 72.3886L56.2108 72.4671L56.3048 72.5652L56.3888 72.6534L56.4729 72.7613L56.5569 72.8643L56.6311 72.9673L56.6953 73.085L56.7596 73.1978L56.814 73.3106L56.8634 73.4382L56.9178 73.5657L56.9574 73.6883L56.987 73.8158L57.0216 73.9482V74.0855V74.5024L57.0414 74.473ZM54.3618 77.2931H54.52H54.6584H54.7919L54.9303 77.2587L55.0688 77.2293L55.1973 77.1999L55.3209 77.1459L55.4445 77.092L55.5632 77.0429L55.6769 76.9792L55.7906 76.9056L55.8994 76.832L56.0032 76.7487L56.0971 76.6653L56.2059 76.5819L56.2899 76.4887L56.3789 76.3857L56.4531 76.2877L56.5421 76.1748L56.6113 76.0719L56.6756 75.9541L56.7398 75.8413L56.8437 75.5912L56.898 75.4637L56.9376 75.3411L56.9722 75.2038L57.0019 75.0664V74.934V74.5171H56.7695V74.9193V75.0468L56.7349 75.1743L56.7052 75.2969L56.6706 75.4098L56.6311 75.5226L56.5767 75.6452L56.5272 75.758L56.4679 75.861L56.4086 75.9738L56.3344 76.067L56.2652 76.1699L56.1861 76.268L56.1169 76.3122L56.0279 76.4103L55.9389 76.4936L55.8499 76.5672L55.7461 76.6359L55.6522 76.6996L55.5483 76.7634L55.4445 76.8271L55.3358 76.8762L55.222 76.935L55.1034 76.9743L54.9897 77.0037L54.876 77.0331H54.7474H54.3618V77.2931ZM51.6921 74.4877V74.7673V74.9046V75.037L51.7217 75.1743L51.7563 75.3068L51.7959 75.4343L51.8404 75.5569L51.9442 75.807L52.0035 75.9247L52.0826 76.0375L52.1519 76.1405L52.226 76.2582L52.3101 76.3514L52.3941 76.4544L52.488 76.5476L52.6116 76.6163L52.7155 76.6996L52.8094 76.7781L52.9281 76.8517L53.0269 76.9252L53.1456 76.989L53.2692 77.038L53.3878 77.0969L53.5164 77.1459L53.6499 77.1754L53.7735 77.2097L53.9119 77.2391H54.0503H54.3321V77.0135H53.9564H53.8279L53.7043 76.9792L53.5856 76.9498L53.4719 76.9105L53.3681 76.8566L53.2989 76.8026L53.1901 76.7389L53.0863 76.68L52.9923 76.6163L52.8934 76.5427L52.8045 76.474L52.7155 76.3906L52.6314 76.2926L52.5474 76.2092L52.4782 76.116L52.404 76.013L52.3397 75.9198L52.2755 75.8021L52.2112 75.6991L52.1617 75.5863L52.0876 75.4735L52.048 75.3607L52.0035 75.243L51.9739 75.1204L51.9492 74.9929V74.8703V74.7427V74.4828L51.6921 74.4877ZM49.0322 77.6168V71.4077H49.2498V77.5971L49.1459 77.7149L49.0322 77.6021V77.6168ZM49.1459 77.7296L49.0322 77.6119V77.7296H49.1459ZM49.7046 77.7296L49.8183 77.6168L49.7046 77.4991H49.1459V77.7296H49.7046ZM49.8183 77.6168V77.7296H49.6898L49.8035 77.6168H49.8183ZM49.8183 74.6447V77.6119H49.6008V74.6299L49.7046 74.5122L49.8183 74.6299V74.6447ZM49.6008 74.6447L49.7046 74.5319H49.6008V74.6447ZM51.2372 74.7476L51.3509 74.6348L51.2372 74.5319H49.6898V74.7476H51.2372ZM51.2372 74.5319H51.341V74.6348L51.2372 74.5319ZM54.3618 77.5628V77.7835H54.0355H53.8723H53.729L53.5708 77.7394L53.4224 77.7001L53.2791 77.6511L53.1308 77.5971L52.9923 77.5334L52.8539 77.4647L52.7204 77.3912L52.5919 77.3029L52.4633 77.2244L52.3496 77.1263L52.2359 77.0233L52.1222 76.9154L52.0184 76.8173L51.9195 76.6996L51.8157 76.577L51.7316 76.4495L51.6673 76.3122L51.5833 76.1847L51.5091 76.0473L51.4498 75.9051L51.3855 75.7727L51.3312 75.6206L51.2768 75.4637L51.2372 75.3215L51.2076 75.1645V75.0076V74.8506V74.6839H51.435V74.8408V74.988V75.1351L51.4696 75.2773L51.5091 75.4147L51.5487 75.5618L51.6031 75.6991L51.6575 75.8315L51.7168 75.9591L51.7959 76.0817L51.8651 76.2092L51.9393 76.322L52.0233 76.4348L52.1172 76.5476L52.2112 76.6555L52.3051 76.7585L52.4139 76.8517L52.5177 76.9449L52.6314 77.038L52.7501 77.1116L52.8638 77.195L52.9923 77.2587L53.1159 77.3323L53.2445 77.3863L53.3829 77.4353L53.5164 77.4892L53.6499 77.5334L53.7982 77.5628H53.9465L54.0899 77.5873H54.2382L54.4013 77.5383L54.3618 77.5628ZM57.3776 74.4877V74.9487L57.343 75.1008L57.3133 75.2479L57.2688 75.395L57.2293 75.5373L57.1749 75.6746L57.1156 75.8119L57.0513 75.9492L56.9771 76.0719L56.8881 76.1994L56.809 76.322L56.725 76.4397L56.6261 76.5525L56.5322 76.6555L56.4284 76.7585L56.3097 76.8566L56.2059 76.9498L56.0823 77.0331L55.9686 77.1165L55.84 77.1901L55.7016 77.2587L55.578 77.3225L55.4396 77.3764L55.2913 77.4304L55.1578 77.4696L55.0095 77.4991L54.8512 77.5334H54.7079H54.3915V77.7835H54.7227H54.8957L55.049 77.7541L55.2122 77.7198L55.3654 77.6707L55.5137 77.6217L55.6621 77.5579L55.8104 77.4942L55.9439 77.4206L56.0823 77.3421L56.2207 77.2538L56.3443 77.1607L56.463 77.0577L56.5767 76.9547L56.6904 76.8468L56.7992 76.734L56.903 76.6064L56.9969 76.4838L57.081 76.3563L57.165 76.219L57.2392 76.0866L57.3133 75.9443L57.3776 75.7923L57.4419 75.6501L57.4814 75.4931L57.5309 75.3362L57.5655 75.1792L57.5951 75.0125V74.8555V74.522L57.3776 74.4877ZM54.3618 71.4666H54.8216H54.9798L55.1281 71.5009L55.2814 71.5548L55.4297 71.6088L55.5681 71.6578L55.6917 71.7216L55.8301 71.7853L55.9537 71.8589L56.0724 71.9423L56.196 72.0257L56.2998 72.109L56.4185 72.2022L56.5223 72.3052L56.6162 72.4082L56.7102 72.5161L56.809 72.6289L56.8783 72.7564L56.9623 72.8692L57.0365 72.9967L57.1007 73.1292L57.165 73.2665L57.2145 73.4038L57.254 73.5411L57.2985 73.6834L57.3282 73.8305L57.3628 73.9825V74.4436H57.6001V74.0904V73.9237L57.5704 73.7717L57.5358 73.6147L57.4814 73.4578L57.4419 73.3106L57.3776 73.1635L57.3183 73.0213L57.2441 72.8839L57.17 72.7368L57.0859 72.6142L57.0019 72.4867L56.903 72.3592L56.8041 72.2464L56.6953 72.1336L56.5767 72.0257L56.463 71.9227L56.3394 71.8295L56.2108 71.7363L56.0872 71.6529L55.9488 71.5695L55.8104 71.5058L55.667 71.4322L55.5187 71.3783L55.3704 71.3292L55.2122 71.29L55.0539 71.2458H54.9007H54.7276H54.3964V71.4666H54.3618ZM51.2669 74.2572L51.3855 74.1493V74.0169V73.8697L51.4202 73.7324L51.4993 73.4627L51.5437 73.3352L51.5981 73.2125L51.6575 73.085L51.7217 72.9722L51.7959 72.8594L51.8651 72.7417L51.9393 72.6289L52.0283 72.5259L52.1172 72.4327L52.2161 72.3248L52.3101 72.2317L52.4188 72.1483L52.5227 72.0698L52.6265 71.9815L52.7402 71.908L52.8588 71.8442L52.9725 71.7853L53.0961 71.7216L53.2247 71.6676L53.3483 71.6235L53.6251 71.545L53.7735 71.4715H54.342V71.2557H54.0355H53.8773L53.729 71.29L53.5856 71.3194L53.4373 71.3537L53.289 71.393L53.1505 71.4469L53.017 71.5058L52.8934 71.5695L52.755 71.6333L52.6265 71.7069L52.5078 71.7902L52.3941 71.8687L52.2804 71.9668L52.1766 72.06L52.0678 72.1532L51.964 72.2562L51.8701 72.3739L51.7761 72.4916L51.6921 72.6044L51.6179 72.7172L51.5437 72.8398L51.4696 72.9771L51.4103 73.1046L51.346 73.242L51.3015 73.3842L51.2471 73.5215L51.2174 73.6638L51.1878 73.8109L51.1532 73.9678V74.115L51.2669 74.0218V74.2376V74.2572ZM51.3855 74.1542V74.2572H51.2817L51.3855 74.1542ZM49.7046 74.0414H51.2669V74.2572H49.6898L49.5859 74.1444L49.6898 74.0414H49.7046ZM49.7046 74.2572L49.6008 74.1444V74.2572H49.7046ZM49.8183 71.4224L49.7046 71.3096L49.6008 71.4224V74.1444H49.8183V71.4077V71.4224ZM49.7046 71.3096H49.8183V71.4077L49.7046 71.2949V71.3096ZM49.1459 71.3096L49.0322 71.4224L49.1459 71.5254H49.6898V71.3096H49.1459ZM49.0322 71.4224L49.1459 71.3096H49.0322V71.4077V71.4224ZM62.0101 71.9962H61.1399V71.7755H62.0101V71.9962ZM63.4438 72.9771H63.2164V72.5946V72.5406V72.4916V72.4474V72.4033V72.3641L63.1867 72.3199L63.1571 72.2905V72.2562L63.1225 72.2267L63.0829 72.1924H63.0483L63.0088 72.1679H62.9643H62.9198H62.8802H62.8308H62.0496V71.9472H62.6627H62.7269L62.7912 71.9717H62.8407L62.9049 71.9962L62.9544 72.0257L63.0088 72.06L63.0631 72.0894L63.1175 72.1188L63.1571 72.1581L63.1966 72.2022L63.2411 72.2464L63.2708 72.2954L63.3054 72.3494V72.4033V72.4622V72.5259V72.5897V72.6534V73.0262H63.3449L63.4438 72.9771ZM62.0496 74.2425L62.1238 74.1444H62.544H62.6132L62.6775 74.1199H62.7319L62.7962 74.0904L62.8456 74.0561L62.9099 74.0267L62.9643 73.9973L63.0038 73.9629L63.0582 73.9237L63.1027 73.8796L63.1422 73.8354L63.1719 73.7864L63.2164 73.7324L63.2461 73.6834L63.2807 73.6343V73.5755V73.5117V73.4529L63.3054 73.3989V73.3254V72.9869H63.0829V73.3401V73.3891V73.4431V73.4823V73.5264V73.5755L63.0483 73.6098L63.0186 73.649V73.6932L62.984 73.7226L62.9445 73.7569V73.8746L62.9049 73.909H62.8654L62.8209 73.9433H62.7813H62.7269H62.6775H62.5687H62.5045H62.0496V74.1591V74.2425ZM61.1449 74.0267H62.0496V74.2425H61.1449L61.0411 74.1297L61.1449 74.0267ZM61.1449 74.2425L61.0411 74.1297V74.2425H61.1449ZM61.2586 71.8687L61.1449 71.7559L61.0411 71.8638V74.1297H61.2586V71.8687ZM61.0411 71.8687L61.1449 71.7608H61.0608V71.8687H61.0411ZM63.8542 75.8708H63.6267V75.5471V75.4833V75.4343V75.3803V75.3313V75.2773L63.5328 75.2332L63.5031 75.1841L63.4735 75.14L63.4438 75.0959L63.3993 75.0566L63.3647 75.0223L63.3202 74.9831L63.2708 74.9536L63.2312 74.9193L63.1768 74.8899L63.0631 74.8408H63.0088H62.9395H62.8753H62.8011H62.638H62.5589H62.1683V74.5613H62.7665H62.8505H62.9395L63.0088 74.5907H63.0928H63.1571L63.2312 74.625L63.2955 74.6692L63.3548 74.7084L63.4092 74.7526L63.4636 74.7918L63.513 74.8457L63.5575 74.885L63.5971 74.9389L63.6416 75.0027L63.6712 75.0517L63.7058 75.1155L63.7355 75.1792V75.2381L63.7602 75.3019V75.4392V75.5029V75.8217L63.8097 75.8855L63.8542 75.8708ZM62.2029 77.2489V77.1852H62.5885H62.6775H62.7665H62.8407H62.9247L63.0038 77.1508L63.073 77.1214L63.1472 77.0871L63.2065 77.0577L63.2708 77.0135L63.335 76.9841L63.3894 76.9399L63.4438 76.8909L63.4933 76.8468L63.5328 76.7977L63.5822 76.7487L63.6218 76.6898L63.6613 76.631L63.696 76.5672L63.7256 76.5133V76.4544L63.7602 76.3808V76.3171V76.2533V75.9002H63.5328V76.2631V76.3171V76.371V76.425V76.474V76.5133L63.5031 76.5672L63.4685 76.6113L63.429 76.6506L63.3944 76.6898L63.3548 76.7241L63.3202 76.8124L63.2708 76.8468L63.2263 76.886H63.1719L63.1076 76.9105L63.0582 76.9449H62.9939H62.9198H62.8604H62.7813H62.7072H62.6281H62.2672V77.1656L62.2029 77.2489ZM61.1449 77.0282H62.2029V77.2489H61.1449L61.0411 77.141L61.1449 77.0282ZM61.1449 77.2489L61.0411 77.141V77.2489H61.1449ZM61.2586 74.5956L61.1449 74.4828L61.0411 74.5956V77.141H61.2586V74.5956ZM61.0411 74.5956V74.473H61.1449L61.0411 74.5956ZM62.1732 74.7035V74.473H61.1399V74.7035H62.1732ZM64.1904 75.8708V75.8413V76.062V76.165V76.2582L64.1557 76.3514V76.4446L64.1261 76.528L64.0865 76.6113L64.0371 76.6898L63.9975 76.7585L63.9481 76.8173L63.8937 76.8811L63.8443 76.9449L63.78 76.9988L63.7157 77.0528L63.6564 77.1018L63.5773 77.141L63.5081 77.1852L63.4339 77.2293L63.3449 77.2685L63.2708 77.3029L63.1917 77.3323L63.0137 77.3764H62.9247H62.8308H62.7467H62.6528H62.2622V77.607H62.6726H62.7813H62.8753H62.9692L63.073 77.5824H63.167L63.2658 77.553L63.3449 77.5187L63.4438 77.4745L63.5279 77.4353L63.6119 77.3961L63.696 77.3421L63.78 77.2882L63.8492 77.2391L63.9234 77.1754L63.9975 77.1116L64.0618 77.038L64.1261 76.9645L64.1755 76.8909L64.2299 76.8124L64.2843 76.7143L64.3238 76.6261L64.3634 76.528L64.398 76.425V76.322V76.2043V76.0915V75.8708H64.1904ZM63.0384 74.2866H63.2609L63.1768 74.1836H63.3054H63.3647H63.429L63.4933 74.2131H63.5427L63.607 74.2425L63.6613 74.2768L63.7256 74.3161L63.78 74.3504L63.8294 74.3896L63.8789 74.4338L63.9234 74.4779L63.9778 74.5269L64.0173 74.5662L64.0618 74.6201L64.1063 74.6839L64.1459 74.7378L64.1755 74.8016L64.22 74.8506L64.2497 74.9242V74.988L64.2793 75.0468L64.3041 75.1204V75.194V75.3313V75.4147V75.8217H64.0816V75.4343L64.0569 75.3607V75.3313V75.2675V75.2038V75.14L64.0272 75.091V75.0272L63.9926 74.9733L63.9629 74.934L63.9283 74.8801L63.8987 74.8408L63.8591 74.7869L63.8146 74.7476L63.7849 74.7133L63.7405 74.6741L63.7009 74.6397L63.6465 74.6005L63.607 74.5662H63.5328L63.4784 74.5319H63.429H63.3795H63.3202H63.2708H63.2164H63.1027L63.0088 74.3896L63.0384 74.2866ZM63.1274 74.3945L63.0384 74.2866V74.3504H63.1274V74.3945ZM63.2609 74.2572V74.2866H63.0384V74.2523L63.1027 74.1542L63.2609 74.2572ZM63.0384 74.2572V74.1934L63.1027 74.1591L63.0384 74.2572ZM63.78 72.9232H63.7355V73.4627V73.5068V73.5853V73.6294V73.6687L63.7058 73.7128V73.7471V73.7864L63.6762 73.8256L63.5328 73.8599L63.5031 73.8894L63.4685 73.9335L63.4389 73.9629L63.4043 73.9924L63.3647 74.0267H63.335L63.2906 74.0561L63.251 74.0904H63.2065L63.162 74.1199L63.2609 74.3111H63.3103L63.3647 74.2817L63.4142 74.2474L63.4636 74.2082L63.513 74.1787L63.5526 74.1444L63.5971 74.1052L63.6366 74.061L63.6712 74.0316L63.7157 73.9924L63.7405 73.9482L63.7751 73.8943L63.8047 73.855L63.8393 73.8109V73.7569L63.8739 73.7177V73.6687V73.6245L63.8987 73.5706V73.5215V73.4774L63.9234 73.4283V72.9232H63.78ZM62.2029 71.5107L62.366 71.5597H62.7517H62.8456H62.9198L63.0038 71.5892L63.078 71.6235L63.1373 71.6529L63.2164 71.6873L63.2658 71.7265L63.3301 71.7657L63.3795 71.8099L63.4339 71.8491L63.4784 71.903L63.5279 71.9521L63.5625 71.9962L63.602 72.06L63.6366 72.109L63.6663 72.163L63.7009 72.2267V72.2905V72.3494V72.4131V72.4769V72.8594H63.9234V72.4131V72.3395V72.266L63.8937 72.1924L63.8591 72.1238L63.8294 72.06L63.7948 71.9864L63.7553 71.9227L63.7009 71.8638L63.6613 71.8001L63.607 71.7363L63.5575 71.6873L63.4933 71.6284L63.429 71.5794L63.3548 71.5254L63.2807 71.4862L63.1867 71.4273L63.1027 71.3881L63.0384 71.4077L62.9544 71.3783L62.8604 71.3439H62.7665H62.6577H62.2078V71.5597L62.2029 71.5107ZM60.5664 71.2949H62.1831V71.5107H60.5664L60.4478 71.4077L60.5664 71.2949ZM60.4478 71.4077L60.5664 71.2949H60.4478V71.4077ZM60.4478 77.6021L60.5763 77.7149L60.6802 77.5971V71.4077H60.4478V77.6021ZM60.5664 77.7149H60.4478V77.5971L60.5664 77.7149ZM62.1831 77.7149H60.5664V77.4843H62.1831V77.7149ZM67.7253 71.29H71.0179V71.5058H67.7352L67.6313 71.4077L67.7352 71.29H67.7253ZM67.6214 71.4077L67.7253 71.29H67.6214V71.4077ZM67.6214 77.5971L67.7253 77.7149L67.8439 77.5971V71.4077H67.6214V77.5971ZM67.7253 77.7149H67.6214V77.5971L67.7253 77.7149ZM71.1316 77.7149H67.7352V77.4843H71.1415L71.2552 77.5971L71.1415 77.7149H71.1316ZM71.2454 77.5971L71.1316 77.7149H71.2454V77.5971ZM71.2454 77.1067L71.1316 76.9939L71.0278 77.1067V77.5971H71.2454V77.1067ZM71.1316 76.9939H71.2454V77.1067L71.1316 76.9939ZM68.2938 76.9939H71.1316V77.2146H68.2938L68.1752 77.1067L68.2938 76.9939ZM68.2938 77.2146L68.1752 77.1067V77.2146H68.2938ZM68.4125 74.6397L68.2938 74.5122L68.1752 74.6299V77.1165H68.4125V74.6643V74.6397ZM68.1752 74.6397V74.522H68.2938L68.1752 74.6397ZM70.8943 74.7427H68.2988V74.522H70.8943L70.9932 74.6397L70.8943 74.7427ZM70.9932 74.6397L70.8943 74.7427H70.9932V74.6397ZM70.9932 74.1493L70.8943 74.0316L70.7707 74.1395V74.6299H70.9932V74.1395V74.1493ZM70.8943 74.0414H70.9932V74.1493L70.8943 74.0414ZM68.2988 74.0414H70.8943V74.2621H68.2988L68.1801 74.1493L68.2988 74.0414ZM68.2988 74.2621L68.1801 74.1493V74.2621H68.2988ZM68.4125 71.9178L68.2988 71.805L68.1801 71.908V74.1493H68.4125V71.8981V71.9178ZM68.1801 71.9178V71.8148H68.2988L68.1801 71.9178ZM71.0229 72.0306H68.2988V71.8148H71.0229L71.1267 71.9178L71.0229 72.0306ZM71.1267 71.9178L71.0229 72.0306H71.1267V71.8981V71.9178ZM71.1267 71.4273L71.0229 71.2998L70.9042 71.4175V71.908H71.1267V71.4077V71.4273ZM71.0229 71.3145H71.1267V71.4077L71.0229 71.2949V71.3145ZM78.3646 77.6413L75.9915 72.1532L76.1992 72.0698L78.5772 77.5579L78.4685 77.7149L78.3646 77.6413ZM78.4685 77.7149L78.3646 77.6413L78.3992 77.7149H78.4685ZM79.0617 77.7149L79.1705 77.5579L79.0667 77.4843H78.4783V77.7149H79.0617ZM79.1655 77.5579L79.2397 77.7149H79.0617L79.1655 77.5579ZM76.4563 71.3537L76.3623 71.29L76.2536 71.4469L78.9629 77.6413L79.1655 77.5579L76.4563 71.3537ZM76.3475 71.29H76.4217L76.4563 71.3537L76.3475 71.29ZM75.8531 71.29H76.3475V71.5058H75.8531L75.7542 71.3537L75.8531 71.29ZM75.7542 71.3537L75.8531 71.29H75.774V71.3537H75.7542ZM73.0351 77.5579L73.1339 77.7149L73.2328 77.6413L75.9569 71.4469L75.7542 71.3537L73.0351 77.5579ZM73.1339 77.7149H72.956L73.0351 77.5579L73.1339 77.7149ZM73.7272 77.7149H73.1339V77.4843H73.7272L73.831 77.6413L73.7272 77.7149ZM73.831 77.6413L73.8014 77.7149H73.7272L73.831 77.6413ZM76.2041 72.1532V72.0698H75.9965L73.6234 77.5579L73.831 77.6413L76.2041 72.1532ZM75.9965 72.0698H76.2041L76.1003 71.8295L75.9965 72.0698ZM81.2766 77.5873V71.4077H81.4991V77.5971L81.3854 77.7149L81.2766 77.5873ZM81.3854 77.705L81.2766 77.5971V77.705H81.3854ZM81.8798 77.705L81.9589 77.6609L81.8798 77.4696H81.3854V77.705H81.8798ZM81.9589 77.6609L81.9292 77.705H81.8798L81.9589 77.6609ZM86.0376 72.3199L81.9589 77.6609L81.7809 77.5285L85.8596 72.1875L86.0624 72.2562L86.0376 72.3199ZM85.8596 72.1875L86.0624 72.266V71.9227L85.8596 72.1875ZM85.8596 77.5824L85.9635 77.7099L86.0821 77.5922V72.266H85.8596V77.5873V77.5824ZM85.9635 77.7001L85.8596 77.5922V77.7001H85.9635ZM86.532 77.7001L86.6358 77.5824L86.532 77.4647H85.9635V77.7001H86.532ZM86.6358 77.5824V77.7001H86.532L86.6358 77.5824ZM86.6358 71.3881V77.5971H86.4183V71.4077L86.532 71.29L86.6358 71.393V71.3881ZM86.532 71.2753L86.6358 71.3881V71.2753H86.532ZM86.0376 71.2753L85.9536 71.3145L86.0376 71.4911H86.532V71.2753H86.0376ZM85.9536 71.3145L85.9882 71.2753H86.0376L85.9536 71.3145ZM81.8748 76.6113V76.6849L82.0726 76.7487L86.1513 71.4518L85.9734 71.3145L81.8946 76.6113H81.8748ZM82.0528 76.7487L81.8551 76.6849V77.0086L82.0528 76.7487ZM82.0676 71.4077L81.944 71.3047L81.8254 71.4077V76.6898H82.0676V71.4077ZM81.949 71.2949H82.0676V71.4077L81.949 71.2949ZM81.3854 71.2949L81.2766 71.4077L81.3854 71.5107H81.949V71.2949H81.3854ZM81.2766 71.4077V71.2949H81.3854L81.2766 71.4077ZM93.2508 73.1978H93.0185V72.879V72.8153V72.7123V72.6583V72.6093L92.9888 72.5553V72.5014L92.9591 72.4622L92.9245 72.418L92.885 72.3788L92.8504 72.3346L92.7021 72.2905L92.6625 72.2464H92.5587L92.5043 72.212L92.4549 72.1826H92.4005L92.3412 72.1532H92.2769H92.2126H91.6638V71.9374H92.1187H92.2027H92.2769H92.351L92.4203 71.9717L92.4944 72.0011L92.5587 72.0355H92.623L92.6823 72.0796L92.7367 72.1238L92.791 72.163L92.8454 72.2071L92.885 72.2562H92.9295L92.974 72.3052L93.0135 72.3592L93.0481 72.4229L93.0778 72.4867L93.1124 72.5357V72.6093V72.6731L93.1371 72.7368V72.8055V72.879V73.1733L93.2508 73.1978ZM91.7133 74.5956V74.3798H92.2077H92.2719H92.3362L92.3955 74.3553H92.4598L92.5142 74.3259H92.5636L92.618 74.2915L92.6576 74.2621L92.7021 74.218L92.7416 74.1885L92.7861 74.1444L92.8158 74.1052L92.8504 74.061L92.88 74.0218V73.9678L92.9097 73.9286V73.8746V73.8256V73.7079V73.6441V73.2616H93.1965V73.5657V73.6343V73.7079V73.7717V73.8452V73.909L93.1618 73.9678L93.1322 74.0316L93.0976 74.0855L93.058 74.1346L93.0135 74.1983L92.974 74.2425L92.9295 74.2915L92.88 74.3357L92.8257 74.3847L92.7021 74.3504L92.6477 74.3896L92.5884 74.424L92.5142 74.4534L92.4499 74.4877H92.3807H92.3065H92.2324H92.1483H91.6935V74.5269L91.7133 74.5956ZM90.8728 74.3798L90.7541 74.4926L90.8728 74.5956H91.7133V74.3798H90.8728ZM90.8728 74.5956H90.7245V74.4926L90.853 74.5956H90.8728ZM90.9717 71.8981V74.5073H90.7245V71.8981L90.8431 71.7952L90.9717 71.8834V71.8981ZM90.7245 71.8981L90.8431 71.7952H90.7245V71.8981ZM91.6787 72.0109V71.7952H90.8431V72.0109H91.6787ZM93.5771 73.2027H93.5228V73.7471L93.4881 73.8305L93.4634 73.8992L93.4338 73.9727L93.3992 74.0512L93.3596 74.1199L93.3201 74.1983L93.2756 74.2572L93.2212 74.321L93.1816 74.3749L93.1174 74.4338L93.0679 74.4877L93.0036 74.5269L92.9394 74.5809L92.8702 74.6201L92.791 74.6643L92.7169 74.7084L92.6328 74.7378L92.5537 74.7722H92.4549H92.3659H92.267H92.1731H91.7429V74.988H92.2373H92.3412H92.445L92.5537 74.9585L92.6576 74.9242L92.7515 74.8948L92.8355 74.8506L92.9295 74.8114L93.0135 74.7575L93.0877 74.7182L93.1717 74.6545L93.2459 74.6005L93.3695 74.473L93.4338 74.4043L93.4881 74.3308L93.5425 74.2572L93.592 74.1836L93.6315 74.1003L93.6661 74.0218L93.7106 73.9335L93.7403 73.8403V73.7471V73.6539L93.765 73.5608V73.1537L93.5771 73.2027ZM91.7133 71.5107H91.8517H92.2769H92.3758L92.4697 71.5352L92.5636 71.5646L92.6477 71.599L92.7317 71.6235L92.8059 71.6676L92.88 71.7118L92.9542 71.751L93.0185 71.8001L93.0778 71.8442L93.1322 71.8981L93.1965 71.9619L93.236 72.0109L93.2854 72.0747L93.3349 72.1483L93.3744 72.212L93.414 72.2856L93.4486 72.3592L93.4783 72.4278V72.5014L93.5129 72.5848V73.1243H93.7304V72.7221V72.624V72.5357V72.4376L93.6908 72.3886L93.6464 72.3052L93.6167 72.2218L93.5771 72.1434L93.5228 72.0649L93.4684 71.9962L93.414 71.9227L93.3547 71.8442L93.2261 71.7216L93.1569 71.6676L93.0679 71.6088L92.9987 71.5646L92.9097 71.5156L92.8158 71.4715L92.7317 71.4322L92.6378 71.3979L92.534 71.3685L92.4301 71.3341H92.3263H92.2176H91.7133V71.5499V71.5107ZM90.2795 71.2949H91.7133V71.5107H90.2795L90.1658 71.4077L90.2795 71.2949ZM90.1658 71.4077L90.2795 71.2949H90.1658V71.4077ZM90.1658 77.6021L90.2795 77.7149L90.3883 77.5971V71.4077H90.1658V77.6021ZM90.2795 77.7149H90.1658V77.5971L90.2795 77.7149ZM90.8382 77.7149H90.2795V77.4843H90.8382L90.9568 77.6021L90.8382 77.7149ZM90.9568 77.6021L90.8382 77.7149H90.9568V77.6021ZM90.9568 74.9978L90.8333 74.8899L90.7146 74.9929V77.5971H90.9568V74.9978ZM90.7245 74.9978V74.8899H90.8382L90.7245 74.9978ZM91.7133 75.1106H90.8382V74.8899H91.7133V75.1106ZM97.29 74.6201V77.5873H97.0725V74.6299L97.1763 74.5122L97.29 74.6299V74.6201ZM97.0725 74.6201L97.1763 74.5073H97.0725V74.6201ZM101.181 74.7231L101.3 74.6201L101.181 74.5073H97.1763V74.7231H101.181ZM101.181 74.5073H101.3V74.6201L101.181 74.5073ZM101.067 77.5922V74.6299H101.3V77.5971L101.181 77.7149L101.067 77.6021V77.5922ZM101.181 77.705L101.067 77.5873V77.705H101.181ZM101.74 77.705L101.853 77.5922L101.74 77.4745H101.181V77.705H101.74ZM101.853 77.5922V77.705H101.74L101.853 77.5922ZM101.853 71.3979V77.5971H101.636V71.4077L101.74 71.29L101.853 71.4077V71.3979ZM101.74 71.2851L101.853 71.3979V71.2851H101.74ZM101.181 71.2851L101.067 71.3979L101.181 71.5009H101.74V71.2851H101.181ZM101.067 71.3979V71.2851H101.181L101.067 71.3979ZM101.067 74.1199V71.4077H101.3V74.1297L101.181 74.2425L101.067 74.1297V74.1199ZM101.3 74.1199L101.181 74.2327H101.3V74.1199ZM97.1763 74.0169L97.0725 74.1199L97.1763 74.2327H101.181V74.0169H97.1763ZM97.1763 74.2327H97.0725V74.1199L97.1763 74.2327ZM97.2999 71.4077V74.1297H97.0824V71.4077L97.1862 71.2949L97.2999 71.4077ZM97.1862 71.2949L97.2999 71.4077V71.2949H97.1862ZM96.6325 71.2949L96.5138 71.4077L96.6325 71.5107H97.1862V71.2949H96.6325ZM96.5138 71.4077V71.2949H96.6572L96.5386 71.4077H96.5138ZM96.5138 77.6021V71.4077H96.7462V77.5971L96.6325 77.7149L96.5138 77.6021ZM96.6325 77.7149L96.5138 77.5971V77.7149H96.6325ZM97.1862 77.7149L97.2999 77.6021L97.1862 77.4843H96.6572V77.7149H97.1862ZM97.2999 77.6021V77.7149H97.1862L97.2999 77.6021ZM107.252 74.6103H106.1V74.3945H107.252V74.6103ZM108.77 75.8217H108.547V75.4343V75.3852V75.3215V75.2724L108.523 75.2185V75.1743L108.488 75.1253L108.458 75.0861L108.429 75.037L108.394 74.9978L108.364 74.9585L108.325 74.9144L108.28 74.885L108.226 74.8506L108.186 74.8212L108.137 74.7869H108.078H108.028H107.964H107.9H107.835H107.376V74.5711H107.806H107.89H107.964H108.038H108.112L108.177 74.6005L108.241 74.6348L108.3 74.6741L108.364 74.7035L108.414 74.7476L108.468 74.7918L108.523 74.8408L108.567 74.8948L108.607 74.934L108.646 74.9978L108.681 75.0517L108.72 75.1155V75.1645L108.75 75.2283V75.2871V75.3656V75.4245V75.498V75.8217H108.77ZM107.252 77.2293V77.1999H107.598H107.687H107.766H107.84H107.915L107.989 77.1705H108.053L108.112 77.1263L108.177 77.0969L108.241 77.0528L108.295 77.0135L108.345 76.9694L108.394 76.9154L108.439 76.8762L108.483 76.8271L108.523 76.7634L108.557 76.7094L108.597 76.6555V76.5966L108.622 76.5329L108.646 76.4691V76.4054V76.3318V76.268V75.8217H108.523V76.2239V76.2877L108.498 76.3367V76.3906V76.4446L108.473 76.4838L108.444 76.5378L108.409 76.5819L108.384 76.631L108.35 76.6702L108.305 76.7045L108.275 76.7487L108.236 76.7879L108.182 76.8173L108.142 76.8468L108.088 76.8811H108.033L107.969 76.9154H107.92H107.855H107.781H107.717H107.643H107.326V77.1312L107.252 77.2293ZM106.1 77.0135H107.252V77.2293H106.1L105.981 77.1263L106.1 77.0135ZM106.1 77.2293L105.981 77.1263V77.2293H106.1ZM106.204 74.522L106.1 74.4043L105.981 74.5171V77.1263H106.204V74.5073V74.522ZM105.981 74.522L106.1 74.4092H105.981V74.522ZM105.413 77.6168V71.4077H105.65V77.5971L105.532 77.7149L105.413 77.6021V77.6168ZM105.532 77.7296L105.413 77.6119V77.7296H105.532ZM107.252 77.7296V77.4991H105.556V77.7296H107.252ZM109.106 75.8217V76.1062V76.1847V76.2827V76.3612V76.4348L109.076 76.5231L109.042 76.5917L109.012 76.6702L108.973 76.7389L108.938 76.8026L108.884 76.8615L108.844 76.9252L108.795 76.989L108.735 77.0429L108.671 77.0969L108.612 77.1459L108.547 77.195L108.478 77.2391L108.404 77.2833L108.33 77.3127L108.246 77.3568L108.162 77.3863H108.078L107.979 77.4157L107.875 77.4402H107.781H107.677H107.336V77.6707H107.697H107.816H107.929L108.038 77.6364H108.142L108.231 77.607L108.33 77.5628L108.424 77.5334L108.508 77.4942L108.592 77.4402L108.681 77.3863L108.755 77.3323L108.829 77.2735L108.893 77.2195L108.968 77.1459L109.017 77.0822L109.081 77.0086L109.121 76.935L109.175 76.8566L109.22 76.783L109.259 76.6947L109.294 76.6064L109.324 76.5231L109.358 76.4299V76.3318V76.2435V76.1356V75.8217H109.106ZM107.252 74.1346L107.371 74.1885H107.801H107.895L107.989 74.218H108.073L108.157 74.2474L108.241 74.2817L108.315 74.3259L108.389 74.37L108.458 74.4092L108.523 74.4485L108.592 74.5073L108.656 74.5613L108.711 74.6103L108.765 74.6741L108.804 74.7378L108.859 74.7967L108.889 74.8605L108.928 74.934L108.963 75.0076L108.992 75.0762L109.027 75.1596V75.2479V75.3264V75.4147V75.5078V75.8217H109.249V75.498V75.4098V75.3313L109.225 75.2283L109.19 75.1008L109.16 75.0076L109.126 74.9242L109.086 74.8359L109.047 74.7575L108.992 74.6741L108.948 74.6005L108.889 74.5269L108.696 74.3357L108.622 74.2768L108.552 74.2229L108.468 74.1738L108.384 74.1297L108.295 74.0904L108.206 74.0463L108.107 74.012L108.004 73.9825H107.91H107.791H107.687H107.573H107.213V74.2032L107.252 74.1346ZM106.1 73.9139H107.252V74.1199H106.1L105.981 74.0071L106.1 73.9139ZM106.1 74.1346L105.981 74.0218V74.1346H106.1ZM106.204 71.4224L106.1 71.3047L105.981 71.4224V74.0218H106.204V71.4077V71.4224ZM106.1 71.3096H106.204V71.4077L106.1 71.2949V71.3096ZM105.532 71.3096L105.438 71.4224L105.556 71.5254H106.1V71.3096H105.532ZM105.413 71.4224L105.556 71.3096H105.413V71.4077V71.4224ZM114.95 71.2949H118.228V71.5107H114.95L114.831 71.4077L114.95 71.2949ZM114.831 71.4077L114.95 71.2949H114.831V71.4077ZM114.831 77.6021L114.95 77.7149L115.054 77.5971V71.4077H114.831V77.6021ZM114.95 77.7149H114.836V77.5971L114.95 77.7149ZM118.356 77.7149H114.95V77.4843H118.356L118.46 77.6021L118.356 77.7149ZM118.46 77.6021L118.356 77.7149H118.46V77.6021ZM118.46 77.1116L118.356 76.9939L118.242 77.1067V77.5971H118.46V77.1067V77.1116ZM118.356 76.9988H118.46V77.1116L118.356 76.9988ZM115.508 76.9988H118.356V77.2146H115.508L115.4 77.1116L115.508 76.9988ZM115.508 77.2146L115.4 77.1116V77.2146H115.508ZM115.622 74.6397L115.508 74.5122L115.4 74.6299V77.1214H115.622V74.6397ZM115.4 74.6397V74.5269H115.508L115.4 74.6397ZM118.104 74.7476H115.508V74.5269H118.104L118.218 74.6397L118.104 74.7476ZM118.218 74.6397L118.104 74.7476H118.218V74.6397ZM118.218 74.1493L118.104 74.0316L117.985 74.1395V74.6299H118.218V74.1395V74.1493ZM118.104 74.0463H118.218V74.1493L118.104 74.0463ZM115.508 74.0463H118.104V74.267H115.508L115.4 74.1493L115.508 74.0463ZM115.508 74.267L115.4 74.1493V74.267H115.508ZM115.622 71.9178L115.508 71.805L115.4 71.908V74.1493H115.622V71.8981V71.9178ZM115.4 71.9178V71.8148H115.508L115.4 71.9178ZM118.228 72.0306H115.508V71.8148H118.228L118.341 71.9178L118.228 72.0306ZM118.341 71.9178L118.228 72.0306H118.341V71.8981V71.9178ZM118.341 71.4273L118.228 71.2998L118.114 71.4175V71.908H118.341V71.4077V71.4273ZM118.228 71.3145L118.341 71.4273V71.3145H118.228ZM126.514 77.7247H125.96V77.4942H126.529L126.632 77.607L126.514 77.7247ZM126.622 77.607L126.514 77.7247H126.622V77.607ZM126.622 71.903L126.514 71.805L126.4 71.908V77.5971H126.622V71.8981V71.903ZM126.4 71.903V71.8001H126.514L126.4 71.903ZM130.479 72.0208H126.524V71.8001H130.479L130.592 71.903L130.479 72.0208ZM130.479 71.8001L130.592 71.908V71.8001H130.479ZM130.375 77.607L130.479 77.7247L130.592 77.607V71.8981H130.375V77.5971V77.607ZM130.479 77.7247H130.375V77.607L130.479 77.7247ZM131.042 77.7247H130.479V77.4942H131.042L131.151 77.607L131.042 77.7247ZM131.151 77.607L131.042 77.7247H131.151V77.607ZM131.151 71.4175L131.042 71.2998L130.929 71.4175V77.5971H131.151V71.4077V71.4175ZM131.042 71.2998H131.151V71.4077L131.042 71.29V71.2998ZM125.95 71.2998H131.042V71.5156H125.95L125.826 71.4077L125.935 71.29L125.95 71.2998ZM125.826 71.4077L125.955 71.29H125.826V71.4077ZM125.826 77.5971L125.945 77.7149L126.059 77.5971V71.4077H125.826V77.5971ZM125.945 77.7149H125.826V77.5971L125.945 77.7149ZM137.247 77.2931V77.0478H137.638H137.751L137.88 77.0184L137.993 76.989L138.107 76.9498L138.221 76.8909L138.33 76.8419L138.434 76.7781L138.557 76.7045L138.651 76.6408L138.745 76.5672L138.844 76.4985L138.938 76.4152L139.022 76.3171L139.096 76.2386L139.17 76.1405L139.244 76.0375L139.314 75.9345L139.368 75.8315L139.432 75.7236L139.482 75.6108L139.536 75.4931L139.576 75.3803L139.61 75.2675L139.64 75.14L139.674 75.0174V74.473H139.902V74.8899V75.0223L139.872 75.1596L139.838 75.2969L139.798 75.4196L139.744 75.5471L139.694 75.6697L139.64 75.7874L139.576 75.91L139.511 76.0277L139.442 76.1307L139.358 76.2435L139.269 76.3416L139.19 76.4446L139.106 76.5378L139.002 76.6212L138.903 76.7045L138.799 76.7879L138.696 76.8615L138.577 76.935L138.463 76.9988L138.349 77.0478L138.221 77.1018L138.097 77.1557L137.969 77.1852L137.83 77.2146L137.697 77.2489H137.558H137.42H137.272L137.247 77.2931ZM134.577 74.4877H134.602V74.7722L134.627 74.9046V75.037V75.1743L134.671 75.3117L134.716 75.4343L134.76 75.5618L134.81 75.6844L134.864 75.8119L134.923 75.9247L134.997 76.0424L135.077 76.1454L135.146 76.2582L135.23 76.3563L135.314 76.4593L135.408 76.5525L135.502 76.6359L135.596 76.7192L135.714 76.8026L135.828 76.8762L135.932 76.9498L136.046 77.0135L136.174 77.0626L136.298 77.1067L136.426 77.1557L136.56 77.1852L136.683 77.2195L136.822 77.2489L136.96 77.2735H137.247V77.0528H136.866H136.743L136.614 77.0184H136.495L136.382 76.9743L136.268 76.9203L136.164 76.8664L136.055 76.8075L135.952 76.7438L135.868 76.6555L135.774 76.5819L135.675 76.5133L135.596 76.425L135.512 76.3318L135.423 76.2533L135.353 76.1552L135.279 76.0522L135.22 75.9591L135.156 75.8413L135.091 75.7384L135.042 75.6255L134.997 75.5078L134.953 75.395L134.913 75.2822L134.879 75.1547V75.0272V74.9046L134.824 74.7967V74.5368L134.577 74.4877ZM137.247 71.7461H137.099H136.95H136.812L136.673 71.7706L136.545 71.8001L136.421 71.8295L136.298 71.8834L136.169 71.9227L136.055 71.9864L135.937 72.0404L135.823 72.109L135.714 72.1826L135.615 72.2611L135.512 72.3445L135.413 72.4229L135.319 72.521L135.235 72.6093L135.151 72.7172L135.077 72.8202L135.007 72.9232L134.928 73.0409L134.869 73.1537L134.815 73.2714L134.765 73.394L134.721 73.5215L134.681 73.6441L134.637 73.7717V73.9041L134.612 74.0414V74.1787V74.4583H134.829V74.1689V74.0414V73.9188L134.854 73.7913L134.884 73.6785L134.923 73.5559L134.968 73.4382L135.012 73.3352L135.062 73.2175L135.126 73.1145L135.19 73.0115L135.25 72.9183L135.324 72.8251L135.398 72.7319L135.482 72.6387L135.566 72.5504L135.65 72.4818L135.744 72.4082L135.838 72.3297L135.932 72.2709L136.036 72.2071L136.144 72.1581L136.248 72.1041L136.362 72.0502L136.481 72.0208L136.599 71.9815L136.723 71.957H136.842H136.965H137.227V71.7412L137.247 71.7461ZM139.927 74.4877H139.887V74.0561V73.9188L139.857 73.7864L139.823 73.6589L139.783 73.5362L139.679 73.2861L139.62 73.1684L139.561 73.0556L139.496 72.9379L139.427 72.8349L139.343 72.7319L139.254 72.624L139.175 72.5357L139.076 72.4376L138.982 72.3592L138.888 72.2758L138.785 72.1973L138.666 72.1238L138.562 72.0551L138.448 72.0011L138.32 71.9374L138.186 71.8981L138.083 71.8638L137.944 71.8295L137.82 71.8001H137.682H137.544H137.262V72.0208H137.524H137.652H137.781H137.895L138.008 72.06L138.122 72.0943L138.236 72.1434L138.345 72.1973L138.448 72.2464L138.552 72.3101L138.681 72.3886L138.775 72.4622L138.859 72.5357L138.953 72.6093L139.037 72.6927L139.111 72.7859L139.175 72.879L139.249 72.9722L139.318 73.0703L139.383 73.1733L139.437 73.2714L139.492 73.394L139.541 73.497L139.581 73.6098L139.615 73.7324L139.645 73.8452L139.679 73.9727L139.704 74.1003V74.4877H139.927ZM137.247 71.4666V71.5009H137.707H137.87L138.018 71.5352L138.152 71.5745L138.3 71.6284L138.434 71.6823L138.562 71.7412L138.7 71.805L138.824 71.8785L138.943 71.9619L139.066 72.0502L139.17 72.1287L139.289 72.2267L139.388 72.3297L139.482 72.4327L139.581 72.5406L139.665 72.6534L139.744 72.781L139.828 72.8938L139.907 73.0213L139.966 73.1537L140.03 73.291L140.085 73.4283L140.124 73.5657L140.169 73.7079L140.199 73.855V74.0071L140.223 74.1542V74.4681H140.446V74.2866L140.421 74.115V73.9482L140.391 73.7962L140.347 73.6392L140.307 73.4823L140.268 73.3352L140.203 73.188L140.139 73.0458L140.065 72.9085L139.991 72.7613L139.907 72.6387L139.823 72.5112L139.719 72.3837L139.625 72.2709L139.516 72.1581L139.403 72.0502L139.289 71.9472L139.16 71.854L139.037 71.7608L138.908 71.6774L138.775 71.5941L138.636 71.5303L138.493 71.4567L138.34 71.4028L138.191 71.3537L138.038 71.3145L137.88 71.2704H137.722H137.553H137.217V71.4911L137.247 71.4666ZM134.231 74.473H133.999V74.1395L134.024 73.9727V73.8158L134.068 73.6589L134.108 73.5068L134.157 73.3597L134.216 73.2125L134.281 73.0703L134.35 72.933L134.424 72.7859L134.508 72.6583L134.602 72.5357L134.726 72.3886L134.824 72.2758L134.938 72.163L135.042 72.0551L135.156 71.9521L135.284 71.854L135.408 71.7657L135.536 71.6774L135.67 71.5941L135.823 71.5352L135.957 71.4616L136.1 71.4077L136.263 71.3537L136.411 71.3145L136.565 71.2753H136.733H136.891H137.232V71.4911H136.767L136.619 71.5156L136.471 71.545L136.322 71.5892L136.051 71.6922L135.912 71.7559L135.789 71.8148L135.66 71.8883L135.536 71.9717L135.423 72.06L135.304 72.1385L135.2 72.2366L135.096 72.3395L134.988 72.4425L134.894 72.5455L134.815 72.6632L134.726 72.7859L134.651 72.9036L134.577 73.0262L134.503 73.1635L134.454 73.2959L134.35 73.5706L134.31 73.7128L134.276 73.8599V74.0169V74.164V74.4975L134.231 74.473ZM137.237 77.5481H137.069H136.911H136.762L136.614 77.5138L136.471 77.4843L136.322 77.4451L136.214 77.3961L136.075 77.3421L135.942 77.2784L135.813 77.2048L135.69 77.1361L135.561 77.0528L135.447 76.9645L135.334 76.8762L135.23 76.7781L135.121 76.6751L135.017 76.5672L134.918 76.4544L134.839 76.3416L134.735 76.2092L134.661 76.0866L134.587 75.9591L134.513 75.8217L134.409 75.552L134.355 75.4048L134.315 75.2626L134.281 75.1155V74.9585V74.8114V74.4975H134.053V74.8359V74.988L134.078 75.1596L134.117 75.3117L134.172 75.4686L134.226 75.6255L134.281 75.7727L134.345 75.9198L134.414 76.062L134.488 76.1994L134.572 76.3318L134.666 76.4593L134.765 76.5868L134.859 76.7094L134.953 76.8517L135.072 76.9596L135.185 77.0626L135.309 77.1656L135.437 77.2587L135.566 77.347L135.7 77.4255L135.848 77.4991L135.986 77.5628L136.13 77.6266L136.288 77.6756L136.436 77.7296L136.594 77.7639H136.762H136.921H137.257V77.5285L137.237 77.5481ZM140.253 74.473V74.7869L140.228 74.9291V75.0861L140.199 75.2332L140.154 75.3803L140.114 75.5226L140.05 75.6599L139.996 75.7972L139.936 75.9296L139.862 76.0571L139.773 76.1847L139.67 76.3122L139.595 76.4054L139.501 76.5182L139.407 76.6261L139.304 76.7291L139.175 76.8026L139.056 76.8958L138.943 76.9792L138.829 77.0626L138.705 77.1361L138.567 77.2097L138.438 77.2735L138.29 77.3225L138.152 77.3764L138.008 77.4206L137.86 77.45L137.712 77.4794H137.568H137.252V77.7099H137.588H137.756L137.914 77.6805L138.073 77.6462L138.226 77.5922L138.379 77.5432L138.523 77.4794L138.671 77.4157L138.804 77.3421L138.943 77.2636L139.071 77.1803L139.195 77.0822L139.323 76.9792L139.437 76.8762L139.551 76.7683L139.66 76.6555L139.758 76.5329L139.857 76.4103L139.936 76.2827L140.021 76.1454L140.1 76.013L140.174 75.8708L140.233 75.7187L140.297 75.5765L140.337 75.4196L140.376 75.2626L140.426 75.1057L140.451 74.9389V74.782V74.6152V74.4485L140.253 74.473ZM143.219 76.9988H147.525V77.2146H143.209L143.101 77.0577L143.219 76.9988ZM143.219 77.2146L143.11 77.0577L143.046 77.2146H143.219ZM145.479 72.1581V72.0747H145.266L143.13 77.0577L143.343 77.1557L145.498 72.1581H145.479ZM145.266 72.0747L145.375 71.8344L145.479 72.0747H145.266ZM147.422 77.1557L147.516 77.2048L147.619 77.0478L145.469 72.0698L145.256 72.1532L147.422 77.1557ZM147.629 77.0577L147.525 77.2146H147.694L147.629 77.0577ZM141.924 78.7644V77.1067H142.141V78.7644L142.023 78.8821L141.909 78.7644H141.924ZM142.038 78.8821L141.924 78.7644V78.8821H142.038ZM142.567 78.8821L142.68 78.7644L142.567 78.6516H142.038V78.8821H142.567ZM142.68 78.7644V78.8821H142.567L142.68 78.7644ZM142.68 77.6217V78.7644H142.463V77.5971L142.567 77.4843L142.68 77.6021V77.6217ZM142.463 77.6217L142.567 77.504H142.463V77.6217ZM148.203 77.7345L148.302 77.6217L148.198 77.504H142.567V77.7345H148.203ZM148.203 77.504H148.307V77.6217L148.203 77.504ZM148.074 78.7644V77.5971H148.297V78.7644L148.193 78.8821L148.074 78.7644ZM148.193 78.8821L148.074 78.7644V78.8821H148.193ZM148.687 78.8821L148.801 78.7644L148.687 78.6516H148.193V78.8821H148.687ZM148.806 78.7644V78.8821H148.687L148.806 78.7644ZM148.806 77.1312V78.7644H148.569V77.1067L148.682 76.9939L148.811 77.1116L148.806 77.1312ZM148.687 77.0184L148.806 77.1312V76.9988L148.687 77.0184ZM148.134 77.0184L148.025 77.1754L148.134 77.2342H148.687V76.9988L148.134 77.0184ZM148.134 77.2342H148.074L148.04 77.1754L148.148 77.2342H148.134ZM145.726 71.3587L145.627 71.2851L145.523 71.4371L148.02 77.141L148.223 77.0478L145.726 71.3587ZM145.637 71.2949H145.711V71.3587L145.622 71.2949H145.637ZM145.142 71.2949H145.637V71.5107H145.108L145.004 71.3587L145.123 71.2949H145.142ZM145.034 71.3587L145.142 71.2949H145.068L145.034 71.3587ZM142.532 77.0478L142.626 77.2048L142.735 77.141L145.231 71.4371L145.024 71.3488L142.552 77.0478H142.532ZM142.735 77.141L142.7 77.2048H142.636L142.725 77.141H142.735ZM142.038 76.9841L141.939 77.0969L142.057 77.2048H142.636V76.9841H142.038ZM141.924 77.0969V76.9841H142.038L141.924 77.0969ZM153.018 72.1532L151.738 75.0959L151.54 75.0076L152.815 72.0649H153.018V72.1532ZM152.815 72.0698H153.018L152.914 71.8295L152.815 72.0698ZM154.091 75.1057L154.2 75.1743L154.299 75.0223L153.018 72.0796L152.815 72.163L154.091 75.1057ZM154.299 75.0125L154.363 75.1694H154.2L154.299 75.0125ZM151.629 74.9536L151.555 75.0125L151.649 75.1694H154.2V74.9536H151.629ZM151.629 75.1694L151.54 75.0125L151.466 75.1694H151.629ZM150.546 77.7149H149.953V77.4843H150.546L150.655 77.6413L150.546 77.7149ZM150.655 77.6413L150.546 77.7149H150.62L150.655 77.6413ZM151.57 75.5765L151.476 75.4196L151.377 75.4931L150.467 77.5677L150.67 77.6511L151.57 75.5765ZM151.377 75.4931L151.406 75.4196H151.476L151.377 75.4931ZM154.412 75.6501H151.476V75.4196H154.412L154.516 75.4931L154.412 75.6501ZM154.412 75.4196L154.516 75.4931L154.486 75.4196H154.412ZM155.208 77.6511L155.317 77.7247L155.421 77.5677L154.501 75.4931L154.289 75.5765L155.193 77.6511H155.208ZM155.317 77.7247H155.253L155.218 77.6511L155.317 77.7247ZM155.915 77.7247H155.317V77.4942H155.915L156.009 77.5677L155.915 77.7247ZM156.009 77.5677L155.915 77.7247H156.078L156.009 77.5677ZM153.295 71.3636L155.985 77.5579L155.782 77.6413L153.063 71.4469L153.166 71.29L153.285 71.3636H153.295ZM153.191 71.3047L153.295 71.3636L153.265 71.3047H153.191ZM152.697 71.3047L152.588 71.3636L152.697 71.5205H153.191V71.3047H152.697ZM152.588 71.3636L152.623 71.3047H152.697L152.588 71.3636ZM149.869 77.5677L149.978 77.7247L150.081 77.6511L152.791 71.4567L152.588 71.3636L149.869 77.5677ZM149.978 77.7247L149.869 77.5677L149.805 77.7247H149.978ZM161.186 73.1978H160.968V72.879V72.8153V72.7613V72.7123L160.943 72.6632V72.6093V72.5602L160.914 72.5014L160.879 72.4622L160.849 72.4229L160.815 72.3788L160.775 72.3395L160.731 72.3052L160.691 72.2611H160.647L160.597 72.2267L160.543 72.1973H160.488L160.424 72.1679H160.365H160.301H159.757V71.9521H160.207H160.291H160.365H160.439L160.513 71.9864L160.587 72.0159L160.647 72.0502H160.711L160.775 72.0943L160.825 72.1385L160.879 72.1777L160.928 72.2218L160.973 72.2709L161.027 72.3248L161.057 72.3739L161.101 72.4278L161.131 72.4916L161.166 72.5504L161.195 72.6044V72.678V72.7417L161.22 72.8006V72.8741V73.2273L161.186 73.1978ZM159.633 74.6054V74.3896H160.128H160.192H160.266H160.32H160.38L160.434 74.3602H160.488L160.538 74.3308L160.582 74.2964L160.622 74.2572L160.666 74.2229L160.706 74.1836L160.741 74.1395L160.77 74.1003L160.805 74.0561L160.835 74.0071V73.9629V73.909L160.859 73.8599V73.7962V73.7471V73.6834V73.345H161.121V73.7226L161.097 73.7962V73.8599L161.072 73.9188L161.042 73.9825L161.013 74.0463L160.983 74.0954L160.938 74.1493L160.909 74.2131L160.854 74.2572L160.81 74.3062L160.76 74.3455L160.706 74.3994L160.657 74.4338L160.592 74.473L160.528 74.5073H160.399L160.325 74.5417H160.251H160.177H160.103H160.019H159.569V74.576L159.633 74.6054ZM158.793 74.3896L158.684 74.5024L158.793 74.6054H159.633V74.3896H158.793ZM158.793 74.6054H158.684V74.5024L158.793 74.6054ZM158.906 71.8932V74.5024H158.684V71.8981L158.793 71.7952L158.906 71.8932ZM158.684 71.8932L158.793 71.7902H158.684V71.8981V71.8932ZM159.633 72.0109V71.7902H158.793V72.0109H159.633ZM161.522 73.1978V73.6589L161.497 73.7422V73.8256L161.467 73.8992L161.433 73.9727L161.403 74.0463L161.359 74.1199L161.319 74.1934L161.279 74.2523L161.235 74.3161L161.181 74.37L161.116 74.4289L161.067 74.4828L161.003 74.522L160.938 74.576L160.869 74.6201L160.79 74.6594L160.721 74.7035L160.637 74.7329L160.553 74.7673L160.434 74.8408H160.35H160.246L160.147 74.8654H159.697V75.0812H160.192H160.296H160.409L160.508 75.0517L160.612 75.0174L160.706 74.988L160.8 74.9438L160.884 74.9046L160.968 74.8555L161.052 74.8114L161.126 74.7526L161.2 74.6937L161.265 74.6348L161.324 74.5711L161.388 74.4975L161.492 74.3553L161.546 74.2768L161.591 74.1934L161.63 74.115L161.665 74.0316L161.695 73.9335V73.8403V73.7471V73.6539V73.5608V73.2469L161.522 73.1978ZM159.668 71.5058L159.796 71.5597H160.221H160.325H160.409L160.503 71.5892L160.587 71.6235L160.671 71.6529L160.746 71.6971L160.82 71.7363L160.894 71.7755L160.928 71.8981L160.993 71.9423L161.161 72.109L161.215 72.1875L161.26 72.2611L161.299 72.3248L161.344 72.3984L161.373 72.472L161.408 72.5406L161.438 72.6142V72.6976V72.781V73.2371H161.66V72.9281V72.8349L161.635 72.7368V72.6485V72.5504L161.606 72.4573L161.571 72.3739L161.532 72.2905L161.482 72.163L161.433 72.0894L161.329 71.9423L161.265 71.8687L161.2 71.805L161.136 71.7412L161.062 71.6922L160.993 71.6284L160.904 71.5892L160.825 71.5352L160.736 71.4911L160.647 71.4518L160.548 71.4175L160.444 71.3881L160.35 71.3537H160.231L160.128 71.3292H159.633V71.545L159.668 71.5058ZM158.219 71.29H159.648V71.5058H158.209L158.096 71.4077L158.209 71.29H158.219ZM158.105 71.4077L158.219 71.29H158.105V71.4077ZM158.105 77.5971L158.219 77.7149L158.323 77.5971V71.4077H158.105V77.5971ZM158.219 77.7149H158.105V77.5971L158.219 77.7149ZM158.773 77.7149H158.209V77.4843H158.763L158.882 77.5971L158.763 77.7149H158.773ZM158.892 77.5971L158.773 77.7149H158.892V77.5971ZM158.892 74.9929L158.773 74.8899L158.669 74.9929V77.5971H158.892V74.9929ZM158.669 74.9929V74.8899H158.773L158.669 74.9929ZM159.658 75.1057H158.783V74.8899H159.658V75.1057ZM164.567 71.29H165.131V71.5058H164.567L164.453 71.4077L164.567 71.29ZM164.453 71.4077L164.567 71.29H164.453V71.4077ZM164.453 77.5971L164.567 77.7149L164.681 77.5971V71.4077H164.453V77.5971ZM164.567 77.7149H164.453V77.5971L164.567 77.7149ZM165.131 77.7149H164.567V77.4843H165.131L165.24 77.5971L165.131 77.7149ZM165.24 77.5971L165.131 77.7149H165.24V77.5971ZM165.24 71.4077L165.131 71.29L165.017 71.4077V77.5971H165.24V71.4077ZM165.131 71.29L165.24 71.4077V71.29H165.131ZM166.12 74.1983L169.714 77.5089L169.561 77.6707L165.942 74.3504V74.1836L166.12 74.1983ZM165.971 74.3651V74.1983L165.882 74.2817L165.971 74.3651ZM169.496 71.4862L169.422 71.29L169.348 71.3194L165.971 74.1983L166.12 74.3651L169.496 71.4862ZM169.422 71.29H169.734L169.516 71.4862L169.422 71.29ZM168.681 71.29H169.422V71.5058H168.681L168.616 71.3194L168.681 71.29ZM168.616 71.3194L168.641 71.29H168.681L168.616 71.3194ZM165.215 74.1983L168.616 71.3194L168.755 71.4862L165.324 74.3504H165.175V74.1836L165.215 74.1983ZM165.215 74.3651L165.116 74.2817L165.225 74.1983V74.3651H165.215ZM168.804 77.6756L168.878 77.705L168.957 77.5089L165.368 74.1983L165.215 74.3651L168.804 77.6756ZM168.878 77.7099H168.839L168.804 77.6756L168.878 77.7099ZM169.62 77.7099L169.699 77.5089L169.62 77.4794H168.839V77.7099H169.62ZM169.699 77.5089L169.62 77.7099H169.907L169.699 77.5089ZM172.23 77.5971V71.4077H172.453V77.5971L172.339 77.7149L172.23 77.5971ZM172.339 77.7099L172.23 77.5971V77.7099H172.339ZM172.833 77.7099L172.918 77.6658L172.833 77.4794H172.339V77.7099H172.833ZM172.918 77.6658L172.888 77.7099H172.794L172.878 77.6658H172.918ZM176.996 72.3297L172.893 77.6658L172.715 77.5334L176.794 72.1924L176.996 72.266L176.972 72.3297H176.996ZM176.818 72.1924L177.021 72.266V71.9325L176.818 72.1924ZM176.818 77.5873L176.922 77.705L177.041 77.5873V72.266H176.818V77.5971V77.5873ZM176.922 77.7001L176.818 77.5873V77.7001H176.922ZM177.491 77.7001L177.594 77.5873L177.491 77.4696H176.922V77.7001H177.491ZM177.594 77.5873V77.7001H177.491L177.594 77.5873ZM177.594 71.393V77.5971H177.377V71.4077L177.491 71.29L177.594 71.4028V71.393ZM177.491 71.2753L177.594 71.393V71.2753H177.491ZM176.996 71.2753L176.912 71.3194L176.996 71.496H177.491V71.2753H176.996ZM176.912 71.3194L176.942 71.2753H176.996L176.912 71.3194ZM172.794 76.6261V76.6996L172.992 76.7585L177.07 71.4616L176.892 71.3292L172.794 76.6261ZM172.972 76.7585L172.774 76.6996V77.0233L172.972 76.7585ZM172.972 71.4028L172.868 71.29L172.754 71.4077V76.6996H172.972V71.4077V71.4028ZM172.868 71.2851H172.972V71.4077L172.868 71.29V71.2851ZM172.304 71.2851L172.196 71.4028L172.304 71.5058H172.868V71.2851H172.304ZM172.196 71.4028V71.2851H172.3L172.196 71.4028Z" fill="#FF3535"/>
<path fill-rule="evenodd" clip-rule="evenodd" d="M6.38049 56.0813C5.68834 57.8518 5.55485 58.3717 5.55485 58.9357C5.55485 59.7057 6.21734 59.9901 7.50276 60.2059L7.21601 61.2653C7.21601 61.2653 5.03574 61.0446 3.71076 61.0446C2.65744 61.0543 1.60571 61.128 0.561468 61.2653L0.25 60.2157C1.14366 60.0333 1.99959 59.7016 2.7813 59.2348C3.63166 58.6071 4.21504 57.6262 5.03574 55.6153L10.9042 41C11.0483 41.0212 11.1936 41.0327 11.3393 41.0343C11.5046 41.0323 11.6697 41.0208 11.8337 41L18.9579 58.0136C19.5561 59.4016 20.1148 59.8724 21.5881 60.2206L21.2716 61.28C20.1678 61.1109 19.0512 61.037 17.9345 61.0593C16.4068 61.0593 13.6876 61.28 13.6876 61.28L13.3712 60.2206C14.7456 59.9411 15.2499 59.691 15.2499 59.0485C15.2039 58.6669 15.0988 58.2947 14.9385 57.945L10.1824 46.3949L6.38049 56.0813ZM124.748 56.0813C124.066 57.8518 123.938 58.3717 123.938 58.9357C123.938 59.7057 124.59 59.9901 125.876 60.2059L125.579 61.2702C125.579 61.2702 123.389 61.0495 122.089 61.0495C121.032 61.0617 119.977 61.1354 118.929 61.2702L118.623 60.2157C119.513 60.0334 120.366 59.7017 121.144 59.2348C121.985 58.6071 122.583 57.6262 123.389 55.6153L129.287 41C129.433 41.0187 129.58 41.0302 129.727 41.0343C129.892 41.0329 130.057 41.0214 130.221 41L137.346 58.0136C137.944 59.4016 138.502 59.8724 139.976 60.2206L139.669 61.2702C138.565 61.1035 137.449 61.0297 136.332 61.0495C134.799 61.0495 132.085 61.2702 132.085 61.2702L131.759 60.2157C133.138 59.9362 133.633 59.6861 133.633 59.0387C133.582 58.6592 133.48 58.2882 133.331 57.9352L128.565 46.3949L124.748 56.0813ZM22.8389 61.2702C24.1348 61.1158 25.4393 61.0421 26.7446 61.0495C27.3543 61.0536 27.9615 61.1277 28.5541 61.2702L35.6486 48.3959H35.7129V57.7635C35.7129 59.5585 35.174 59.9999 33.6463 60.3384L33.8935 61.28C35.0386 61.1082 36.1966 61.036 37.3543 61.0642C39.6977 61.0642 41.7247 61.28 41.7247 61.28L41.9769 60.3384C39.8213 60.0098 39.1687 59.5733 39.1687 57.7635V48.8472C39.1687 47.0423 39.8213 46.6156 41.9769 46.2723L41.7247 45.3454C40.4305 45.5007 39.1275 45.5728 37.824 45.5612C37.2094 45.5567 36.5973 45.4826 35.9996 45.3405L28.9694 58.2147H28.8804V48.8472C28.8804 47.0423 29.3995 46.6156 30.937 46.2723L30.6849 45.3454C29.5403 45.5214 28.3821 45.5952 27.2241 45.5661C24.8807 45.5661 22.8488 45.3454 22.8488 45.3454L22.5966 46.2723C24.7522 46.6156 25.4147 47.0472 25.4147 48.8472V57.7635C25.4147 59.5585 24.7522 59.9999 22.5966 60.3384L22.8438 61.2702H22.8389ZM47.8651 57.7635C47.8651 59.5585 47.2125 59.9999 45.0471 60.3384L45.2992 61.28C45.2992 61.28 47.3262 61.0642 49.6696 61.0642C50.8274 61.036 51.9854 61.1082 53.1304 61.28L53.3825 60.3384C51.8499 60.0098 51.3209 59.5733 51.3209 57.7635V53.6045H57.9161V57.7635C57.9161 59.5585 57.3871 59.9999 55.8496 60.3384L56.1067 61.28C57.2517 61.1082 58.4097 61.036 59.5674 61.0642C61.9059 61.0642 63.9379 61.28 63.9379 61.28L64.19 60.3384C62.0246 60.0098 61.372 59.5733 61.372 57.7635V48.8472C61.372 47.0423 62.0246 46.6156 64.19 46.2723L63.9379 45.3454C63.9379 45.3454 61.9059 45.5661 59.5674 45.5661C58.4095 45.5951 57.2513 45.5212 56.1067 45.3454L55.8595 46.2674C57.3921 46.6156 57.9211 47.0423 57.9211 48.8423V52.4912H51.3308V48.8472C51.3308 47.0423 51.8598 46.6156 53.3924 46.2723L53.1502 45.3405C52.0055 45.5163 50.8473 45.5902 49.6894 45.5612C47.346 45.5612 45.319 45.3405 45.319 45.3405L45.0668 46.2674C47.2323 46.6107 47.8849 47.0423 47.8849 48.8423V57.7635H47.8651ZM67.5173 61.2702C68.8099 61.1158 70.1111 61.042 71.4131 61.0495C72.026 61.0543 72.6364 61.1283 73.2325 61.2702L80.3419 48.3959H80.4012V57.7635C80.4012 59.5585 79.9068 59.9999 78.3445 60.3384L78.5966 61.28C79.7417 61.108 80.8997 61.0358 82.0574 61.0642C84.4058 61.0642 86.4328 61.28 86.4328 61.28L86.6849 60.3384C84.5294 60.0098 83.8669 59.5733 83.8669 57.7635V48.8472C83.8669 47.0423 84.5294 46.6156 86.6849 46.2723L86.4328 45.3454C85.1354 45.5024 83.8291 45.5761 82.5221 45.5661C81.9125 45.5613 81.3053 45.4872 80.7127 45.3454L73.6329 58.2147H73.539V48.8472C73.539 47.0423 74.0729 46.6156 75.6006 46.2723L75.3534 45.3454C74.2088 45.5215 73.0506 45.5954 71.8927 45.5661C69.5492 45.5661 67.5222 45.3454 67.5222 45.3454L67.2701 46.2723C69.4256 46.6156 70.0733 47.0472 70.0733 48.8472V57.7635C70.0733 59.5585 69.4256 59.9999 67.2701 60.3384L67.5222 61.2702H67.5173ZM89.9727 61.2702C91.267 61.1159 92.5698 61.0422 93.8734 61.0495C94.4864 61.054 95.0968 61.128 95.6928 61.2702L102.792 48.3959H102.842V57.7635C102.842 59.5585 102.313 59.9999 100.78 60.3384L101.032 61.28C102.177 61.1082 103.335 61.036 104.493 61.0642C106.836 61.0642 108.863 61.28 108.863 61.28L109.116 60.3384C106.96 60.0098 106.298 59.5733 106.298 57.7635V48.8472C106.298 47.0423 106.96 46.6156 109.116 46.2723L108.883 45.3405C107.589 45.4973 106.286 45.5711 104.982 45.5612C104.37 45.5564 103.759 45.4823 103.163 45.3405L96.113 58.2098H96.0191V48.8472C96.0191 47.0423 96.553 46.6156 98.0906 46.2723L97.8385 45.3454C96.6938 45.5212 95.5356 45.5951 94.3777 45.5661C92.0293 45.5661 90.0023 45.3454 90.0023 45.3454L89.7353 46.2674C91.8909 46.6107 92.5534 47.0423 92.5534 48.8423V57.7635C92.5534 59.5585 91.8909 59.9999 89.7353 60.3384L89.9677 61.2702H89.9727ZM153.591 52.707C153.591 48.342 155.119 46.2625 157.715 46.2625C160.987 46.2625 161.863 50.2597 161.863 53.8546C161.863 58.1951 160.335 60.3285 157.739 60.3285C154.466 60.3285 153.591 56.3069 153.591 52.707ZM140.964 46.2625C143.12 46.6107 143.773 47.0374 143.773 48.8374V57.7635C143.773 59.5585 143.12 59.9999 140.964 60.3384L141.222 61.28C141.222 61.28 143.249 61.0642 145.592 61.0642C146.75 61.036 147.908 61.1082 149.053 61.28L149.305 60.3384C147.767 60.0098 147.233 59.5733 147.233 57.7635V53.6045H149.958C150.145 58.0185 153.359 61.4517 157.705 61.4517C162.199 61.4517 165.491 57.8322 165.491 53.2465C165.491 48.6608 162.243 45.1541 157.705 45.1541C153.453 45.1541 150.333 48.3469 149.987 52.5108H147.233V48.8472C147.233 47.0423 147.767 46.6156 149.29 46.2723L149.063 45.3405C147.918 45.5163 146.76 45.5902 145.602 45.5612C143.258 45.5612 141.231 45.3405 141.231 45.3405L140.974 46.2625H140.964ZM168.433 61.2702C168.433 61.2702 170.46 61.0495 172.803 61.0495C174.613 61.0495 175.275 61.2702 176.828 61.2702C179.423 61.2702 182.929 60.5345 182.929 56.6159C182.929 52.6972 178.85 52.2018 176.798 52.2018C176.403 52.2018 175.809 52.2018 175.424 52.2362L175.483 53.217H175.76C178.514 53.217 179.221 54.8257 179.221 56.9935C179.221 58.7346 178.316 60.1618 176.319 60.1618C175.162 60.1618 174.465 59.6321 174.465 57.7782V46.6107H176.966C179.473 46.6107 180.561 47.4739 181.119 49.6711L182.192 49.4553L181.653 45.3356C181.653 45.3356 175.191 45.5563 172.813 45.5563C170.435 45.5563 168.443 45.3356 168.443 45.3356L168.191 46.2625C170.346 46.6107 170.999 47.0374 170.999 48.8374V57.7635C170.999 59.5585 170.346 59.9999 168.191 60.3384L168.448 61.2702H168.433ZM192.421 46.6107H193.365C195.392 46.6107 196.673 47.3807 196.673 49.5191C196.673 51.6574 195.56 52.4912 193.395 52.4912V53.5064H193.667C196.426 53.5064 197.197 54.8306 197.197 56.9984C197.197 58.7395 196.262 60.1667 194.27 60.1667C193.113 60.1667 192.416 59.637 192.416 57.7831V46.6107H192.421ZM188.96 57.7635C188.96 59.5585 188.293 59.9999 186.142 60.3384L186.394 61.28C186.394 61.28 188.426 61.0642 190.77 61.0642C192.574 61.0642 193.242 61.28 194.794 61.28C197.39 61.28 200.92 60.5443 200.92 56.6306C200.92 54.4922 199.11 53.1974 196.579 52.8786V52.8149C199.081 52.4716 200.267 50.9267 200.267 49.1365C200.267 46.8461 198.734 45.3601 194.646 45.3601C193.459 45.3601 192.268 45.5514 190.77 45.5808C189.308 45.6153 187.845 45.5415 186.394 45.3601L186.142 46.287C188.293 46.6352 188.96 47.0619 188.96 48.8668V57.7635ZM204.356 61.2702C205.653 61.1159 206.959 61.0422 208.266 61.0495C208.876 61.0543 209.483 61.1283 210.076 61.2702L217.17 48.3959H217.235V57.7635C217.235 59.5585 216.696 59.9999 215.163 60.3384L215.415 61.28C216.56 61.1079 217.718 61.0357 218.876 61.0642C221.219 61.0642 223.251 61.28 223.251 61.28L223.504 60.3384C221.348 60.0098 220.7 59.5733 220.7 57.7635V48.8472C220.7 47.0423 221.348 46.6156 223.504 46.2723L223.251 45.3454C221.957 45.5022 220.654 45.576 219.351 45.5661C218.738 45.5613 218.127 45.4873 217.531 45.3454L210.491 58.2147H210.397V48.8472C210.397 47.0423 210.926 46.6156 212.459 46.2723L212.202 45.3454C211.057 45.5215 209.899 45.5954 208.741 45.5661C206.398 45.5661 204.371 45.3454 204.371 45.3454L204.118 46.2723C206.274 46.6156 206.931 47.0472 206.931 48.8472V57.7635C206.931 59.5585 206.274 59.9999 204.118 60.3384L204.356 61.2702Z" fill="#FF3535"/>
</g>
<defs>
<clipPath id="clip0_110_1604">
<rect width="223" height="120" fill="white" transform="translate(0.25)"/>
</clipPath>
</defs>
</svg>
