<svg width="176" height="120" viewBox="0 0 176 120" fill="none" xmlns="http://www.w3.org/2000/svg">
<g clip-path="url(#clip0_110_1532)">
<path d="M134.159 75.3354C137.344 75.3354 139.884 74.8276 142.362 73.7172V69.1253C142.362 69.035 142.266 68.979 142.183 69.022C139.617 70.3519 137.27 70.9285 134.159 70.9285C130.393 70.9285 128.464 69.1511 128.464 65.7255C128.464 62.3 130.396 60.5226 134.159 60.5226C137.275 60.5226 139.617 61.0992 142.183 62.4291C142.266 62.4721 142.362 62.4161 142.362 62.3258V57.7338C139.884 56.6235 137.344 56.1157 134.159 56.1157C127.337 56.1157 123.414 59.6059 123.414 65.7298C123.414 71.8538 127.337 75.344 134.159 75.344V75.3354Z" fill="#FF5500"/>
<path d="M121.123 66.0353C121.123 59.1497 116.847 56.1372 110.698 56.1372C104.007 56.1372 99.9531 59.7522 99.9531 65.6567C99.9531 72.9254 104.522 75.3354 111.151 75.3354C115.175 75.3354 118.361 74.6985 120.547 73.8463V69.4438C120.547 69.3534 120.451 69.2975 120.373 69.3362C118.788 70.1152 115.183 71.0533 111.217 71.0533C107.734 71.0533 105.539 69.9387 105.051 67.2146H120.861C120.961 67.2146 121.044 67.1414 121.062 67.0467C121.11 66.7153 121.132 66.3667 121.132 66.0397L121.123 66.0353ZM110.698 60.26C113.814 60.26 115.533 61.6371 116.17 63.6555H105.138C105.679 61.478 107.359 60.26 110.693 60.26" fill="#FF5500"/>
<path d="M88.5243 56.1028C85.1648 56.1028 82.8735 57.3981 81.4465 59.3175C81.4116 59.3649 81.333 59.3434 81.333 59.2831L81.2544 56.6106H76.4629V81.201H81.3853V72.2067C81.3853 72.1464 81.4595 72.1206 81.4988 72.1722C82.9258 74.0614 85.204 75.3353 88.5288 75.3353C94.224 75.3353 97.7632 71.3071 97.7632 65.7212C97.7632 60.1352 94.224 56.107 88.5288 56.107M87.0496 70.9241C83.7332 70.9241 81.3853 68.8628 81.3853 65.7212C81.3853 62.5796 83.7332 60.5182 87.0496 60.5182C90.619 60.5182 92.583 62.515 92.583 65.7212C92.583 68.9273 90.619 70.9241 87.0496 70.9241Z" fill="#FF5500"/>
<path d="M60.7879 74.8576H65.7105V61.026H73.9452V56.6148H52.5488V61.026H60.7879V74.8576Z" fill="#0A1E78"/>
<path d="M34.7167 66.724V56.6106H29.7637V75.1504C29.7637 75.4128 30.0648 75.5635 30.2786 75.4086L45.1421 64.7272V74.8577H50.0952V56.3181C50.0952 56.0555 49.7941 55.9049 49.5803 56.0598L34.7167 66.7197V66.724Z" fill="#0A1E78"/>
<path d="M2.88271 75.0772C1.50807 75.0772 0.5 75.0169 0.5 75.0169V70.6317H1.2986C2.22812 70.6317 2.93071 70.4121 3.39329 69.9732C3.86023 69.5342 4.20496 68.8198 4.42751 67.8257C4.65014 66.8359 4.82465 65.3469 4.95122 63.3629C5.03412 61.9643 5.12138 59.7222 5.20428 56.6322C5.22616 55.6725 5.25666 54.4589 5.30034 53H25.1562V74.8577H19.6925V57.196H10.4105C10.3887 57.4886 10.3363 58.6463 10.2534 60.6732C10.2097 62.0934 10.1705 62.9929 10.1268 63.3672C9.93479 66.3969 9.63806 68.7122 9.23656 70.3175C8.83515 71.927 8.14564 73.1191 7.17248 73.9023C6.19932 74.6856 4.7679 75.0772 2.88707 75.0772H2.88271Z" fill="#0A1E78"/>
<path d="M153.46 56.5977C153.32 56.5977 153.281 56.6837 153.381 56.7784C153.922 57.3164 154.263 58.0566 154.263 58.8742C154.263 59.6919 153.927 60.4322 153.386 60.9658C153.281 61.0691 153.316 61.1508 153.512 61.1508H165.142C165.801 60.6086 166.224 59.7866 166.224 58.8699C166.224 57.9533 165.801 57.1356 165.142 56.5891H153.464L153.46 56.5977Z" fill="#0A1E78"/>
<path d="M153.46 63.4491C153.32 63.4491 153.281 63.5352 153.381 63.6299C153.922 64.1678 154.263 64.908 154.263 65.7257C154.263 66.5434 153.927 67.2836 153.386 67.8172C153.281 67.9205 153.316 68.0023 153.512 68.0023H160.608C161.267 67.46 161.69 66.6381 161.69 65.7214C161.69 64.8047 161.267 63.9871 160.608 63.4405H153.464L153.46 63.4491Z" fill="#0A1E78"/>
<path d="M153.461 70.3002C153.312 70.3002 153.277 70.3819 153.386 70.4852C153.928 71.0232 154.263 71.759 154.263 72.581C154.263 73.4031 153.928 74.1389 153.386 74.6726C153.281 74.7758 153.317 74.8576 153.512 74.8576H156.078C156.738 74.3154 157.161 73.4934 157.161 72.5768C157.161 71.6601 156.738 70.8424 156.078 70.2958H153.464L153.461 70.3002Z" fill="#0A1E78"/>
<path d="M174.503 56.5979H171.383C172.042 57.1445 172.465 57.9578 172.465 58.8788C172.465 59.7998 172.042 60.6131 171.383 61.1597H174.503C175.162 60.6174 175.586 59.7998 175.586 58.8788C175.586 57.9578 175.162 57.1445 174.503 56.5979Z" fill="#FF5500"/>
<path d="M171.378 56.5978H168.258C168.917 57.1444 169.34 57.9577 169.34 58.8788C169.34 59.7997 168.917 60.6131 168.258 61.1596H171.378C172.037 60.6174 172.461 59.7997 172.461 58.8788C172.461 57.9577 172.037 57.1444 171.378 56.5978Z" fill="#6262D9"/>
<path d="M174.502 63.4491H166.849C167.508 63.9957 167.93 64.809 167.93 65.7299C167.93 66.6509 167.508 67.4643 166.849 68.0109H174.502C175.162 67.4686 175.585 66.6509 175.585 65.7299C175.585 64.809 175.162 63.9957 174.502 63.4491Z" fill="#FF5500"/>
<path d="M166.849 63.4491H163.729C164.388 63.9957 164.81 64.809 164.81 65.7299C164.81 66.6509 164.388 67.4643 163.729 68.0109H166.849C167.507 67.4686 167.93 66.6509 167.93 65.7299C167.93 64.809 167.507 63.9957 166.849 63.4491Z" fill="#6262D9"/>
<path d="M168.259 56.5978H165.139C165.797 57.1444 166.22 57.9577 166.22 58.8788C166.22 59.7997 165.797 60.6131 165.139 61.1596H168.259C168.917 60.6174 169.34 59.7997 169.34 58.8788C169.34 57.9577 168.917 57.1444 168.259 56.5978Z" fill="#3D3DC7"/>
<path d="M163.724 63.4491H160.604C161.263 63.9957 161.686 64.809 161.686 65.7299C161.686 66.6509 161.263 67.4643 160.604 68.0109H163.724C164.383 67.4686 164.806 66.6509 164.806 65.7299C164.806 64.809 164.383 63.9957 163.724 63.4491Z" fill="#3D3DC7"/>
<path d="M174.502 70.3H162.318C162.977 70.8466 163.4 71.66 163.4 72.5809C163.4 73.5019 162.977 74.3153 162.318 74.8618H174.502C175.161 74.3196 175.585 73.5019 175.585 72.5809C175.585 71.66 175.161 70.8466 174.502 70.3Z" fill="#FF5500"/>
<path d="M162.315 70.3001H159.194C159.853 70.8467 160.277 71.66 160.277 72.581C160.277 73.502 159.853 74.3153 159.194 74.8619H162.315C162.974 74.3196 163.397 73.502 163.397 72.581C163.397 71.66 162.974 70.8467 162.315 70.3001Z" fill="#6262D9"/>
<path d="M159.194 70.3H156.074C156.733 70.8466 157.157 71.66 157.157 72.5809C157.157 73.5019 156.733 74.3153 156.074 74.8618H159.194C159.854 74.3196 160.277 73.5019 160.277 72.5809C160.277 71.66 159.854 70.8466 159.194 70.3Z" fill="#3D3DC7"/>
</g>
<defs>
<clipPath id="clip0_110_1532">
<rect width="175" height="120" fill="white" transform="translate(0.5)"/>
</clipPath>
</defs>
</svg>
