<svg width="110" height="43" viewBox="0 0 110 43" fill="none" xmlns="http://www.w3.org/2000/svg">
<path d="M10.0624 12.7702C7.09004 12.7702 5.60386 13.7243 5.60386 15.6324C5.60386 16.4804 5.97199 17.1297 6.70827 17.5802C7.44454 18.0307 9.16933 18.68 11.8826 19.5281C14.5959 20.3761 16.498 21.3368 17.5887 22.4101C18.6795 23.4834 19.2249 25.1331 19.2249 27.3592C19.2249 30.1948 18.3387 32.3414 16.5661 33.799C14.7936 35.2566 12.4757 35.9853 9.61246 35.9853C7.48544 35.9853 4.88122 35.6673 1.79978 35.0313L0.327233 34.753L0.899889 30.4996C4.55399 30.9766 7.3491 31.2151 9.28522 31.2151C12.1758 31.2151 13.6211 30.0491 13.6211 27.7169C13.6211 26.8689 13.287 26.2064 12.6189 25.7294C11.9508 25.2523 10.6214 24.7356 8.63076 24.179C5.46751 23.3045 3.23824 22.2643 1.94294 21.0585C0.647648 19.8527 0 18.1765 0 16.0299C0 13.3268 0.845351 11.3127 2.53605 9.9876C4.22675 8.66253 6.54465 8 9.48974 8C11.5077 8 14.071 8.26501 17.1797 8.79504L18.6523 9.0733L18.2023 13.4063C14.3573 12.9822 11.644 12.7702 10.0624 12.7702Z" fill="#FE0002"/>
<path d="M29.988 35.9722C33.3694 35.9722 35.7828 35.0645 37.228 33.2492C38.6733 31.4339 39.3959 28.8831 39.3959 25.597C39.3959 18.6271 36.26 15.1422 29.988 15.1422C23.7161 15.1422 20.5801 18.6271 20.5801 25.597C20.5801 28.8831 21.3027 31.4339 22.748 33.2492C24.1933 35.0645 26.6066 35.9722 29.988 35.9722ZM29.988 19.6739C31.4333 19.6739 32.4354 20.151 32.9945 21.105C33.5535 22.059 33.833 23.5564 33.833 25.597C33.833 27.6376 33.5535 29.1216 32.9945 30.0492C32.4354 30.9767 31.4333 31.4405 29.988 31.4405C28.5427 31.4405 27.5406 30.9767 26.9816 30.0492C26.4225 29.1216 26.143 27.6376 26.143 25.597C26.143 23.5564 26.4225 22.059 26.9816 21.105C27.5406 20.151 28.5427 19.6739 29.988 19.6739Z" fill="#FE0002"/>
<path d="M41.528 30.5481C44.9094 30.9721 47.275 31.1841 48.6249 31.1841C49.9747 31.1841 50.8473 31.0649 51.2427 30.8264C51.6381 30.5879 51.8358 30.2102 51.8358 29.6934C51.8358 29.1767 51.5699 28.8189 51.0382 28.6201C50.5064 28.4214 49.143 28.1299 46.9478 27.7456C44.7526 27.3613 43.1914 26.7319 42.2643 25.8574C41.3371 24.9828 40.8735 23.565 40.8735 21.6039C40.8735 17.3107 43.6141 15.1641 49.0953 15.1641C50.895 15.1641 53.0766 15.4026 55.6399 15.8797L56.9488 16.1182L56.7852 20.5704C53.4038 20.1464 51.0518 19.9344 49.7293 19.9344C48.4067 19.9344 47.5068 20.0602 47.0296 20.312C46.5524 20.5638 46.3138 20.9414 46.3138 21.4449C46.3138 21.9484 46.566 22.3195 47.0705 22.558C47.575 22.7965 48.8839 23.088 50.9973 23.4325C53.1107 23.777 54.6855 24.3601 55.7217 25.1816C56.7579 26.0031 57.2761 27.4673 57.2761 29.5742C57.2761 31.681 56.5398 33.2711 55.0672 34.3444C53.5947 35.4177 51.6995 35.9544 49.3816 35.9544C47.7727 35.9544 45.5775 35.7026 42.796 35.1991L41.4462 34.9606L41.528 30.5481Z" fill="#FE0002"/>
<path d="M71.3715 20.1788H66.3403V28.3279C66.3403 29.1229 66.3607 29.6861 66.4016 30.0174C66.4425 30.3486 66.5925 30.6335 66.8516 30.872C67.1106 31.1105 67.5129 31.2298 68.0583 31.2298L71.167 31.1503L71.4124 35.4037C69.5853 35.8013 68.1946 36 67.2402 36C64.7859 36 63.1089 35.4634 62.209 34.3901C61.3091 33.3168 60.8591 31.3358 60.8591 28.4472V20.1788H58.4458V15.647H60.8591V10.1215H66.3403V15.647H71.3715V20.1788Z" fill="#FE0002"/>
<path d="M89.6274 21.8337V30.1021C89.682 30.7381 89.791 31.182 89.9547 31.4337C90.1183 31.6855 90.4591 31.8644 90.9773 31.9704L90.8136 35.9853C89.4229 35.9853 88.3117 35.8926 87.48 35.7071C86.6482 35.5216 85.8097 35.1505 84.9644 34.594C83.001 35.5216 80.9967 35.9853 78.9515 35.9853C74.7247 35.9853 72.6113 33.8122 72.6113 29.466C72.6113 27.3459 73.1976 25.842 74.3702 24.9542C75.5428 24.0664 77.3426 23.543 79.7695 23.384L84.1463 23.066V21.8337C84.1463 21.0121 83.9554 20.449 83.5736 20.1442C83.1918 19.8394 82.5783 19.6871 81.7329 19.6871L74.043 20.0051L73.8794 16.3081C76.7972 15.5396 79.5718 15.1553 82.2033 15.1553C84.8348 15.1553 86.73 15.6854 87.889 16.7454C89.0479 17.8055 89.6274 19.5015 89.6274 21.8337ZM80.424 27.0809C78.8969 27.2134 78.1334 28.0085 78.1334 29.466C78.1334 30.9236 78.8015 31.6524 80.1377 31.6524C81.1739 31.6524 82.3056 31.4934 83.5327 31.1754L84.1463 31.0163V26.7629L80.424 27.0809Z" fill="#FE0002"/>
<path d="M109.862 16.1111H104.135L100.863 31.4553H99.7176L96.2817 16.1111H90.7188L95.6272 35.987H104.953L109.862 16.1111Z" fill="#FE0002"/>
</svg>
