<svg width="105" height="37" viewBox="0 0 105 37" fill="none" xmlns="http://www.w3.org/2000/svg">
<g clip-path="url(#clip0_203_164)">
<path fill-rule="evenodd" clip-rule="evenodd" d="M40.3456 0.848236V9.11334H48.8051V36.6645H57.2671V9.11334H65.7266V0.848236H40.3456ZM28.1129 22.8902C27.3104 24.54 26.0464 25.9333 24.4676 26.9084C22.8888 27.8836 21.0599 28.4005 19.193 28.3994C13.7406 28.3994 9.32186 24.0819 9.32186 18.7564C9.32186 13.4309 13.7406 9.11334 19.193 9.11334C21.06 9.11231 22.889 9.62948 24.4679 10.6048C26.0467 11.5802 27.3106 12.9738 28.1129 14.6238H37.0328C35.1227 6.72617 27.8605 0.848236 19.193 0.848236C9.06694 0.848236 0.861084 8.8663 0.861084 18.7564C0.861084 28.6464 9.06694 36.6645 19.193 36.6645C27.8605 36.6645 35.1227 30.7866 37.0328 22.8889L28.1129 22.8902ZM95.8004 22.8902C94.9979 24.54 93.7339 25.9333 92.1551 26.9084C90.5763 27.8836 88.7474 28.4005 86.8805 28.3994C81.4281 28.3994 77.0094 24.0819 77.0094 18.7564C77.0094 13.4309 81.4281 9.11334 86.8805 9.11334C88.7475 9.11231 90.5765 9.62948 92.1554 10.6048C93.7342 11.5802 94.9981 12.9738 95.8004 14.6238H104.72C102.81 6.72617 95.548 0.848236 86.8805 0.848236C76.7557 0.848236 68.5486 8.8663 68.5486 18.7564C68.5486 28.6464 76.7545 36.6645 86.8805 36.6645C95.548 36.6645 102.81 30.7866 104.72 22.8889L95.8004 22.8902Z" fill="white"/>
</g>
<defs>
<clipPath id="clip0_203_164">
<rect width="104" height="36" fill="white" transform="translate(0.835938 0.756592)"/>
</clipPath>
</defs>
</svg>
