<svg width="158" height="50" viewBox="0 0 158 50" fill="none" xmlns="http://www.w3.org/2000/svg">
<path d="M42.296 15.0927C37.6234 15.0927 33.3935 16.8057 30.2456 19.5835C27.0978 16.8057 22.8678 15.0927 18.1952 15.0927C8.50574 15.0927 0.586914 22.5001 0.586914 31.6668V44.0742C0.586914 46.9909 3.09536 49.3057 6.14485 49.3057C9.19433 49.3057 11.7028 46.9909 11.7028 44.0742V31.6668C11.7028 28.2872 14.6047 25.5557 18.1952 25.5557C21.7858 25.5557 24.6877 28.2872 24.6877 31.6668V44.0742C24.6877 46.9909 27.1961 49.3057 30.2456 49.3057C33.2951 49.3057 35.8036 46.9909 35.8036 44.0742V31.6668C35.8036 28.2872 38.7055 25.5557 42.296 25.5557C45.8866 25.5557 48.7885 28.2872 48.7885 31.6668V44.0742C48.7885 46.9909 51.2969 49.3057 54.3464 49.3057C57.3959 49.3057 59.9044 46.9909 59.9044 44.0742V31.6668C59.8552 22.5001 51.9855 15.0927 42.296 15.0927ZM81.6443 15.0927C71.6105 15.0927 63.4949 22.7316 63.4949 32.1761C63.4949 41.6205 71.6597 49.2594 81.6443 49.2594C91.6781 49.2594 99.7936 41.5742 99.7936 32.1761C99.7936 22.7316 91.6781 15.0927 81.6443 15.0927ZM81.6443 38.8427C77.7586 38.8427 74.6108 35.8335 74.6108 32.1761C74.6108 28.5187 77.7586 25.5094 81.6443 25.5094C85.5299 25.5094 88.7269 28.5187 88.7269 32.1761C88.6778 35.8335 85.5299 38.8427 81.6443 38.8427ZM134.223 0.69458C131.174 0.69458 128.665 3.05569 128.665 5.92606V16.4353C126.501 15.5557 124.091 15.0927 121.583 15.0927C111.549 15.0927 103.433 22.7316 103.433 32.1761C103.433 41.6205 111.598 49.2594 121.583 49.2594C131.617 49.2594 139.781 41.5742 139.781 32.1761V5.92606C139.781 3.05569 137.273 0.69458 134.223 0.69458ZM121.583 38.8427C117.697 38.8427 114.549 35.8335 114.549 32.1761C114.549 28.5187 117.697 25.5094 121.583 25.5094C125.468 25.5094 128.665 28.5187 128.665 32.1761C128.665 35.8335 125.518 38.8427 121.583 38.8427ZM150.946 19.5835C147.897 19.5835 145.388 21.9446 145.388 24.815V44.0742C145.388 46.9909 147.897 49.3057 150.946 49.3057C153.996 49.3057 156.504 46.9909 156.504 44.0742V24.815C156.504 21.9446 153.996 19.5835 150.946 19.5835ZM150.946 14.0742C154.832 14.0742 157.98 11.1112 157.98 7.40754C157.98 3.75014 154.832 0.740879 150.946 0.740879C147.061 0.740879 143.864 3.70384 143.864 7.40754C143.913 11.065 147.061 14.0742 150.946 14.0742Z" fill="white"/>
</svg>
