<svg width="153" height="43" viewBox="0 0 153 43" fill="none" xmlns="http://www.w3.org/2000/svg">
<path d="M44.6001 7H49.9521V35.4296H44.6001V33.2291C43.7012 34.0983 42.6336 34.7905 41.4574 35.2666C40.3795 35.6934 39.2253 35.9147 38.0592 35.9183C36.7072 35.9262 35.3695 35.6537 34.1378 35.1193C32.906 34.585 31.8093 33.8016 30.9229 32.8227C29.9134 31.8017 29.1237 30.5999 28.5989 29.2861C28.0742 27.9722 27.8246 26.572 27.8645 25.1656C27.8645 21.9876 28.7988 19.382 30.753 17.3456C31.6438 16.3776 32.7432 15.6067 33.9753 15.0863C35.2074 14.566 36.5427 14.3085 37.8888 14.3317C39.1461 14.3311 40.3898 14.5807 41.5413 15.0646C42.7265 15.5614 43.7954 16.2817 44.6845 17.1827V7H44.6001ZM38.9083 19.1374C38.1265 19.1163 37.3493 19.2585 36.6304 19.5539C35.9115 19.8493 35.2682 20.2909 34.7448 20.8483C33.6431 22.0321 33.0643 23.5802 33.1309 25.1656C33.0782 26.788 33.6873 28.3661 34.8288 29.5646C35.352 30.1218 35.9952 30.5633 36.714 30.8587C37.4327 31.154 38.2097 31.2961 38.9914 31.2752C39.773 31.2961 40.5501 31.154 41.2688 30.8587C41.9875 30.5633 42.6307 30.1218 43.154 29.5646C44.2968 28.3666 44.9073 26.7885 44.8556 25.1656C44.8894 24.3735 44.7563 23.5829 44.4644 22.8411C44.1725 22.0993 43.7277 21.4216 43.1565 20.8483C42.6163 20.2896 41.9579 19.848 41.2253 19.553C40.4928 19.258 39.7029 19.1165 38.9087 19.1378" fill="#C1321A"/>
<path d="M63.0352 14.9017H68.3872V17.0197C69.3739 16.1787 70.4923 15.4915 71.7015 14.9834C72.6709 14.599 73.7109 14.4051 74.7599 14.4133C75.767 14.4055 76.7658 14.5885 77.6989 14.952C78.632 15.3155 79.481 15.8522 80.1971 16.5314C81.4712 17.7531 82.0661 19.5453 82.0661 21.9079V35.4296H76.712V26.469C76.712 24.0252 76.6281 22.3959 76.3722 21.5813C76.1847 20.8549 75.7696 20.2011 75.1828 19.7078C74.5671 19.2759 73.8219 19.0472 73.0591 19.0561C72.5411 19.0386 72.0248 19.1236 71.5425 19.3058C71.0602 19.488 70.6222 19.7634 70.2558 20.1149C69.408 20.9043 68.843 21.931 68.6418 23.0476C68.472 23.6993 68.3872 25.0841 68.3872 27.202V35.4296H63.0352V14.9017Z" fill="#C1321A"/>
<path d="M101.094 7H106.446V35.4296H101.094V33.2291C100.195 34.0979 99.1268 34.7897 97.9506 35.2654C96.8728 35.6922 95.7185 35.9135 94.5524 35.9171C93.2006 35.9251 91.8631 35.6527 90.6314 35.1186C89.3997 34.5845 88.303 33.8013 87.4165 32.8227C86.4071 31.8017 85.6174 30.5999 85.0926 29.2861C84.5678 27.9722 84.3182 26.572 84.3581 25.1656C84.3581 21.9876 85.2924 19.382 87.2466 17.3456C88.1374 16.3776 89.2369 15.6067 90.469 15.0863C91.7011 14.566 93.0364 14.3085 94.3825 14.3317C95.6399 14.3311 96.8837 14.5807 98.0354 15.0646C99.2206 15.5614 100.29 16.2817 101.179 17.1827V7H101.094ZM95.4871 19.1374C94.7055 19.1164 93.9284 19.2585 93.2097 19.5539C92.491 19.8492 91.8478 20.2907 91.3245 20.8479C90.2227 22.0317 89.644 23.5798 89.7106 25.1652C89.6582 26.7877 90.2677 28.3659 91.4097 29.5642C91.9465 30.1049 92.5923 30.5353 93.3078 30.8294C94.0234 31.1235 94.7938 31.2752 95.5723 31.2752C96.3508 31.2752 97.1212 31.1235 97.8368 30.8294C98.5523 30.5353 99.1981 30.1049 99.7349 29.5642C100.876 28.3658 101.486 26.7879 101.433 25.1656C101.467 24.3735 101.334 23.5829 101.042 22.8411C100.75 22.0993 100.305 21.4216 99.7341 20.8483C99.1939 20.2896 98.5354 19.848 97.8029 19.553C97.0703 19.258 96.2805 19.1165 95.4863 19.1378" fill="#C1321A"/>
<path d="M131.507 26.6319H114.262C114.468 28.0007 115.194 29.2482 116.301 30.1346C117.405 31.0305 118.764 31.438 120.463 31.438C121.427 31.4597 122.385 31.29 123.276 30.9395C124.168 30.5891 124.975 30.0655 125.645 29.4017L130.148 31.438C129.134 32.909 127.725 34.0904 126.07 34.8575C124.313 35.634 122.397 36.0237 120.463 35.998C117.065 35.998 114.346 35.0204 112.222 32.984C110.098 30.9477 109.08 28.4241 109.08 25.3285C109.08 22.2329 110.099 19.6261 112.223 17.5085C113.25 16.5033 114.481 15.7101 115.839 15.1778C117.198 14.6454 118.656 14.3851 120.123 14.4129C123.522 14.4129 126.24 15.4717 128.364 17.5085C130.488 19.5453 131.507 22.3146 131.507 25.736V26.6319ZM126.155 22.6405C125.82 21.5011 125.065 20.517 124.031 19.8707C122.966 19.1459 121.683 18.7742 120.378 18.8119C118.968 18.7786 117.589 19.2099 116.47 20.0336C115.79 20.5224 115.111 21.4183 114.516 22.7217H126.155V22.6405Z" fill="#C1321A"/>
<path d="M131.252 14.9017H137.452L141.699 20.5225L145.864 14.9017H151.98L144.759 24.5968L153 35.4312H146.713L141.616 28.7532L136.604 35.4312H130.487L138.558 24.6773L131.252 14.9017Z" fill="#C1321A"/>
<path d="M11.129 7.73297H16.7356L27.8646 35.5108H22.1728L19.8788 29.8088H8.07058L5.69182 35.5108H0L11.129 7.73297ZM14.0175 15.0642L10.1108 24.5952H17.8403L14.0175 15.0642Z" fill="#C1321A"/>
<path d="M53.7749 7V11.7249H59.1269L53.7749 14.4129V35.4296H59.2121V7H53.7749Z" fill="#C1321A"/>
</svg>
