<svg width="149" height="60" viewBox="0 0 149 60" fill="none" xmlns="http://www.w3.org/2000/svg">
<rect width="149" height="60" rx="30" fill="black"/>
<path d="M49.355 20.0705C46.1784 20.0705 43.3028 21.2686 41.1628 23.2114C39.0228 21.2686 36.1472 20.0705 32.9706 20.0705C26.3834 20.0705 21 25.2514 21 31.6629V40.341C21 42.381 22.7053 44 24.7784 44C26.8516 44 28.5569 42.381 28.5569 40.341V31.6629C28.5569 29.299 30.5297 27.3886 32.9706 27.3886C35.4116 27.3886 37.3844 29.299 37.3844 31.6629V40.341C37.3844 42.381 39.0897 44 41.1628 44C43.2359 44 44.9412 42.381 44.9412 40.341V31.6629C44.9412 29.299 46.9141 27.3886 49.355 27.3886C51.7959 27.3886 53.7687 29.299 53.7687 31.6629V40.341C53.7687 42.381 55.4741 44 57.5472 44C59.6203 44 61.3256 42.381 61.3256 40.341V31.6629C61.2922 25.2514 55.9422 20.0705 49.355 20.0705ZM76.105 20.0705C69.2837 20.0705 63.7666 25.4133 63.7666 32.019C63.7666 38.6248 69.3172 43.9676 76.105 43.9676C82.9262 43.9676 88.4434 38.5924 88.4434 32.019C88.4434 25.4133 82.9262 20.0705 76.105 20.0705ZM76.105 36.6819C73.4634 36.6819 71.3234 34.5771 71.3234 32.019C71.3234 29.461 73.4634 27.3562 76.105 27.3562C78.7466 27.3562 80.92 29.461 80.92 32.019C80.8866 34.5771 78.7466 36.6819 76.105 36.6819ZM111.85 10C109.777 10 108.071 11.6514 108.071 13.659V21.0095C106.6 20.3943 104.962 20.0705 103.256 20.0705C96.435 20.0705 90.9178 25.4133 90.9178 32.019C90.9178 38.6248 96.4684 43.9676 103.256 43.9676C110.077 43.9676 115.628 38.5924 115.628 32.019V13.659C115.628 11.6514 113.923 10 111.85 10ZM103.256 36.6819C100.615 36.6819 98.4747 34.5771 98.4747 32.019C98.4747 29.461 100.615 27.3562 103.256 27.3562C105.898 27.3562 108.071 29.461 108.071 32.019C108.071 34.5771 105.931 36.6819 103.256 36.6819ZM123.218 23.2114C121.145 23.2114 119.44 24.8629 119.44 26.8705V40.341C119.44 42.381 121.145 44 123.218 44C125.292 44 126.997 42.381 126.997 40.341V26.8705C126.997 24.8629 125.292 23.2114 123.218 23.2114ZM123.218 19.3581C125.86 19.3581 128 17.2857 128 14.6952C128 12.1371 125.86 10.0324 123.218 10.0324C120.577 10.0324 118.403 12.1048 118.403 14.6952C118.437 17.2533 120.577 19.3581 123.218 19.3581Z" fill="white"/>
</svg>
