<svg width="115" height="120" viewBox="0 0 115 120" fill="none" xmlns="http://www.w3.org/2000/svg">
<g clip-path="url(#clip0_110_1618)">
<path d="M114.75 46.5996H78.7936C76.5339 43.0456 73.4113 40.1189 69.7157 38.0911C66.0201 36.0632 61.8711 35 57.6538 35C53.4366 35 49.2876 36.0632 45.592 38.0911C41.8964 40.1189 38.7738 43.0456 36.5141 46.5996H0.75L4.39736 50.2235H34.5975C34.0396 51.5492 33.5959 52.9199 33.2712 54.3207H8.48573L12.1331 57.9611H32.691C32.6379 58.623 32.6014 59.3048 32.6014 59.9866C32.6014 60.6683 32.6379 61.3732 32.6943 62.0583H16.2215L19.8688 65.6988H33.2712C33.5919 67.1007 34.0358 68.4717 34.5975 69.7959H23.9605L27.6079 73.4364H36.5605C38.8239 76.9774 41.9448 79.8921 45.6349 81.9112C49.3251 83.9303 53.4655 84.9887 57.6737 84.9887C61.882 84.9887 66.0224 83.9303 69.7126 81.9112C73.4027 79.8921 76.5236 76.9774 78.787 73.4364H87.9253L91.5727 69.7959H80.7002C81.2604 68.4711 81.7042 67.1003 82.0265 65.6988H95.6212L99.2686 62.0583H82.6101C82.6665 61.3732 82.7029 60.6849 82.7029 59.9866C82.7029 59.2883 82.6665 58.6297 82.6134 57.9611H103.377L107.024 54.3207H82.0564C81.7332 52.9194 81.2895 51.5486 80.73 50.2235H111.123L114.75 46.5996ZM57.7517 81.3891C53.5217 81.3891 49.3868 80.1372 45.8698 77.7916C42.3527 75.4461 39.6115 72.1122 37.9928 68.2117C36.3741 64.3112 35.9506 60.0191 36.7758 55.8784C37.601 51.7376 39.6379 47.934 42.6289 44.9487C45.6199 41.9634 49.4307 39.9303 53.5793 39.1067C57.7279 38.283 62.0281 38.7058 65.936 40.3214C69.844 41.9371 73.1841 44.6731 75.5341 48.1835C77.8842 51.6938 79.1385 55.8209 79.1385 60.0428C79.1385 65.7042 76.8852 71.1337 72.8744 75.1369C68.8636 79.1401 63.4238 81.3891 57.7517 81.3891Z" fill="#231F20"/>
<path d="M46.7535 63.1437L43.8488 54.3801H40.5596V65.6391H42.9602V57.2892L45.4968 65.6391H47.9869L50.5301 57.2892V65.6391H52.9341V54.3801H49.6316L46.7535 63.1437Z" fill="#231F20"/>
<path d="M67.6894 62.6274L63.17 54.3801H60.5107V65.6391H62.7423V57.7459L67.2617 65.7053L69.9508 65.6391V54.3801H67.7193L67.6894 62.6274Z" fill="#231F20"/>
<path d="M57.8416 54.3701H55.5537V65.6324H57.8416V54.3701Z" fill="#231F20"/>
<path d="M74.8445 54.3701H72.5566V65.6324H74.8445V54.3701Z" fill="#231F20"/>
</g>
<defs>
<clipPath id="clip0_110_1618">
<rect width="114" height="120" fill="white" transform="translate(0.75)"/>
</clipPath>
</defs>
</svg>
