<svg width="114" height="36" viewBox="0 0 114 36" fill="none" xmlns="http://www.w3.org/2000/svg">
<path d="M30.1195 10.8667C26.7611 10.8667 23.7208 12.1 21.4583 14.1C19.1958 12.1 16.1555 10.8667 12.7971 10.8667C5.83277 10.8667 0.141113 16.2 0.141113 22.8V31.7333C0.141113 33.8333 1.94406 35.5 4.13588 35.5C6.3277 35.5 8.13065 33.8333 8.13065 31.7333V22.8C8.13065 20.3666 10.2164 18.4 12.7971 18.4C15.3778 18.4 17.4636 20.3666 17.4636 22.8V31.7333C17.4636 33.8333 19.2665 35.5 21.4583 35.5C23.6501 35.5 25.4531 33.8333 25.4531 31.7333V22.8C25.4531 20.3666 27.5389 18.4 30.1195 18.4C32.7002 18.4 34.786 20.3666 34.786 22.8V31.7333C34.786 33.8333 36.5889 35.5 38.7808 35.5C40.9726 35.5 42.7755 33.8333 42.7755 31.7333V22.8C42.7402 16.2 37.0839 10.8667 30.1195 10.8667ZM58.4011 10.8667C51.1893 10.8667 45.3562 16.3667 45.3562 23.1667C45.3562 29.9667 51.2246 35.4667 58.4011 35.4667C65.6129 35.4667 71.4459 29.9333 71.4459 23.1667C71.4459 16.3667 65.6129 10.8667 58.4011 10.8667ZM58.4011 27.9667C55.6083 27.9667 53.3458 25.8 53.3458 23.1667C53.3458 20.5333 55.6083 18.3667 58.4011 18.3667C61.1939 18.3667 63.4918 20.5333 63.4918 23.1667C63.4564 25.8 61.1939 27.9667 58.4011 27.9667ZM96.1923 0.499985C94.0005 0.499985 92.1975 2.19999 92.1975 4.26665V11.8333C90.642 11.2 88.9098 10.8667 87.1069 10.8667C79.8951 10.8667 74.062 16.3667 74.062 23.1667C74.062 29.9667 79.9304 35.4667 87.1069 35.4667C94.3186 35.4667 100.187 29.9333 100.187 23.1667V4.26665C100.187 2.19999 98.3841 0.499985 96.1923 0.499985ZM87.1069 27.9667C84.314 27.9667 82.0515 25.8 82.0515 23.1667C82.0515 20.5333 84.314 18.3667 87.1069 18.3667C89.8997 18.3667 92.1975 20.5333 92.1975 23.1667C92.1975 25.8 89.935 27.9667 87.1069 27.9667ZM108.212 14.1C106.02 14.1 104.217 15.8 104.217 17.8667V31.7333C104.217 33.8333 106.02 35.5 108.212 35.5C110.404 35.5 112.207 33.8333 112.207 31.7333V17.8667C112.207 15.8 110.404 14.1 108.212 14.1ZM108.212 10.1333C111.005 10.1333 113.267 7.99998 113.267 5.33332C113.267 2.69998 111.005 0.53332 108.212 0.53332C105.419 0.53332 103.121 2.66665 103.121 5.33332C103.157 7.96665 105.419 10.1333 108.212 10.1333Z" fill="black"/>
</svg>
