<svg width="113" height="37" viewBox="0 0 113 37" fill="none" xmlns="http://www.w3.org/2000/svg">
<path d="M29.8489 10.9251C26.5196 10.9251 23.5058 12.1927 21.2629 14.2482C19.0201 12.1927 16.0063 10.9251 12.677 10.9251C5.77327 10.9251 0.131104 16.4066 0.131104 23.1899V32.3714C0.131104 34.5297 1.91837 36.2427 4.09113 36.2427C6.26389 36.2427 8.05116 34.5297 8.05116 32.3714V23.1899C8.05116 20.689 10.1188 18.6677 12.677 18.6677C15.2353 18.6677 17.3029 20.689 17.3029 23.1899V32.3714C17.3029 34.5297 19.0902 36.2427 21.2629 36.2427C23.4357 36.2427 25.223 34.5297 25.223 32.3714V23.1899C25.223 20.689 27.2906 18.6677 29.8489 18.6677C32.4071 18.6677 34.4747 20.689 34.4747 23.1899V32.3714C34.4747 34.5297 36.262 36.2427 38.4348 36.2427C40.6075 36.2427 42.3948 34.5297 42.3948 32.3714V23.1899C42.3597 16.4066 36.7526 10.9251 29.8489 10.9251ZM57.8845 10.9251C50.7354 10.9251 44.953 16.5779 44.953 23.5668C44.953 30.5556 50.7704 36.2084 57.8845 36.2084C65.0335 36.2084 70.8159 30.5214 70.8159 23.5668C70.8159 16.5779 65.0335 10.9251 57.8845 10.9251ZM57.8845 28.5001C55.1159 28.5001 52.8731 26.2732 52.8731 23.5668C52.8731 20.8603 55.1159 18.6334 57.8845 18.6334C60.653 18.6334 62.9309 20.8603 62.9309 23.5668C62.8958 26.2732 60.653 28.5001 57.8845 28.5001ZM95.3471 0.270462C93.1743 0.270462 91.387 2.01769 91.387 4.14176V11.9186C89.8451 11.2677 88.1279 10.9251 86.3406 10.9251C79.1915 10.9251 73.4092 16.5779 73.4092 23.5668C73.4092 30.5556 79.2266 36.2084 86.3406 36.2084C93.4897 36.2084 99.3071 30.5214 99.3071 23.5668V4.14176C99.3071 2.01769 97.5198 0.270462 95.3471 0.270462ZM86.3406 28.5001C83.5721 28.5001 81.3292 26.2732 81.3292 23.5668C81.3292 20.8603 83.5721 18.6334 86.3406 18.6334C89.1091 18.6334 91.387 20.8603 91.387 23.5668C91.387 26.2732 89.1442 28.5001 86.3406 28.5001ZM107.262 14.2482C105.089 14.2482 103.302 15.9955 103.302 18.1195V32.3714C103.302 34.5297 105.089 36.2427 107.262 36.2427C109.435 36.2427 111.222 34.5297 111.222 32.3714V18.1195C111.222 15.9955 109.435 14.2482 107.262 14.2482ZM107.262 10.1714C110.031 10.1714 112.274 7.9788 112.274 5.23805C112.274 2.53157 110.031 0.304723 107.262 0.304723C104.494 0.304723 102.216 2.49731 102.216 5.23805C102.251 7.94454 104.494 10.1714 107.262 10.1714Z" fill="white"/>
</svg>
