<svg width="138" height="120" viewBox="0 0 138 120" fill="none" xmlns="http://www.w3.org/2000/svg">
<path fill-rule="evenodd" clip-rule="evenodd" d="M45.062 68.9908C39.5402 68.9908 35.063 73.5332 35.063 79.1418C35.063 84.7449 39.5402 89.2902 45.062 89.2902C50.5848 89.2902 55.062 84.7458 55.062 79.1418C55.062 73.5332 50.5839 68.9908 45.062 68.9908ZM22.7289 68.9898C21.327 68.9896 19.9467 69.3384 18.7102 70.0055C17.4737 70.6725 16.4191 71.6372 15.6397 72.8142C14.86 71.6376 13.8053 70.6731 12.5688 70.0061C11.3324 69.3391 9.95227 68.9901 8.55052 68.9898C3.85395 68.9898 0.0447815 72.8335 0.00548344 77.5911H0V88.6975H2.92268V77.6206C2.94826 74.4877 5.45511 71.9529 8.54869 71.9529C11.6569 71.9529 14.1765 74.5126 14.1765 77.6668V88.6975H17.101V77.6483C17.1102 74.5006 19.6262 71.9529 22.727 71.9529C25.8307 71.9529 28.3439 74.5015 28.3549 77.6483V88.6975H31.2776V77.5892H31.2748C31.2337 72.8308 27.4245 68.9862 22.727 68.9862L22.728 68.988L22.7289 68.9898ZM67.3303 68.9935C62.6648 69.0286 58.8913 72.8566 58.8511 77.5911H58.8474V88.6966H61.7719V77.6225C61.7966 74.4932 64.2952 71.964 67.3796 71.9548H67.5469V68.9898H67.3303V68.9935ZM73.3703 77.0058C74.2742 74.0935 76.9546 71.9806 80.1241 71.9806C83.2917 71.9806 85.9731 74.0935 86.876 77.0058H73.3685H73.3703ZM80.1241 69.0148C74.5995 69.0148 70.1204 73.5591 70.1204 79.1658C70.1204 84.7735 74.5986 89.3197 80.1241 89.3197C83.999 89.3197 87.3531 87.0775 89.0127 83.8052L86.4556 82.3717C85.295 84.7311 82.8969 86.352 80.1232 86.352C76.4218 86.352 73.3886 83.4692 73.0751 79.7954H85.2429V79.7935H90.0939C90.1049 79.5831 90.1259 79.3772 90.1259 79.1658C90.1259 73.5582 85.6468 69.0138 80.1232 69.0138L80.1241 69.0148ZM95.9146 85.2923C95.6701 85.2929 95.4281 85.3421 95.2025 85.4372C94.9769 85.5323 94.772 85.6713 94.5995 85.8463C94.4271 86.0213 94.2905 86.229 94.1975 86.4573C94.1045 86.6857 94.0569 86.9303 94.0575 87.1772C94.0564 87.4244 94.1037 87.6693 94.1967 87.8979C94.2897 88.1265 94.4266 88.3343 94.5994 88.5092C94.9479 88.8625 95.4209 89.0617 95.9146 89.0631C96.2832 89.0629 96.6434 88.9521 96.9495 88.7447C97.2556 88.5373 97.4937 88.2426 97.6336 87.8982C97.7268 87.6692 97.7744 87.4237 97.7735 87.1772C97.7753 86.8049 97.6673 86.4404 97.4631 86.1303C97.259 85.8203 96.9681 85.5786 96.6274 85.4363C96.4015 85.3414 96.1592 85.2925 95.9146 85.2923ZM106.621 66H103.698V68.9686H100.766V71.7618H103.698V80.0178H103.696L103.697 80.0455V80.0945H103.701C103.741 84.8298 107.515 88.6578 112.181 88.6929V88.6966H112.396V85.7298H112.23C109.144 85.7206 106.645 83.1914 106.621 80.0631V71.7628H112.396V68.9686H106.621V66ZM133.738 69.0065L126.019 85.2655L118.297 69.0065L118.241 68.9695H115.014L124.368 88.7095H127.668L137.024 69.0065H133.738Z" fill="black"/>
</svg>
