<svg width="102" height="120" viewBox="0 0 102 120" fill="none" xmlns="http://www.w3.org/2000/svg">
<path d="M13.9979 67.4642C6.28337 67.4642 0 73.8214 0 81.7499C0 89.6428 6.28337 95.9999 13.9979 95.9999C21.7474 95.9999 28.0308 89.6428 28.0308 81.7499C28.0308 73.8214 21.7474 67.4642 13.9979 67.4642ZM13.9979 90.0357C9.70431 90.0357 6.17864 86.1428 6.17864 81.7499C6.17864 77.3214 9.70431 73.4285 13.9979 73.4285C18.3265 73.4285 21.8522 77.3214 21.8522 81.7499C21.8522 86.1428 18.3265 90.0357 13.9979 90.0357Z" fill="black"/>
<path d="M5.96908 65.3214C7.64465 65.3214 9.04095 63.8929 9.04095 62.1429C9.04095 60.4286 7.64465 59 5.96908 59C4.25861 59 2.8623 60.4286 2.8623 62.1429C2.8623 63.8929 4.25861 65.3214 5.96908 65.3214Z" fill="black"/>
<path d="M22.0267 65.3214C23.7023 65.3214 25.0986 63.8929 25.0986 62.1429C25.0986 60.4286 23.7023 59 22.0267 59C20.3162 59 18.9199 60.4286 18.9199 62.1429C18.9199 63.8929 20.3162 65.3214 22.0267 65.3214Z" fill="black"/>
<path d="M13.9984 65.3214C15.6739 65.3214 17.0702 63.8929 17.0702 62.1429C17.0702 60.4286 15.6739 59 13.9984 59C12.2879 59 10.8916 60.4286 10.8916 62.1429C10.8916 63.8929 12.2879 65.3214 13.9984 65.3214Z" fill="black"/>
<path d="M75.8542 67.9642H69.0472L60.9836 79.4285V59.4642H54.8049V95.4999H60.9836V84.0356L69.6756 95.4999H76.9713L66.2546 81.5713L75.8542 67.9642Z" fill="black"/>
<path d="M51.9074 67.9642H45.1005L37.0368 79.4285V59.4642H30.8582V95.4999H37.0368V84.0356L45.7288 95.4999H53.0245L42.3078 81.5713L51.9074 67.9642Z" fill="black"/>
<path d="M87.9667 67.4642C80.2521 67.4642 73.9688 73.8214 73.9688 81.7499C73.9688 89.6428 80.2521 95.9999 87.9667 95.9999C95.7162 95.9999 102 89.6428 102 81.7499C102 73.8214 95.7162 67.4642 87.9667 67.4642ZM87.9318 90.0357C83.6382 90.0357 80.1125 86.1428 80.1125 81.7499C80.1125 77.3214 83.6382 73.4285 87.9318 73.4285C92.2603 73.4285 95.786 77.3214 95.786 81.7499C95.786 86.1428 92.2603 90.0357 87.9318 90.0357Z" fill="black"/>
</svg>
