<svg width="162" height="120" viewBox="0 0 162 120" fill="none" xmlns="http://www.w3.org/2000/svg">
<g clip-path="url(#clip0_110_1586)">
<path d="M33.7255 75.5314C29.6854 75.5314 26.521 72.5432 26.521 68.4975C26.521 64.4515 29.6854 61.3845 33.7255 61.3845C37.7656 61.3845 40.93 64.4515 40.93 68.4975C40.93 72.5432 37.7656 75.5314 33.7255 75.5314ZM33.7255 57.9998C27.5098 57.9998 22.6504 62.6535 22.6504 68.4975C22.6504 74.3149 27.5098 78.8897 33.7255 78.8897C39.9412 78.8897 44.8007 74.3149 44.8007 68.4975C44.8007 62.6535 39.9412 57.9998 33.7255 57.9998Z" fill="#2B2B2A"/>
<path d="M81.3486 75.5314C77.3085 75.5314 74.1441 72.5432 74.1441 68.4975C74.1441 64.4515 77.3085 61.3845 81.3486 61.3845C85.3887 61.3845 88.5531 64.4515 88.5531 68.4975C88.5531 72.5432 85.3887 75.5314 81.3486 75.5314ZM81.3486 57.9998C75.1329 57.9998 70.2734 62.6535 70.2734 68.4975C70.2734 74.3149 75.1329 78.8897 81.3486 78.8897C87.5643 78.8897 92.4237 74.3149 92.4237 68.4975C92.4237 62.6535 87.5643 57.9998 81.3486 57.9998Z" fill="#2B2B2A"/>
<path d="M125.649 75.5314C121.609 75.5314 118.445 72.5432 118.445 68.4975C118.445 64.4515 121.609 61.3845 125.649 61.3845C129.69 61.3845 132.854 64.4515 132.854 68.4975C132.854 72.5432 129.69 75.5314 125.649 75.5314ZM125.649 57.9998C119.434 57.9998 114.574 62.6535 114.574 68.4975C114.574 74.3149 119.434 78.8897 125.649 78.8897C131.865 78.8897 136.724 74.3149 136.724 68.4975C136.724 62.6535 131.865 57.9998 125.649 57.9998Z" fill="#2B2B2A"/>
<path d="M100.894 58.0001H96.8535V78.8897H112.359V75.5089H100.894V58.0001Z" fill="#2B2B2A"/>
<path d="M156.879 58.0001L150 72.7602L143.15 58.0001H138.939L148.738 78.8897H151.292L161.09 58.0001H156.879Z" fill="#2B2B2A"/>
<path d="M67.33 58.0001H62.3008L53.1821 66.9408V58.0001H49.2305V78.8897H53.1821V69.6027L62.6539 78.8897H68.0582L56.7698 68.0968L67.33 58.0001Z" fill="#2B2B2A"/>
<path d="M0.5 72.8249C0.75063 75.4654 3.05304 78.8897 9.74718 78.8897C14.8388 78.8897 18.2202 76.4247 18.2202 72.5871C18.2202 68.6409 14.8765 67.2447 11.8547 66.8789C10.5796 66.7246 9.05742 66.5428 7.89775 66.4033C5.84076 66.1557 4.88708 65.3857 4.88708 64.025C4.88708 62.2633 6.82556 61.1312 9.18811 61.1312C11.6009 61.1312 13.198 61.9215 13.9191 63.7475H17.7902C17.3339 61.3627 15.2789 57.9998 9.18811 57.9998C4.05833 57.9998 0.930047 60.9864 0.930047 64.2628C0.930047 68.4541 4.62205 69.4584 7.65033 69.8321C8.81599 69.976 9.99903 70.1242 11.0375 70.2484C13.0948 70.4942 14.2633 71.3577 14.2633 72.8249C14.2633 74.292 13.0408 75.7185 9.66113 75.7185C6.38721 75.7185 4.69648 74.3022 4.41384 72.8249H0.5Z" fill="#2B2B2A"/>
</g>
<defs>
<clipPath id="clip0_110_1586">
<rect width="161" height="120" fill="white" transform="translate(0.5)"/>
</clipPath>
</defs>
</svg>
