<svg width="76" height="120" viewBox="0 0 76 120" fill="none" xmlns="http://www.w3.org/2000/svg">
<path d="M75.0531 0.66925L71.7862 2.25743C71.7862 2.25743 71.6586 4.31182 71.5475 6.25911C70.5753 19.8957 70.4367 25.7039 70.4701 29.924C70.5145 40.7827 71.7146 53.3411 71.7146 53.3411L71.8871 55.474L75.0531 54.0371C75.0531 54.0371 75.0975 2.8354 75.0531 0.66925ZM67.6762 4.25553L64.5764 5.57408C64.5764 5.57408 64.4478 7.17374 64.3311 9.11542C63.2201 22.8082 63.1208 29.7948 63.0986 32.6849C63.0153 42.8366 64.432 56.8539 64.432 56.8539L64.648 58.863L68.3088 57.1795L68.4975 53.9198C69.0531 47.2193 69.0534 47.2474 69.2701 31.4727C69.4089 21.9775 67.92 7.4254 67.8867 6.95401C67.82 5.98317 67.6762 4.25553 67.6762 4.25553ZM60.2874 7.75084L57.1484 9.2053C57.1484 9.2053 57.0264 10.7821 56.9098 12.7181C55.7987 26.4165 55.6985 33.4025 55.6707 36.315C55.5929 46.4555 57.0096 60.4851 57.0096 60.4851L57.2157 62.3934L60.8874 60.7098L61.0707 57.5499C61.0707 57.5499 61.6265 50.8615 61.8487 35.0699C61.9875 25.5748 60.4932 11.0225 60.4599 10.5567C60.3932 9.58589 60.2874 7.75084 60.2874 7.75084ZM52.9929 11.2023L49.7607 12.5888C49.7432 13.7015 49.6653 14.8124 49.5274 15.9164C48.7293 23.8671 48.336 31.854 48.3491 39.8454C48.2269 49.868 49.7433 63.9761 49.7433 63.9761L49.9267 65.8843L53.2598 64.2567L53.5159 61.1866C53.5159 61.1866 54.3373 53.8917 54.5206 37.9766C54.6095 29.7778 53.2709 15.395 53.2153 13.8854C53.1709 12.9707 52.9929 11.2023 52.9929 11.2023ZM45.2721 14.7995L42.872 15.7816L42.5444 19.0928C41.1889 32.1907 41.061 39.8007 41.0221 42.8311C40.9055 52.8537 42.6887 67.0954 42.6887 67.0954L42.8775 69.2064L45.9046 67.752L46.0826 64.5986C46.0826 64.5986 46.8044 57.1687 47.0211 41.2593C47.1433 32.8416 45.6101 18.7167 45.4435 16.8535C45.3657 15.9332 45.2721 14.7995 45.2721 14.7995ZM37.6727 18.262L36.0778 18.958C36.0778 18.958 36.0832 19.2727 36.0832 20.5746C35.2055 27.4322 33.6449 35.6928 33.4727 45.8277C33.2783 56.9221 35.5776 70.3343 35.5776 70.3343L35.8 72.4496L37.6163 71.5684L37.9114 68.2298C39.278 55.8839 39.5772 54.5084 39.7049 44.3118C39.8272 35.7987 38.3726 26.652 37.7227 20.1143C37.6656 19.4986 37.6489 18.8798 37.6727 18.262ZM30.3783 21.7189L28.7671 22.4598C28.7671 22.4598 28.9838 31.4161 28.4839 35.2321C26.8618 44.3064 26.2621 47.4716 26.4788 51.7814C26.6857 55.6356 27.172 59.4692 27.9338 63.2516C28.2893 65.6759 28.4058 67.1798 28.4058 67.1798L28.473 75.9285L30.0343 75.1492C30.0343 75.1492 30.0333 67.8535 30.0777 67.4495C30.1222 67.0454 30.1223 66.6246 30.2112 65.5752C30.4834 62.3653 31.4944 55.8279 31.8777 50.5023C32.3333 43.6447 30.8669 37.1454 30.5725 33.9355C30.4169 32.2127 30.3061 29.9065 30.3783 21.7189ZM23.1457 25.1813L21.618 25.8379C21.668 36.2421 21.6682 39.2218 21.6571 40.5293C20.1683 48.3297 19.8843 48.74 19.6455 52.5673C19.4621 55.5752 19.9568 57.7293 20.4679 60.3163C20.9179 62.5611 21.4563 64.9801 21.4563 64.9801L21.4064 79.2627L23.073 78.4483L23.1175 64.2731C23.1175 64.2731 24.5122 56.6417 24.7233 52.2757C24.9732 47.0287 23.1457 41.4167 23.1457 40.126V25.1813ZM15.9847 28.5769L14.5069 29.2049V52.3086C14.5069 52.8698 13.4401 54.3349 13.1735 55.2383C12.9068 56.1418 12.5122 57.3711 14.1066 58.4991C14.6176 58.8639 14.4625 60.0309 14.5069 60.7997C14.5514 61.5685 14.5069 82.45 14.5069 82.45L16.0237 81.799V58.6328C16.0237 57.937 18.2453 55.9512 17.4787 53.8299C17.2232 53.1285 16.2736 52.2923 16.2624 52.1464C16.1347 51.0577 15.9847 28.5769 15.9847 28.5769ZM9.01248 31.8256L7.63562 32.4208V85.6264L9.02442 85.0422L9.01248 31.8256ZM2.5741 34.8562L1.17445 35.4459L1.1853 88.6558L2.57953 88.0563L2.5741 34.8562ZM27.2231 94.1219C23.1234 94.1219 18.1906 96.1477 18.2795 100.811C18.3683 105.474 23.1789 107.288 27.2231 107.288C31.2673 107.288 35.6776 105.474 35.761 100.811C35.8443 96.1477 31.4006 94.1219 27.2231 94.1219ZM7.52061 94.2139C6.00333 94.2142 4.38687 94.449 2.97447 95.093C-0.0642248 96.4735 0.791449 99.1892 1.34697 99.8794C2.00804 100.777 3.16907 101.215 4.68008 101.563C6.80217 102.051 9.65723 102.226 11.4516 102.467C13.1237 102.686 12.9901 104.33 12.0624 104.847C10.5014 105.705 6.58556 105.654 4.44681 104.453C2.58026 103.415 2.78025 102.427 2.78025 102.164H1.11369V106.653H2.96362V106.266C2.91917 105.621 3.81317 106.115 4.36869 106.311C7.42405 107.377 11.7291 107.568 14.1901 105.941C16.9288 104.128 16.0406 100.728 12.9131 99.7063C10.541 98.9262 6.70782 99.055 4.76905 98.4546C3.2636 97.9888 3.71335 95.7772 8.1575 95.9512C12.5128 96.1195 13.5738 98.1513 13.5738 98.8864H15.0733V94.7905H13.4631C13.6298 95.5649 13.1961 95.6603 12.8794 95.3516C12.3031 94.8641 10.0494 94.2134 7.52061 94.2139ZM37.5165 94.751V96.3282H38.9943C39.8109 96.3563 39.8113 96.7545 39.8113 97.2259V104.437C39.789 104.79 39.7 105.122 39.0778 105.167H37.5447V106.626H44.4605V105.104H42.8883C42.5383 105.121 42.1386 105.167 42.1386 104.381L42.144 98.4436L51.36 106.626H53.5484V97.0231C53.5484 96.6696 53.7262 96.2833 54.104 96.2833H55.7098V94.751H49.0164V96.2657H50.4931C50.8375 96.3106 51.2493 96.3105 51.2493 97.1579V102.136L43.3549 94.751H37.5165ZM57.232 94.7619V96.3161H58.5318C59.0526 96.2947 59.5514 96.5291 59.8707 96.9453C59.9152 97.0126 64.5264 102.131 64.5264 102.131V104.818C64.5264 104.998 64.4929 105.099 64.1651 105.099H62.2545V106.62H70.137V105.099H68.4151C68.0818 105.099 68.0809 105.104 68.0809 104.818V102.153C68.0809 102.153 72.2416 97.1802 72.575 96.8379C72.7981 96.543 73.1318 96.3542 73.4972 96.3161H75.0195V94.7619H68.5041V96.3161H69.4925C69.8202 96.3161 69.8705 96.777 69.7149 96.9902L67.0035 100.217C67.0035 100.217 64.6319 97.3432 64.2986 97.0121C63.9653 96.681 64.2098 96.3161 64.3876 96.3161H65.2035V94.7619H57.232ZM27.145 95.8898C29.967 95.8898 32.1056 97.6413 32.1056 100.728C32.0945 103.792 29.8781 105.481 27.145 105.559C24.4118 105.638 22.1953 103.814 22.1898 100.728C22.1842 97.6413 24.3229 95.8898 27.145 95.8898ZM20.5124 110.548C18.3681 110.509 15.7569 111.687 15.8013 114.678C15.8458 117.669 18.5732 118.607 20.7619 118.607C23.0784 118.607 24.3563 117.108 24.5063 115.986L23.6676 116.008C23.3565 117.394 21.8176 117.691 20.8455 117.691C19.203 117.673 17.8818 116.321 17.8845 114.662C17.8845 113.04 18.7344 111.726 20.4343 111.518C22.0453 111.311 23.5563 112.147 23.6285 113.461H24.401V110.957H23.5623C23.6512 111.507 23.4125 111.497 23.2292 111.306C22.4154 110.793 21.4715 110.53 20.5124 110.548ZM70.2607 110.727C70.1941 110.727 70.1275 110.729 70.061 110.732C69.2909 110.761 68.5346 110.947 67.8368 111.277C66.721 111.763 66.3116 113.15 66.9818 114.173C67.421 114.724 68.05 115.087 68.7427 115.189C69.9156 115.437 71.1001 115.624 72.2918 115.75C73.3806 115.919 73.1695 116.895 72.614 117.232C71.4474 117.973 70.0534 117.871 68.6201 116.945C67.6591 116.322 67.7532 115.722 67.7532 115.565H66.8874V118.287H67.8596V118.051C67.8373 117.636 68.304 117.939 68.5984 118.051C70.1983 118.702 72.4536 118.819 73.7424 117.832C75.1812 116.732 74.7417 114.684 73.0751 114.061C71.8252 113.596 69.7923 113.758 68.8035 113.304C67.9202 112.9 68.27 111.615 70.5699 111.676C72.8697 111.738 73.4256 113.124 73.4256 113.567H74.209V111.031H73.3648C73.4482 111.553 73.2697 111.552 73.0252 111.429C72.1764 110.965 71.2258 110.723 70.2607 110.727ZM10.8516 110.924V111.872H11.6686C11.9852 111.872 12.0678 112.052 12.0678 112.327V116.884C12.0678 117.164 11.9852 117.288 11.6686 117.288H10.8516V118.236H15.0906V117.293H14.2628C13.9406 117.293 13.8733 117.164 13.8733 116.884L13.9015 112.327C13.9015 112.052 13.9677 111.867 14.2899 111.867H15.1178V110.924H10.8516ZM35.2944 110.93V111.878H36.1168C36.4335 111.878 36.5107 112.058 36.5107 112.333V115.913C36.5107 118.163 38.3277 118.567 40.0554 118.567C41.8164 118.567 43.4997 118.147 43.4775 116.025V112.658C43.4719 112.103 43.6495 111.894 43.855 111.894H44.6775V110.952H41.0612V111.901H41.8771C42.1993 111.901 42.2775 112.08 42.2775 112.355V116.042C42.2775 116.833 42.083 117.725 40.0554 117.725C38.2444 117.725 38.3389 116.289 38.3389 116.042V112.333C38.3389 112.052 38.4171 111.873 38.7393 111.873H39.5606V110.93H35.2944ZM25.6846 110.946V113.718L26.5678 113.73C26.5678 111.828 26.6621 111.951 27.4065 111.884H29.073V116.934C29.073 117.215 28.9893 117.394 28.6727 117.394H27.8502V118.287H32.123V117.383H31.3005C30.9839 117.383 30.911 117.204 30.911 116.923V111.873H32.5776C33.2442 111.951 33.4174 111.76 33.4174 113.718H34.2778V110.946L25.6846 110.946ZM0.980238 110.952V111.918H1.75818C2.07483 111.918 2.15746 112.064 2.15746 112.333V116.889C2.15746 117.164 2.08581 117.294 1.76361 117.294H0.941178V118.242H5.23018V117.294H4.39147C4.07483 117.294 3.99654 117.17 3.99654 116.895V115.099H6.57992C8.92421 115.099 9.86855 114.487 9.86855 112.967C9.86855 111.446 9.19081 110.952 7.09095 110.952H0.980238ZM45.6768 110.969V111.873H46.4547C46.7714 111.873 46.8496 112.074 46.8496 112.349V116.9C46.8496 117.181 46.7822 117.31 46.4656 117.31H45.6388V118.287H49.9104V117.328H49.088C48.7714 117.328 48.6941 117.204 48.6941 116.929V115.133H50.799C51.6212 115.133 52.0598 115.352 52.0598 115.913V116.715C52.0598 118.168 52.977 118.472 53.9325 118.472C55.0658 118.472 55.3766 118.096 55.3766 116.788V116.227H54.6096V116.677C54.6262 117.075 54.6494 117.495 54.2938 117.495C53.9383 117.495 53.9043 117.187 53.9043 116.985V115.93C53.8654 115.044 53.3603 114.892 52.6381 114.713C53.4714 114.555 54.438 114.184 54.4436 113.017C54.4436 111.642 53.7603 110.969 51.666 110.969H45.6768ZM56.3206 110.969V111.918H57.143C57.4597 111.918 57.538 112.103 57.538 112.378V116.929C57.538 117.204 57.4597 117.339 57.143 117.339H56.3206V118.287H64.9257V115.47H64.0924C64.0924 116.89 63.9645 117.243 63.2201 117.316H59.3814V115.015H61.1651C61.404 115.015 61.5535 115.105 61.5535 115.481V116.267H62.3489V112.838H61.5535V113.59C61.5535 113.977 61.404 114.061 61.1651 114.061H59.3814V111.862H63.2201C63.9645 111.935 64.0924 112.327 64.0924 113.736H64.9257V110.969H56.3206ZM3.99654 111.878H6.45189C7.2685 111.878 7.82441 112.136 7.82441 113C7.82441 113.865 7.26811 114.123 6.32928 114.123H3.99654V111.878ZM51.232 111.899C51.2493 111.899 51.2667 111.899 51.284 111.9C51.893 111.921 52.3824 112.414 52.4048 113.029C52.4048 113.73 51.9213 114.151 51.0269 114.151H48.6941V111.907H51.1159C51.1544 111.902 51.1931 111.9 51.232 111.899Z" fill="black"/>
</svg>
