<svg width="101" height="35" viewBox="0 0 101 35" fill="none" xmlns="http://www.w3.org/2000/svg">
<path fill-rule="evenodd" clip-rule="evenodd" d="M38.3699 0.0892944V8.12481H46.5854V34.9107H54.8034V8.12481H63.0189V0.0892944H38.3699ZM26.4901 21.5189C25.7108 23.1229 24.4833 24.4775 22.95 25.4256C21.4167 26.3736 19.6405 26.8763 17.8275 26.8752C12.5324 26.8752 8.24113 22.6776 8.24113 17.5C8.24113 12.3224 12.5324 8.12481 17.8275 8.12481C19.6407 8.12381 21.4169 8.62662 22.9502 9.57489C24.4835 10.5232 25.7109 11.878 26.4901 13.4822H35.1527C33.2978 5.80395 26.245 0.0892944 17.8275 0.0892944C7.99356 0.0892944 0.0244141 7.88464 0.0244141 17.5C0.0244141 27.1153 7.99356 34.9107 17.8275 34.9107C26.245 34.9107 33.2978 29.196 35.1527 21.5177L26.4901 21.5189ZM92.2251 21.5189C91.4458 23.1229 90.2182 24.4775 88.685 25.4256C87.1517 26.3736 85.3755 26.8763 83.5625 26.8752C78.2674 26.8752 73.9761 22.6776 73.9761 17.5C73.9761 12.3224 78.2674 8.12481 83.5625 8.12481C85.3757 8.12381 87.1519 8.62662 88.6852 9.57489C90.2185 10.5232 91.4459 11.878 92.2251 13.4822H100.888C99.0327 5.80395 91.98 0.0892944 83.5625 0.0892944C73.7298 0.0892944 65.7594 7.88464 65.7594 17.5C65.7594 27.1153 73.7286 34.9107 83.5625 34.9107C91.98 34.9107 99.0327 29.196 100.888 21.5177L92.2251 21.5189Z" fill="#FACD55"/>
</svg>
