<svg width="107" height="120" viewBox="0 0 107 120" fill="none" xmlns="http://www.w3.org/2000/svg">
<path fill-rule="evenodd" clip-rule="evenodd" d="M40.6489 59.0968V67.8211H49.3524V96.9029H58.0585V67.8211H66.7621V59.0968H40.6489ZM28.0633 82.3633C27.2377 84.1048 25.9372 85.5755 24.3129 86.6048C22.6885 87.6341 20.8068 88.1798 18.8861 88.1786C13.2764 88.1786 8.73023 83.6212 8.73023 77.9998C8.73023 72.3785 13.2764 67.8211 18.8861 67.8211C20.807 67.82 22.6888 68.3659 24.3131 69.3954C25.9375 70.425 27.2379 71.896 28.0633 73.6377H37.2405C35.2754 65.3013 27.8036 59.0968 18.8861 59.0968C8.46795 59.0968 0.0253906 67.5603 0.0253906 77.9998C0.0253906 88.4394 8.46795 96.9029 18.8861 96.9029C27.8036 96.9029 35.2754 90.6984 37.2405 82.362L28.0633 82.3633ZM97.7033 82.3633C96.8777 84.1048 95.5773 85.5755 93.9529 86.6048C92.3286 87.6341 90.4469 88.1798 88.5261 88.1786C82.9165 88.1786 78.3703 83.6212 78.3703 77.9998C78.3703 72.3785 82.9165 67.8211 88.5261 67.8211C90.447 67.82 92.3288 68.3659 93.9532 69.3954C95.5775 70.425 96.8779 71.896 97.7033 73.6377H106.881C104.915 65.3013 97.4437 59.0968 88.5261 59.0968C78.1093 59.0968 69.6654 67.5603 69.6654 77.9998C69.6654 88.4394 78.108 96.9029 88.5261 96.9029C97.4437 96.9029 104.915 90.6984 106.881 82.362L97.7033 82.3633Z" fill="#FACD55"/>
</svg>
