<svg width="218" height="120" viewBox="0 0 218 120" fill="none" xmlns="http://www.w3.org/2000/svg">
<g clip-path="url(#clip0_110_1610)">
<path d="M8.78124 49.5868C6.92065 49.5868 5.38858 49.8637 4.30163 50.3872L4.29313 50.3911L4.28462 50.3949C2.11663 51.3229 0.59334 53.0921 0.59334 55.3683C0.59334 56.5052 0.932976 57.3841 1.48742 58.0865C2.04708 58.7954 2.8424 59.3454 3.78408 59.7898C5.30106 60.5058 7.1157 60.9151 8.7977 61.2946C9.22554 61.3911 9.6446 61.4856 10.048 61.5827C11.1436 61.8466 12.4017 62.5903 12.4017 63.7929C12.4017 64.6972 11.8151 65.2221 11.2166 65.6545C10.8535 65.9168 10.3826 66.073 9.859 66.1664C9.33198 66.2604 8.72088 66.2959 8.05245 66.2959C6.85686 66.2959 5.49105 66.1526 4.2624 65.7088C3.23855 65.3391 2.32719 64.866 1.52926 64.3807L0.25 67.181C1.05794 67.7521 2.20579 68.2324 3.50645 68.6083C6.42532 69.4517 9.93375 69.6674 12.6949 68.4854C13.9442 67.9506 14.8999 67.154 15.4346 66.3817L15.4383 66.3763L15.4421 66.3711C16.1181 65.4596 16.386 64.5582 16.386 63.5121C16.386 62.2884 16.1004 61.295 15.486 60.7032L15.4729 60.6905L15.4609 60.6765C14.7507 59.8558 13.7776 59.3311 12.6797 58.938C11.8751 58.6501 11.0358 58.4425 10.2003 58.236C9.88986 58.1592 9.57999 58.0826 9.27259 58.002C7.74793 57.7334 6.73286 57.3395 6.01408 57.0607H6.01381L6.01175 57.0598L5.85757 57.0002L5.8267 56.9884L5.79831 56.9718C5.41903 56.7526 5.07651 56.5122 4.82961 56.2096C4.57309 55.895 4.43181 55.5283 4.43181 55.0874C4.43181 54.6823 4.51658 54.2967 4.72165 53.9456C4.92384 53.5993 5.22919 53.3103 5.6348 53.0728C5.99542 52.8181 6.45961 52.6653 6.97469 52.5735C7.50157 52.4795 8.1128 52.444 8.78124 52.444C10.6099 52.444 12.4263 52.9442 14.112 53.8173L15.2683 51.0328C14.5027 50.5858 13.6093 50.2399 12.4817 49.9985L12.4762 49.9974L12.471 49.996C11.3421 49.7243 10.0646 49.5868 8.78124 49.5868ZM29.0205 49.8666V60.5624C29.0205 63.4351 29.8708 65.5702 31.3782 67.022C32.8784 68.4671 35.0891 69.1534 37.8023 69.2925C40.6296 69.2904 42.8434 68.4737 44.3505 67.022C45.8578 65.5702 46.7082 63.4351 46.7082 60.5624V49.8666H42.8697V60.422C42.8697 62.2951 42.4231 63.8056 41.6081 64.7475C40.7761 65.7092 39.4733 66.1545 37.9373 66.1545C36.3161 66.1545 35.0522 65.6669 34.2071 64.6543C33.3761 63.6587 33.0048 62.2192 33.0048 60.422V49.8666H29.0205ZM79.1935 49.8666V68.8712H76.1321L64.7612 55.9287V68.8712H60.971V49.8664H64.1781L75.4032 62.9495V49.8666H79.1935ZM93.6013 49.8666V68.8712H107.79V65.8737H97.4398V49.8666H93.6013ZM119.988 68.8712V49.8664H123.973V68.8712H119.988ZM148.148 49.7294C146.021 49.7294 144.189 50.1383 142.502 50.951C140.831 51.7556 139.572 52.9642 138.583 54.4596C137.612 55.9298 137.19 57.538 137.19 59.4423C137.19 61.2092 137.613 62.957 138.583 64.425L138.591 64.4363L138.598 64.448C140.419 67.6637 144.34 69.1553 148.003 69.1553C149.406 69.1553 150.822 68.8848 152.257 68.47L152.262 68.4686L152.266 68.4672C153.745 68.0789 154.83 67.5716 155.898 66.8247V59.4179H152.498V65.1484L152.289 65.2627C151.193 65.866 149.807 66.1578 148.439 66.1578C147.065 66.1578 145.826 65.8626 144.735 65.2627C143.65 64.6658 142.868 63.9126 142.25 62.8682C141.631 61.8259 141.32 60.7754 141.32 59.4423C141.32 58.2541 141.628 57.0625 142.25 56.0164C142.868 54.9721 143.65 54.219 144.735 53.622C145.826 53.0221 147.065 52.727 148.439 52.727C150.464 52.727 152.228 53.3864 153.709 54.8159L156.166 52.6749C155.251 51.7394 154.218 51.0327 152.957 50.5457C151.399 50.001 149.846 49.7293 148.148 49.7293V49.7294ZM169.846 68.8712V49.8664H173.684V57.7298H183.842V49.8666H187.825V68.8712H183.842V60.7273H173.684V68.8712H169.846ZM199.877 49.8666V52.8641H206.436V68.8712H210.421V52.8641H216.981V49.8666H199.877Z" fill="#FF0000"/>
</g>
<defs>
<clipPath id="clip0_110_1610">
<rect width="216.731" height="19.72" fill="white" transform="translate(0.25 49.5868)"/>
</clipPath>
</defs>
</svg>
