<svg width="114" height="120" viewBox="0 0 114 120" fill="none" xmlns="http://www.w3.org/2000/svg">
<path d="M4 2H109.127L72.6545 120H40.4727L4 2Z" fill="#D52B1E"/>
<g clip-path="url(#clip0_110_1515)">
<path fill-rule="evenodd" clip-rule="evenodd" d="M33.5021 70.4413L34.2516 67.7312L35.0236 65.0528H36.5677L34.21 72.6726H32.6893L30.3184 65.0528H31.8932L32.6968 67.8067L33.438 70.4413H33.5021Z" fill="#FEFEFE"/>
<path fill-rule="evenodd" clip-rule="evenodd" d="M41.4471 67.7511C41.4471 67.4996 41.408 67.2868 41.3281 67.116C41.2508 66.9435 41.1468 66.8011 41.0195 66.6921C40.8897 66.5796 40.7433 66.4973 40.5844 66.4458C40.4238 66.3951 40.2558 66.3685 40.0853 66.3685C39.9131 66.3685 39.7458 66.3951 39.582 66.4458C39.4181 66.4973 39.2717 66.5796 39.1419 66.6921C39.0129 66.8011 38.9089 66.9435 38.8307 67.116C38.7517 67.2868 38.7126 67.4996 38.7126 67.7511V69.9738C38.7126 70.2252 38.7517 70.4415 38.8307 70.6157C38.9089 70.795 39.0129 70.9375 39.1419 71.0482C39.2717 71.1555 39.4181 71.2361 39.582 71.2842C39.7458 71.3331 39.9131 71.3546 40.0853 71.3546C40.2558 71.3546 40.4238 71.3331 40.5844 71.2842C40.7433 71.2361 40.8897 71.1555 41.0195 71.0482C41.1468 70.9375 41.2508 70.795 41.3281 70.6157C41.408 70.4415 41.4471 70.2252 41.4471 69.9738V67.7511ZM42.9179 70.2415C42.9179 70.6543 42.8397 71.013 42.6916 71.3211C42.5419 71.6326 42.3356 71.8961 42.081 72.1089C41.8256 72.3217 41.5236 72.4848 41.1759 72.5904C40.8298 72.6976 40.4638 72.7526 40.0803 72.7526C39.6959 72.7526 39.3282 72.6976 38.9821 72.5904C38.6377 72.4848 38.3358 72.3217 38.0787 72.1089C37.8208 71.8961 37.6203 71.6326 37.4697 71.3211C37.3183 71.013 37.2451 70.6543 37.2451 70.2415V67.443C37.2451 67.0388 37.3233 66.6783 37.4789 66.3685C37.6369 66.0579 37.8483 65.8004 38.1111 65.5936C38.3749 65.3894 38.6785 65.2332 39.0212 65.131C39.364 65.0289 39.7167 64.9757 40.0803 64.9757C40.443 64.9757 40.7974 65.0289 41.1385 65.1396C41.4829 65.2503 41.7849 65.4091 42.0486 65.6228C42.3148 65.8339 42.5261 66.0931 42.6783 66.4072C42.8364 66.7221 42.9179 67.0808 42.9179 67.485V70.2415Z" fill="#FEFEFE"/>
<path fill-rule="evenodd" clip-rule="evenodd" d="M46.7327 67.2835L45.9914 69.9198L45.1895 72.672H43.6113L45.9806 65.0522H47.5047L49.8623 72.672H48.3183L47.5454 69.997L46.7959 67.2835H46.7327Z" fill="#FEFEFE"/>
<path fill-rule="evenodd" clip-rule="evenodd" d="M52.35 71.3129H53.8707C54.1994 71.3129 54.4622 71.2176 54.6602 71.0245C54.8574 70.8331 54.9547 70.5937 54.9547 70.3054C54.9547 70.0119 54.8574 69.7724 54.6602 69.5879C54.4622 69.4017 54.196 69.3116 53.8608 69.3116H52.35V71.3129ZM50.8809 72.6722V65.0524H52.35V67.9505H54.0529C54.4181 67.9505 54.7434 68.0089 55.0296 68.1282C55.3141 68.2474 55.557 68.4079 55.7575 68.6156C55.9588 68.8207 56.1111 69.0704 56.2201 69.3588C56.3274 69.6489 56.3815 69.9604 56.3815 70.3002C56.3815 70.58 56.3374 70.8623 56.2508 71.1438C56.1652 71.4236 56.0321 71.6785 55.8499 71.9024C55.666 72.1273 55.4339 72.3118 55.1477 72.4577C54.8624 72.6001 54.5146 72.6722 54.1062 72.6722H50.8809Z" fill="#FEFEFE"/>
<path fill-rule="evenodd" clip-rule="evenodd" d="M62.1798 72.1795C61.9801 72.3151 61.7755 72.4275 61.5592 72.5133C61.3429 72.5983 61.1283 72.6592 60.9111 72.6978C60.6932 72.7313 60.4885 72.7527 60.293 72.7527C59.9503 72.7527 59.6092 72.6978 59.2698 72.5948C58.9304 72.491 58.6267 72.34 58.358 72.1374C58.0901 71.9349 57.8722 71.68 57.7033 71.3736C57.5377 71.0681 57.4529 70.7077 57.4529 70.2958V67.4749C57.4529 67.0707 57.5344 66.7086 57.6933 66.3953C57.8547 66.0821 58.0693 65.8221 58.3372 65.6109C58.6051 65.4016 58.9104 65.2402 59.2531 65.1347C59.5967 65.0291 59.9503 64.975 60.3147 64.975C60.7448 64.975 61.1607 65.0377 61.5692 65.1561C61.9768 65.2805 62.3229 65.4685 62.6091 65.7277L61.8903 66.8999C61.6632 66.7 61.4078 66.5627 61.1299 66.4837C60.8521 66.4065 60.5875 66.3687 60.3371 66.3687C60.1649 66.3687 59.9944 66.3919 59.8272 66.4417C59.6583 66.4889 59.5085 66.5695 59.3771 66.6785C59.2457 66.7892 59.1367 66.9334 59.0501 67.1111C58.9645 67.2853 58.9204 67.4998 58.9204 67.7513V69.9739C58.9204 70.2254 58.9595 70.4382 59.0393 70.609C59.1167 70.7815 59.2207 70.9274 59.3513 71.0364C59.4794 71.1471 59.6258 71.2277 59.7897 71.2792C59.9536 71.3316 60.1225 71.3548 60.293 71.3548C60.4361 71.3548 60.5925 71.3385 60.7597 71.2981C60.9286 71.2561 61.0942 71.1634 61.2572 71.0244V69.7525H60.1882V68.4601H62.7272V71.6663C62.5616 71.8748 62.3811 72.0456 62.1798 72.1795Z" fill="#FEFEFE"/>
<path fill-rule="evenodd" clip-rule="evenodd" d="M66.0662 69.8295H67.8473L67.5578 68.8572L66.978 66.843H66.9339L66.3665 68.8237L66.0662 69.8295ZM68.2417 71.1013H65.6677L65.1852 72.6727H63.6221L66.2176 65.0529H67.7167L70.289 72.6727H68.6934L68.2417 71.1013Z" fill="#FEFEFE"/>
</g>
<defs>
<clipPath id="clip0_110_1515">
<rect width="40.7636" height="8.58182" fill="white" transform="translate(29.7451 64.2181)"/>
</clipPath>
</defs>
</svg>
