<svg width="194" height="120" viewBox="0 0 194 120" fill="none" xmlns="http://www.w3.org/2000/svg">
<g clip-path="url(#clip0_110_1567)">
<path d="M176.68 47C167.286 47 159.667 54.5637 159.631 63.9076L159.633 63.907L172.175 57.701C172.103 57.6536 172.037 57.5999 171.975 57.5403C171.955 57.5208 171.939 57.4971 171.93 57.4708C171.92 57.4446 171.916 57.4165 171.919 57.3886C171.924 57.3323 171.954 57.2811 172.002 57.249C173.037 56.5538 173.992 55.7481 174.851 54.8463C175.005 54.6846 175.164 54.5271 175.326 54.3741C175.327 54.3733 175.329 54.3726 175.329 54.3718C175.514 54.1983 175.742 54.0781 175.99 54.024C176.794 53.8465 178.692 53.409 179.932 52.9782C180.447 52.7983 181.003 52.7706 181.534 52.8986C181.609 52.9167 181.684 52.938 181.759 52.9583L185.947 50.8863C185.961 50.8791 185.977 50.8757 185.994 50.8764C186.01 50.8771 186.025 50.8819 186.039 50.8904C186.053 50.8989 186.064 50.9107 186.072 50.9248C186.08 50.9388 186.084 50.9546 186.084 50.9707V52.3115C186.084 52.3297 186.078 52.3475 186.068 52.3628C186.059 52.3781 186.044 52.3902 186.028 52.3977L183.39 53.5804C183.766 53.7712 184.127 53.9901 184.47 54.2354L186.439 53.4231C186.457 53.416 186.476 53.4141 186.494 53.4178C186.512 53.4215 186.529 53.4305 186.543 53.4437L187.482 54.3793C187.494 54.3904 187.502 54.4043 187.506 54.4195C187.511 54.4347 187.511 54.4508 187.508 54.4662C187.504 54.4816 187.497 54.4959 187.487 54.5078C187.477 54.5198 187.463 54.5289 187.449 54.5343L185.616 55.2107C186.816 56.4289 187.521 57.9394 187.763 58.9682C188.819 62.9976 187.634 71.9806 182.274 80.0087V80.0095C182.274 80.0103 182.274 80.0111 182.273 80.0119C188.943 77.7075 193.73 71.3979 193.73 63.9737C193.73 54.5995 186.096 47 176.68 47ZM182.925 63.0682C181.731 62.2689 180.63 61.3407 179.641 60.3007C179.508 60.1612 179.348 60.0501 179.171 59.9741C178.994 59.8981 178.803 59.8589 178.61 59.8588H174.945C174.523 59.8588 174.115 59.7641 173.745 59.5929L159.653 64.7955L159.651 64.7958C159.945 70.9387 163.519 76.225 168.667 78.9591C168.668 78.9585 168.669 78.9577 168.669 78.9569C175.967 77.1722 181.682 71.3802 183.322 64.0565C183.363 63.8712 183.347 63.6777 183.277 63.5013C183.206 63.325 183.083 63.174 182.925 63.0682ZM176.227 57.9842H177.699C177.784 57.9841 177.866 57.9561 177.933 57.9046C178 57.853 178.048 57.7807 178.069 57.6991C178.151 57.3863 178.151 57.0576 178.069 56.7447C178.048 56.6629 178 56.5905 177.933 56.5388C177.866 56.4871 177.783 56.4592 177.698 56.4593H176.972L176.97 56.4604H175.8C175.669 56.4603 175.544 56.5083 175.447 56.5951C175.35 56.6819 175.288 56.8014 175.275 56.9305C175.274 56.9305 175.274 56.9309 175.274 56.9312C175.254 57.1109 175.32 57.3515 175.458 57.5998C175.476 57.6233 175.494 57.6469 175.514 57.6691C175.604 57.7683 175.714 57.8476 175.837 57.9019C175.96 57.9562 176.093 57.9842 176.227 57.9842Z" fill="#ED1B34"/>
<path d="M117.794 70.4663V58.3143L114.339 58.9126V75.5873H117.794L126.056 63.3865V75.5873H129.511V58.4639L125.581 58.9626L117.794 70.4663ZM58.9845 61.6545H64.4932V75.5873H67.9979V61.6545H73.2806L74.2818 58.6134H58.9845V61.6545ZM139.902 58.6134C136.772 58.6134 133.718 60.5075 133.718 64.2963C133.718 66.3399 134.644 67.8605 136.046 68.7828C136.317 68.953 136.88 69.2602 137.782 69.4938C135.774 72.236 133.809 72.8761 132.817 73.1443L133.742 75.9113C137.496 75.6463 139.594 72.7523 141.383 69.8048H144.759V75.5873H148.263V58.6134H139.902ZM144.759 67.0126H139.751C138.55 67.0126 137.198 66.1904 137.173 64.2965C137.173 62.5018 138.325 61.6295 139.751 61.6295H144.759V67.0126ZM32.0522 66.6345L37.6526 58.9626L34.1975 58.3143L29.0406 65.4678H26.5867V58.3143L23.082 58.9377V75.5873H26.5867V68.5832H29.2906C30.9432 71.6246 33.5219 75.786 37.2272 75.8862L38.2284 72.8456C37.8028 72.7205 37.4276 72.5708 37.0517 72.3972C34.5988 71.1634 33.2296 68.7578 32.0522 66.6345ZM83.0195 58.2148C77.6117 58.2148 74.5073 61.7038 74.5073 66.4143V67.736C74.5073 72.4716 77.6118 75.9863 83.0195 75.9863C88.3268 75.9863 91.457 72.4716 91.457 67.736V66.4143C91.457 61.7039 88.3268 58.2148 83.0195 58.2148ZM87.8518 67.736C87.8518 70.453 86.5495 72.6961 83.0196 72.6961C79.4143 72.6961 78.1127 70.453 78.1127 67.736V66.4143C78.1127 63.673 79.4144 61.4297 83.0196 61.4297C86.5495 61.4297 87.8518 63.673 87.8518 66.4143V67.736ZM44.5384 70.4671V58.3143L41.0834 58.9126V75.5873H44.5384L52.8004 63.3865V75.5873H56.2555V58.4639L52.3246 58.9626L44.5384 70.4671Z" fill="black"/>
<path d="M181.212 56.4604C181.886 56.4604 182.555 56.3407 183.188 56.1076L187.448 54.5346C187.463 54.5291 187.476 54.52 187.487 54.5081C187.497 54.4962 187.505 54.4819 187.508 54.4665C187.511 54.451 187.511 54.435 187.506 54.4198C187.502 54.4046 187.494 54.3908 187.482 54.3796L186.543 53.444C186.529 53.4308 186.513 53.4218 186.494 53.4181C186.476 53.4144 186.457 53.4163 186.439 53.4234L179.084 56.4604H181.212Z" fill="black"/>
<path d="M8.48618 53.5538C3.9301 53.5538 0.750333 56.6943 0.725246 60.7816C0.725246 64.1969 3.1791 67.213 6.63402 67.7861C5.03126 70.1783 3.12865 72.098 0.5 72.7955L1.52643 75.8862C5.90716 75.7367 8.46082 71.5241 10.6395 68.0101H14.7702V75.5873H18.3259V53.5538H8.48618ZM14.7703 64.695H8.48618C6.25812 64.695 4.58049 63.1251 4.58049 60.7816C4.58049 58.3895 6.25812 56.8939 8.48618 56.8939H14.7703V64.695ZM103.274 58.2892C101.446 58.2892 99.2188 59.1364 98.142 60.433V58.6134H94.8625V80.9458H98.3671V74.4408C99.5194 75.8612 101.722 76.061 103.274 76.061C107.706 76.061 110.785 73.6429 110.785 67.7611V66.5396C110.785 60.4581 107.355 58.2892 103.274 58.2892ZM107.304 67.736C107.304 69.7295 106.729 72.8456 103.274 72.8456C101.547 72.8456 99.2186 72.3471 98.3669 70.8012V63.9469C99.2684 62.7012 100.921 61.4547 103.274 61.4547C106.429 61.4547 107.304 64.0965 107.304 66.5394V67.736Z" fill="black"/>
<path d="M187.753 58.9302C187.833 59.2621 187.856 59.573 187.792 59.9527C187.488 61.4093 185.814 62.1098 184.559 61.312C183.781 60.8183 183.046 60.2622 182.36 59.6493C181.87 59.2125 181.243 58.9586 180.585 58.931L177.426 58.7976C176.026 58.7393 175.212 57.5146 175.274 56.9315V56.9308C175.288 56.8016 175.349 56.6822 175.446 56.5954C175.543 56.5086 175.669 56.4606 175.8 56.4607H176.969L186.027 52.3981C186.044 52.3906 186.058 52.3785 186.068 52.3632C186.078 52.3479 186.083 52.3301 186.083 52.312V50.9712C186.083 50.9551 186.079 50.9393 186.071 50.9253C186.063 50.9112 186.052 50.8994 186.038 50.8908C186.025 50.8824 186.009 50.8776 185.993 50.8769C185.977 50.8762 185.961 50.8796 185.946 50.8867L159.633 63.9073C159.633 64.0805 159.631 64.1327 159.638 64.3869C159.641 64.5301 159.649 64.7249 159.652 64.7957L173.745 59.5931C174.12 59.7678 174.53 59.8586 174.944 59.859H178.609C178.998 59.859 179.371 60.0192 179.64 60.3009C180.629 61.3411 181.73 62.2692 182.923 63.0684C183.082 63.1742 183.205 63.3251 183.275 63.5014C183.346 63.6778 183.362 63.8713 183.32 64.0566C181.68 71.3803 175.967 77.1722 168.668 78.957C171.056 80.2258 173.784 80.9455 176.679 80.9455C178.639 80.9455 180.521 80.6152 182.273 80.0098V80.009C187.65 71.9561 188.825 62.9415 187.753 58.9302Z" fill="black"/>
<path d="M181.759 52.9585L172.175 57.7013C172.103 57.6537 172.037 57.5998 171.975 57.5404C171.955 57.5208 171.939 57.4971 171.93 57.4708C171.92 57.4446 171.916 57.4165 171.919 57.3886C171.924 57.3323 171.954 57.2811 172.002 57.2491C173.037 56.554 173.992 55.7483 174.851 54.8463C175.006 54.6848 175.164 54.5273 175.327 54.3741L175.329 54.3718C175.514 54.1987 175.743 54.0785 175.99 54.024C176.794 53.8465 178.692 53.409 179.933 52.9782C180.448 52.7983 181.004 52.7706 181.534 52.8986C181.61 52.9168 181.684 52.9382 181.759 52.9585ZM187.752 58.9266C187.699 58.7099 187.621 58.4845 187.526 58.2255L187.527 58.2252C187.112 57.0969 186.46 56.0696 185.614 55.2118L183.188 56.1077C182.555 56.3409 181.886 56.4604 181.212 56.4605H179.084L184.469 54.2369C184.126 53.9912 183.765 53.7721 183.388 53.5815L176.969 56.4605H177.698C177.873 56.4605 178.025 56.5773 178.069 56.7457C178.109 56.8982 178.13 57.0579 178.13 57.223C178.13 57.3877 178.109 57.5476 178.069 57.7001C178.048 57.7817 178 57.854 177.933 57.9055C177.866 57.9571 177.783 57.9851 177.698 57.9852H176.227C176.078 57.9854 175.93 57.9507 175.797 57.8839C175.663 57.817 175.547 57.7199 175.458 57.6003C175.851 58.2884 176.579 58.7622 177.426 58.7974L180.586 58.9308C181.243 58.9585 181.87 59.2123 182.36 59.6491C183.047 60.2621 183.782 60.8181 184.559 61.3118C185.814 62.1097 187.489 61.4092 187.792 59.9526C187.856 59.5715 187.834 59.2599 187.752 58.9266Z" fill="black"/>
</g>
<defs>
<clipPath id="clip0_110_1567">
<rect width="193" height="120" fill="white" transform="translate(0.5)"/>
</clipPath>
</defs>
</svg>
